<svg xmlns="http://www.w3.org/2000/svg" width="45.326" height="41.725" viewBox="0 0 45.326 41.725"><defs><style>.a{fill:#dd9f3a;}.b{fill:#f4b74a;}.c{fill:#f9c662;}.d{fill:#ffd488;}.e{fill:#e0a33f;}</style></defs><g transform="translate(0 8.345)"><path class="a" d="M71.045,116.676v4.2a2.073,2.073,0,0,1-2.073,2.073H44.142a2.073,2.073,0,0,1-2.073-2.073v-4.2a2.073,2.073,0,0,1,2.073-2.072h24.83A2.073,2.073,0,0,1,71.045,116.676Z" transform="translate(-38.345 -114.604)"/><path class="a" d="M28.976,210.943v4.2a2.073,2.073,0,0,1-2.073,2.073H2.073A2.073,2.073,0,0,1,0,215.142v-4.2a2.073,2.073,0,0,1,2.073-2.072H26.9A2.073,2.073,0,0,1,28.976,210.943Z" transform="translate(0 -200.526)"/><path class="a" d="M44.752,305.208v4.2a2.073,2.073,0,0,1-2.073,2.073H17.849a2.073,2.073,0,0,1-2.073-2.073v-4.2a2.073,2.073,0,0,1,2.073-2.072h24.83A2.073,2.073,0,0,1,44.752,305.208Z" transform="translate(-14.379 -286.446)"/><path class="a" d="M28.976,399.475v4.2a2.073,2.073,0,0,1-2.073,2.073H2.073A2.073,2.073,0,0,1,0,403.674v-4.2A2.073,2.073,0,0,1,2.073,397.4H26.9A2.073,2.073,0,0,1,28.976,399.475Z" transform="translate(0 -372.368)"/></g><path class="b" d="M81.526,399.476v2.9a2.074,2.074,0,0,1-1.854,2.062,2.144,2.144,0,0,1-.22.011H59.725a2.073,2.073,0,0,1-2.072-2.073v-2.9a2.073,2.073,0,0,1,2.072-2.072H79.452A2.073,2.073,0,0,1,81.526,399.476Z" transform="translate(-52.549 -364.023)"/><g transform="translate(5.104 33.381)"><path class="b" d="M81.526,399.476v2.9a2.074,2.074,0,0,1-1.854,2.062,2.144,2.144,0,0,1-.22.011H59.725a2.073,2.073,0,0,1-2.072-2.073v-2.9a2.073,2.073,0,0,1,2.072-2.072H79.452A2.073,2.073,0,0,1,81.526,399.476Z" transform="translate(-57.653 -397.404)"/></g><g transform="translate(5.104 8.346)"><path class="b" d="M81.525,305.207v2.9a2.074,2.074,0,0,1-1.854,2.062,2.144,2.144,0,0,1-.22.011H59.724a2.073,2.073,0,0,1-2.072-2.073v-2.9a2.073,2.073,0,0,1,2.072-2.072H79.451A2.073,2.073,0,0,1,81.525,305.207Z" transform="translate(-57.652 -286.445)"/><path class="b" d="M81.525,210.948v2.9a2.074,2.074,0,0,1-1.854,2.062,2.148,2.148,0,0,1-.22.011H59.724a2.073,2.073,0,0,1-2.072-2.073v-2.9a2.073,2.073,0,0,1,2.072-2.072H79.451A2.073,2.073,0,0,1,81.525,210.948Z" transform="translate(-57.652 -200.531)"/><path class="b" d="M123.591,116.678v2.9a2.074,2.074,0,0,1-1.854,2.062,2.148,2.148,0,0,1-.22.011H101.79a2.073,2.073,0,0,1-2.072-2.073v-2.9a2.073,2.073,0,0,1,2.072-2.072h19.727A2.073,2.073,0,0,1,123.591,116.678Z" transform="translate(-95.994 -114.606)"/></g><g transform="translate(0 0)"><path class="a" d="M167.258,399.477v4.2a2.074,2.074,0,0,1-1.854,2.062q-.283.011-.567.011a14.435,14.435,0,0,1-9.4-3.46c-.29-.248-.572-.508-.846-.782a14.451,14.451,0,0,1-2.88-4.1h13.472A2.073,2.073,0,0,1,167.258,399.477Z" transform="translate(-138.281 -364.024)"/><path class="a" d="M167.595,305.207v4.2a2.073,2.073,0,0,1-2.073,2.073H153.444a14.526,14.526,0,0,1-1.195-8.344h13.272A2.073,2.073,0,0,1,167.595,305.207Z" transform="translate(-138.618 -278.1)"/><path class="a" d="M28.976,22.409v4.2A2.073,2.073,0,0,1,26.9,28.681H2.073A2.073,2.073,0,0,1,0,26.608v-4.2a2.073,2.073,0,0,1,2.073-2.072H26.9A2.073,2.073,0,0,1,28.976,22.409Z" transform="translate(0 -20.337)"/></g><path class="b" d="M81.526,22.407v2.9a2.074,2.074,0,0,1-1.854,2.062,2.146,2.146,0,0,1-.22.011H59.725A2.073,2.073,0,0,1,57.653,25.3v-2.9a2.073,2.073,0,0,1,2.072-2.072H79.452A2.073,2.073,0,0,1,81.526,22.407Z" transform="translate(-52.549 -20.335)"/><g transform="translate(18.773 0)"><rect class="c" width="3.041" height="7.041" transform="translate(3.755 0)"/><rect class="c" width="1.52" height="7.041" transform="translate(0 0)"/><rect class="c" width="3.041" height="8.345" transform="translate(7.417 8.346)"/><rect class="c" width="1.521" height="8.345" transform="translate(3.662 8.346)"/></g><g transform="translate(12.234 12.75)"><path class="a" d="M227.823,164.873v1.357a2.073,2.073,0,0,1-2.073,2.073H214.074A14.48,14.48,0,0,1,227.823,164.873Z" transform="translate(-207.357 -164.363)"/><path class="a" d="M154.94,210.948v4.2a2.073,2.073,0,0,1-2.073,2.073H138.2a14.418,14.418,0,0,1,4.076-8.042q.155-.155.313-.3h10.28A2.073,2.073,0,0,1,154.94,210.948Z" transform="translate(-138.198 -204.935)"/></g><path class="b" d="M209.424,189.088a14.476,14.476,0,0,1-19.643.783q-.436-.371-.847-.783a14.488,14.488,0,0,1,20.49-20.49q.412.412.783.847a14.476,14.476,0,0,1-.783,19.643Z" transform="translate(-168.341 -151.605)"/><path class="c" d="M264.835,225.379,245.715,244.5a14.392,14.392,0,0,1-3.526-2.221l20.425-20.425A14.38,14.38,0,0,1,264.835,225.379Z" transform="translate(-220.749 -204.013)"/><path class="d" d="M253.113,222.533a10.245,10.245,0,1,1-3.751-7.924A10.245,10.245,0,0,1,253.113,222.533Z" transform="translate(-212.03 -195.295)"/><path class="c" d="M249.361,214.608l-14.417,14.417h0a10.244,10.244,0,0,1,14.418-14.416Z" transform="translate(-212.03 -195.294)"/><path class="d" d="M251.345,217.144l-13.865,13.864a10.142,10.142,0,0,1-.852-2.145L249.2,216.292A10.149,10.149,0,0,1,251.345,217.144Z" transform="translate(-215.681 -198.944)"/><g transform="translate(19.895 16.295)"><path class="e" d="M235.679,226.286a10.943,10.943,0,1,1,10.943-10.943A10.911,10.911,0,0,1,235.679,226.286Zm0-20.489a9.547,9.547,0,1,0,6.051,2.163A9.557,9.557,0,0,0,235.679,205.8Z" transform="translate(-224.736 -204.4)"/></g></svg>