<svg xmlns="http://www.w3.org/2000/svg" width="18.091" height="12.442" viewBox="0 0 18.091 12.442"><defs><style>.a{fill:#151515;}.b{fill:#cc3434;}.c{fill:#efefef;}.d{fill:#eebc31;}</style></defs><rect class="a" width="18.091" height="12.442" transform="translate(0)"/><rect class="b" width="18.091" height="5.101" transform="translate(0)"/><rect class="c" width="18.091" height="4.656" transform="translate(0 3.893)"/><g transform="translate(7.611 4.5)"><path class="d" d="M192.795,185.589a1.951,1.951,0,0,0-.322-.01c-.02.012-.017.046-.026.069.01.021.032.01.053.026s.055.074.105.09c-.043.045-.042.134-.105.158.011.1-.057.122-.158.142a6.2,6.2,0,0,1-1.761.037.879.879,0,0,1-.3-.079.1.1,0,0,1-.026-.09c-.061-.03-.062-.121-.111-.163.068-.023.081-.1.158-.116a.237.237,0,0,0-.016-.074,2.114,2.114,0,0,0-.332.01c.008-.118.011-.252.021-.39.013-.185.011-.4.026-.585.008-.094,0-.191.011-.285.011-.178,0-.355.016-.522s.007-.373.021-.543.063-.318.269-.3c.244.02.4.225.664.227a.7.7,0,0,0,.179-.6c-.016-.1-.125-.251-.232-.2-.016-.173.149-.15.258-.095.033-.021.043-.05.079-.058a.4.4,0,0,1,.248.048.342.342,0,0,1,.121.306c0,.074-.017.147-.011.221a.664.664,0,0,0,.132.364c.247.023.429-.2.669-.222a.242.242,0,0,1,.232.095,4.606,4.606,0,0,1,.068.817c.013.17.005.348.016.522C192.766,184.79,192.778,185.185,192.795,185.589Zm-1.186-2.758a1.539,1.539,0,0,0-.021-.427c-.023-.022-.037-.054-.069-.069h-.079c-.04.021-.054.065-.095.074-.1.021-.105-.072-.179-.1-.019-.008-.045,0-.069-.011-.071-.022-.113-.047-.148.053.129-.008.244.034.274.142-.074-.021-.053.046-.048.089a.784.784,0,0,1-.095.512c-.035.057-.08.1-.105.153.077-.014.146-.01.185-.058.052-.064.041-.2.074-.279a.57.57,0,0,1-.126.374c.188-.026.221-.183.237-.374a.5.5,0,0,1-.042.264c.024.03.038.071.074.09a.257.257,0,0,0,.068-.095.4.4,0,0,1-.032-.258c0,.2.053.348.227.374a.525.525,0,0,1-.116-.38.853.853,0,0,0,.068.29.375.375,0,0,0,.185.053A.733.733,0,0,1,191.609,182.831Zm-.332-.48v.021c.013,0,.011.01.026.005a.032.032,0,0,0,.005-.026A.026.026,0,0,0,191.277,182.352Zm-1.018.627a.2.2,0,0,0-.179.222c.051-.018.1-.065.153-.063-.029.793-.063,1.515-.095,2.3a.625.625,0,0,0-.137.132h.285c.015-.126.156-.152.274-.116.056-.193.113-.386.164-.585-.052.032-.079.09-.132.121.019-.507.045-1,.063-1.518a.464.464,0,0,0,.343.047,1.052,1.052,0,0,0,.385-.169.861.861,0,0,0,.475.179.574.574,0,0,0,.243-.048c.011.517.048,1.023.058,1.513a1.477,1.477,0,0,0-.126-.121c.047.2.107.385.158.58.123-.039.258-.005.28.116.093,0,.2.007.284-.005-.033-.059-.115-.076-.137-.137a1.067,1.067,0,0,1-.011-.264c-.029-.638-.069-1.391-.084-2.03a1.6,1.6,0,0,1,.153.068c-.012-.127-.065-.214-.185-.222-.273-.018-.43.233-.706.227,0,.033.054.041.047.063a.8.8,0,0,1-.185-.026c-.005.029.048.043.053.079a.471.471,0,0,1-.248-.121.489.489,0,0,1-.079.1.629.629,0,0,0-.079-.1.344.344,0,0,1-.242.116c.015-.027.047-.037.053-.074a.478.478,0,0,1-.185.021c.016-.019.044-.026.048-.058C190.7,183.213,190.521,182.959,190.259,182.979Zm.511.57a1.351,1.351,0,0,0,.611,1.218,1.376,1.376,0,0,0,.6-1.218,1.087,1.087,0,0,1-.432-.079c-.065-.028-.127-.079-.179-.095A.936.936,0,0,1,190.77,183.549Zm.01.385c0,.256-.046.569-.026.833a1.793,1.793,0,0,0,.047-.511.694.694,0,0,0-.016-.338A.025.025,0,0,1,190.781,183.933Zm1.171.475a.842.842,0,0,0,.053.364c.005-.28-.03-.572-.031-.849-.007,0-.007-.007-.016-.005A2.169,2.169,0,0,0,191.951,184.408Zm-1.086.3c.045-.051.1-.1.137-.153a.407.407,0,0,0-.095-.269C190.891,184.422,190.761,184.6,190.865,184.709Zm.886-.148c.05.046.092.126.148.148.079-.128-.035-.266-.047-.411-.007,0-.008-.007-.016-.005A.42.42,0,0,0,191.751,184.561Zm-.707.237a1.46,1.46,0,0,0,.132-.169c-.066-.052-.113-.122-.174-.179C191.016,184.566,191.024,184.689,191.044,184.8Zm.533-.164a.892.892,0,0,0,.137.164c.011-.114.019-.23.037-.338,0-.006,0-.012-.01-.011A1.8,1.8,0,0,1,191.577,184.634Zm-.728.105c-.006-.034-.024-.056-.032-.089a.724.724,0,0,0-.074.232c-.008.029-.029.054-.026.084.06-.026.085-.087.148-.111a1.315,1.315,0,0,0,.053.137c.049-.023.047-.1.09-.127.024.085.049.169.079.248.056-.048.12-.087.137-.174-.032-.072-.061-.147-.09-.221-.043.029-.07.1-.105.121a.815.815,0,0,0-.037-.253A.971.971,0,0,1,190.849,184.74Zm.875.105c-.038-.039-.065-.09-.105-.126-.015.035-.033.069-.047.105a.457.457,0,0,0-.042.116c0,.083.087.121.137.174a1.511,1.511,0,0,1,.068-.248c.033.041.048.1.095.127.024-.044.041-.1.063-.142a1.4,1.4,0,0,0,.137.116,1.85,1.85,0,0,0-.095-.322.415.415,0,0,1-.042.095,1.407,1.407,0,0,0-.142-.148A1.677,1.677,0,0,0,191.725,184.845Zm-.538-.2c-.085.061.009.184.042.253.015-.061.029-.123.042-.185C191.242,184.692,191.214,184.669,191.187,184.645Zm.3.074a.633.633,0,0,0,.048.179c.029-.062.051-.132.079-.2-.015-.022-.025-.049-.053-.058C191.543,184.681,191.5,184.684,191.482,184.719Zm-.638.158a.539.539,0,0,1-.137.116c-.037.106.039.2.074.279.048-.035.069-.1.116-.132a.8.8,0,0,0,.063.179c.052-.036.081-.122.131-.142a.4.4,0,0,0,.042.163c.019-.1.043-.2.063-.3-.043.009-.074.074-.116.1-.029-.076-.048-.163-.079-.237-.041.029-.047.094-.084.127A.491.491,0,0,0,190.844,184.877Zm.981.158c-.03-.044-.048-.1-.095-.127-.019.079-.041.156-.058.237-.044-.025-.073-.092-.116-.1a1.373,1.373,0,0,0,.074.3.972.972,0,0,1,.037-.174c.048.046.072.114.132.148.017-.063.039-.119.058-.179.045.038.066.1.116.132.029-.085.1-.164.074-.274-.055-.035-.1-.084-.148-.121C191.868,184.924,191.857,184.99,191.825,185.035Zm-.574.416c-.027.015-.046.038-.074.053-.011-.013-.044-.056-.053-.037s-.008.048-.016.069c.05,0,.15-.015.174.032.071-.01.129.013.185,0,.021-.005.037-.028.058-.032.039-.008.077.007.116,0-.007-.023,0-.058-.016-.074-.035,0-.029.038-.063.037-.018-.024-.051-.034-.069-.058-.02-.147-.033-.3-.063-.438-.012.146.021.291.016.448-.028.024-.042.064-.074.084-.012-.035-.06-.053-.069-.1-.023-.129.048-.329.016-.432C191.289,185.146,191.283,185.312,191.25,185.452Zm-.675.005a.13.13,0,0,0,.09.021.854.854,0,0,1,.1-.126,1.225,1.225,0,0,0,.064.163h.037c.029-.035.044-.082.074-.116.018.041.027.092.047.132a.359.359,0,0,0,.095.005.409.409,0,0,0-.005-.327c-.048.043-.077.106-.127.148a.532.532,0,0,0-.069-.179c-.037.042-.07.088-.105.132-.037-.066-.048-.16-.1-.211C190.647,185.223,190.611,185.34,190.575,185.457Zm1.4-.148a.6.6,0,0,0-.111-.132c-.031.051-.036.13-.069.179-.041-.046-.077-.123-.126-.142a.416.416,0,0,0,.005.322.318.318,0,0,0,.09-.005c.024-.037.028-.094.053-.132.022.039.046.077.068.116h.042a1.667,1.667,0,0,1,.069-.169.773.773,0,0,0,.1.137c.029-.008.067-.007.079-.032-.036-.114-.066-.233-.1-.348h-.016C192.032,185.175,192,185.243,191.973,185.309Zm-1.292.179a1.089,1.089,0,0,0,.127.021.3.3,0,0,0-.058-.126C190.731,185.423,190.694,185.444,190.681,185.489Zm1.265.021a.985.985,0,0,0,.121-.021c0-.032-.045-.07-.068-.1C191.966,185.413,191.959,185.465,191.946,185.51Zm-1.06.011c.017.011.054,0,.079.005-.01-.031-.008-.073-.037-.084A.265.265,0,0,0,190.886,185.52Zm.9.005h.074a.1.1,0,0,0-.053-.084C191.808,185.473,191.78,185.5,191.788,185.526Zm.511-.074a3.977,3.977,0,0,1-.438.09,2.19,2.19,0,0,1-.338.011c-.031.033-.015.072.005.105a1.224,1.224,0,0,0,.332-.005c-.006-.112.127-.14.142-.021a1.4,1.4,0,0,0,.332-.084C192.337,185.5,192.337,185.458,192.3,185.452Zm-1.508.079c-.09-.013-.212-.056-.3-.074-.047-.01-.061,0-.079.021v.074a1.734,1.734,0,0,0,.332.079c.01-.119.144-.1.137.021a1.236,1.236,0,0,0,.332.005c.023-.037.039-.064.011-.105A2.434,2.434,0,0,1,190.791,185.531Zm-.48.063a.22.22,0,0,0,.09-.048c0-.026.005-.062-.005-.079A.1.1,0,0,0,190.312,185.594Zm2.04-.042a.248.248,0,0,0,.09.042.1.1,0,0,0-.084-.127C192.346,185.487,192.354,185.525,192.352,185.552Zm-1.534.142a.22.22,0,0,1,.042-.032.117.117,0,0,0-.021-.095C190.746,185.555,190.75,185.684,190.818,185.694Zm1.07-.037c.008.018.032.022.053.037.022-.012.032-.035.047-.053C191.986,185.526,191.853,185.573,191.888,185.657Zm-1.149-.01c-.14,0-.282-.1-.406-.042,0,.026-.023.037-.016.074-.059-.006-.128.073-.132.1-.008.06.051.1.084.142a.13.13,0,0,0,.016.084,4.732,4.732,0,0,0,1.735.09c.162-.018.42-.035.464-.127v-.063c.058-.015.068-.08.084-.137-.047-.031-.063-.092-.137-.095.015-.021-.01-.041-.011-.063-.066-.056-.144-.015-.237.005-.128.028-.211.028-.243.121-.013-.033-.045-.047-.068-.069a1.1,1.1,0,0,1-.337.005c-.027.043-.088.053-.095.116a.263.263,0,0,1-.037-.127h-.053a.285.285,0,0,1-.042.127c0-.064-.067-.07-.089-.116a1.47,1.47,0,0,1-.338,0c-.036.011-.051.043-.079.063C190.8,185.69,190.76,185.677,190.739,185.647Zm.575-.063a.223.223,0,0,0,.037.064c.064.013.07-.032.09-.064A.316.316,0,0,0,191.313,185.584Zm-.074.09a.2.2,0,0,0,.079.058c.021-.055.006-.136-.053-.142C191.271,185.631,191.235,185.632,191.24,185.673Zm.227-.084c-.033.024-.074.111-.021.142.02-.026.056-.036.069-.069C191.492,185.644,191.5,185.6,191.466,185.589Z" transform="translate(-189.953 -182.241)"/><path class="d" d="M197.219,214.7a1.556,1.556,0,0,1-.179.153c.025-.72.071-1.459.095-2.2a.728.728,0,0,1,.163.137C197.276,213.427,197.246,214.017,197.219,214.7Z" transform="translate(-196.824 -211.718)"/><path class="d" d="M267.636,214.684c-.03.006-.059-.043-.09-.069a.453.453,0,0,1-.095-.084c-.033-.543-.025-1.116-.069-1.634a1.379,1.379,0,0,1-.01-.269c.017-.064.126-.089.158-.147C267.571,213.141,267.6,213.971,267.636,214.684Z" transform="translate(-265.005 -211.557)"/><path class="d" d="M204.541,218.352a1.069,1.069,0,0,1,.132.105c-.013.424-.039.931-.058,1.355a.868.868,0,0,1-.005.216c-.022.061-.108.094-.148.148C204.485,219.562,204.521,218.954,204.541,218.352Z" transform="translate(-204.019 -217.25)"/><path class="d" d="M262.023,220.32c-.007.007-.022-.011-.032-.021-.031-.031-.075-.078-.105-.111-.027-.516-.047-1.054-.068-1.566a.565.565,0,0,1,.121-.111C261.969,219.066,262,219.725,262.023,220.32Z" transform="translate(-259.624 -217.404)"/><path class="d" d="M218.892,220.755a1.351,1.351,0,0,1-.554,1.155,1.412,1.412,0,0,1-.575-1.155.992.992,0,0,0,.575-.163A.91.91,0,0,0,218.892,220.755Zm-.743-.037c-.009.216-.005.507-.005.744a1.2,1.2,0,0,0,0,.253c.009.034.062.065.09.09a.6.6,0,0,0,.1.079c.051-.04.177-.1.2-.169a1.193,1.193,0,0,0,0-.248v-.749c-.068-.034-.133-.071-.2-.105C218.28,220.66,218.2,220.675,218.149,220.718Z" transform="translate(-216.915 -219.421)"/><path class="d" d="M206.542,288.477c.033.011.085,0,.09.042-.028.01-.05-.026-.09-.021Z" transform="translate(-206.036 -285.234)"/><path class="d" d="M263.805,288.6a.353.353,0,0,1-.09.037C263.715,288.6,263.786,288.585,263.805,288.6Z" transform="translate(-261.464 -285.35)"/><path class="d" d="M211.725,290.208a.18.18,0,0,1,.111.037C211.8,290.246,211.732,290.238,211.725,290.208Z" transform="translate(-211.06 -286.913)"/><path class="d" d="M257.782,290.3a.175.175,0,0,1-.116.031A.15.15,0,0,1,257.782,290.3Z" transform="translate(-255.599 -286.995)"/><path class="d" d="M248.28,291.812a.263.263,0,0,1-.116,0C248.173,291.776,248.268,291.779,248.28,291.812Z" transform="translate(-246.387 -288.443)"/><path class="d" d="M221.351,291.873c-.01.039-.084.014-.127.021C221.227,291.847,221.315,291.873,221.351,291.873Z" transform="translate(-220.27 -288.52)"/><path class="d" d="M227.026,292.237a.2.2,0,0,1-.111.016C226.926,292.225,227,292.228,227.026,292.237Z" transform="translate(-225.787 -288.873)"/><path class="d" d="M242.579,292.226a1.092,1.092,0,0,1-.111-.016C242.488,292.192,242.579,292.19,242.579,292.226Z" transform="translate(-240.865 -288.841)"/><path class="d" d="M254.633,293.993c.024,0,.011-.038.037-.037,0,.016.005.019.005.032a.1.1,0,0,1-.095.01c-.041.022-.093.1-.148.042-.038.006-.032.055-.063.069-.042-.033-.078-.017-.142-.011-.019.022-.021.06-.058.063,0-.024.031-.021.032-.047s-.036-.01-.048-.021c-.01-.043.024-.043.037-.063.024.006.026.033.032.058a.121.121,0,0,0,.048-.011.125.125,0,0,1,.037-.069c0-.029-.019-.069-.016-.084.03.007.016.058.032.079.041,0,.065.009.074.037.041-.016.053-.063.105-.063.023,0,.035.02.058.016.006-.07-.012-.214-.1-.158,0-.028.043-.021.074-.021C254.588,293.852,254.535,294,254.633,293.993Zm-.185.042c.024.022.085.01.079-.032C254.512,293.977,254.438,293.988,254.448,294.035Zm-.105.026a.191.191,0,0,0,.037-.01C254.38,293.991,254.3,294.021,254.343,294.061Zm-.047.016c.013,0,.016-.008.026-.011s0-.037-.016-.037S254.281,294.06,254.3,294.077Zm-.127.011c.016.007.024,0,.037-.005s-.009-.016-.005-.032C254.178,294.052,254.165,294.061,254.169,294.088Zm.179,0a.023.023,0,0,0,.037-.021C254.369,294.07,254.348,294.068,254.348,294.088Z" transform="translate(-252.192 -290.407)"/><path class="d" d="M205.725,294.431v.026c-.008.008-.027,0-.042.005,0-.019,0-.013-.005-.032A.037.037,0,0,1,205.725,294.431Z" transform="translate(-205.198 -290.999)"/><path class="d" d="M205.374,296.581c0,.009-.007.011-.005.021-.021,0-.041,0-.042-.021A.05.05,0,0,1,205.374,296.581Z" transform="translate(-204.857 -293.085)"/><path class="d" d="M242.975,298.155H243a.041.041,0,0,1,0,.042h-.021A.041.041,0,0,1,242.975,298.155Z" transform="translate(-241.351 -294.617)"/><path class="d" d="M214.779,298.495c.016.069.028.217-.032.227s-.042-.08-.1-.084a.156.156,0,0,1-.116.011c-.026,0-.022.034-.048.037.034-.035.02-.08.016-.121.028,0,.032.031.032.064.015.032.079.01.1,0-.011-.022-.026-.041-.037-.064.032-.008.032-.038.063-.037a.055.055,0,0,1,.01.105c.035.013.039.056.069.074C214.807,298.691,214.756,298.556,214.779,298.495Zm-.158.084c0,.02.017.032.037.042C214.747,298.582,214.625,298.495,214.621,298.579Z" transform="translate(-213.735 -294.947)"/><path class="d" d="M225.881,298.495c.017.036-.006.12-.011.169A.438.438,0,0,1,225.881,298.495Z" transform="translate(-224.768 -294.947)"/><path class="d" d="M243.9,298.495c.035.035-.006.147.037.174.036-.011.06-.006.069-.037s-.031-.044-.01-.063c.047,0,.016.068.01.095a.36.36,0,0,1-.158.01c0-.027.031-.029.053-.037C243.921,298.592,243.889,298.532,243.9,298.495Z" transform="translate(-242.203 -294.947)"/><path class="d" d="M243.069,300.209c0,.031-.064.013-.042-.005S243.068,300.193,243.069,300.209Z" transform="translate(-241.403 -296.597)"/><path class="d" d="M250.643,301.075a.286.286,0,0,1,.037-.069c-.015-.029-.073-.057-.032-.095C250.73,300.923,250.691,301.055,250.643,301.075Zm.005-.137c0,.02.011.035.032.037C250.693,300.959,250.669,300.92,250.649,300.937Z" transform="translate(-248.782 -297.289)"/><path class="d" d="M268.437,301.3c0,.031-.038.021-.053.011C268.392,301.282,268.419,301.291,268.437,301.3Z" transform="translate(-265.99 -297.658)"/><path class="d" d="M227.718,301.434a.234.234,0,0,0,.2.026c.015.015.014.046.026.063a.045.045,0,0,1,.032-.005c-.011-.063.076-.078.074-.011-.016.03-.063.028-.111.027-.022.012-.022.045-.042.058a.062.062,0,0,1-.047-.047.825.825,0,0,0-.169-.01c-.021.025-.042.077-.074.074.015-.027.045-.039.053-.074-.01-.02-.047-.036-.026-.069.051-.008.026.059.068.058C227.747,301.505,227.712,301.463,227.718,301.434Zm.016.09c.029,0,.077,0,.116.005.017.013.018.041.042.047.017-.023.047-.066.021-.1C227.855,301.524,227.728,301.414,227.734,301.524Zm.263-.005c.027,0,.037-.008.037-.032C228.014,301.46,227.979,301.491,228,301.518Z" transform="translate(-226.458 -297.796)"/><path class="d" d="M205.717,302.264c.017,0,.016.008.026.011a.085.085,0,0,1-.01.037C205.7,302.307,205.7,302.281,205.717,302.264Z" transform="translate(-205.227 -298.6)"/><path class="d" d="M207.449,302.954c.022.036-.031.056-.048.026C207.4,302.958,207.421,302.95,207.449,302.954Z" transform="translate(-206.869 -299.269)"/><path class="d" d="M210.032,303.427c-.005,0,0,.007-.005.011h-.037C209.965,303.394,210.034,303.379,210.032,303.427Z" transform="translate(-209.373 -299.699)"/><path class="d" d="M245.06,305.406c.028,0,.025.046.005.053S245.045,305.415,245.06,305.406Z" transform="translate(-243.367 -301.647)"/><path class="d" d="M246.656,305.583c-.015-.006-.031-.011-.037-.026C246.635,305.507,246.7,305.552,246.656,305.583Z" transform="translate(-244.889 -301.771)"/><path class="d" d="M205.752,294.7h.016c0,.073-.109.2.016.206.02-.013.009-.058.037-.063,0,.028-.011.039-.016.058.024.068.146.029.095-.047.059,0,.013.064.005.09a.121.121,0,0,1-.111-.021c-.059,0-.11-.016-.116-.074C205.731,294.825,205.742,294.763,205.752,294.7Z" transform="translate(-205.198 -291.266)"/></g></svg>