<svg xmlns="http://www.w3.org/2000/svg" xmlns:xlink="http://www.w3.org/1999/xlink" width="57.56" height="56.837" viewBox="0 0 57.56 56.837"><defs><style>.a{fill:url(#a);}</style><linearGradient id="a" x1="0.5" x2="0.5" y2="1" gradientUnits="objectBoundingBox"><stop offset="0" stop-color="#3c7a3c"/><stop offset="1" stop-color="#3c7a54"/></linearGradient></defs><g transform="translate(-995.64 -907.844)"><g transform="translate(995.64 907.844)"><g transform="translate(0 0)"><path class="a" d="M1052.4,1094.876H996.447a.806.806,0,0,1-.806-.806v-33.678a.806.806,0,0,1,.3-.63l5.752-4.6a.806.806,0,0,1,1.007,1.259l-5.449,4.358v32.484h54.335v-32.484l-5.449-4.358a.806.806,0,1,1,1.007-1.259l5.752,4.6a.806.806,0,0,1,.3.63v33.678A.806.806,0,0,1,1052.4,1094.876Z" transform="translate(-995.641 -1038.039)"/><path class="a" d="M1200.068,913.4a.8.8,0,0,1-.5-.177l-4.225-3.378a2.154,2.154,0,0,0-2.463,0l-4.152,3.32a.806.806,0,1,1-1.007-1.259l4.171-3.335.036-.027a3.767,3.767,0,0,1,4.367,0l.036.027,4.244,3.394a.806.806,0,0,1-.5,1.436Z" transform="translate(-1165.329 -907.844)"/></g><path class="a" d="M1024.42,1116.031a3.4,3.4,0,0,1-1.988-.641l-26.456-19.008a.806.806,0,0,1,.941-1.309l26.456,19.008a1.792,1.792,0,0,0,2.094,0l26.457-19.008a.806.806,0,0,1,.941,1.309l-26.457,19.008A3.4,3.4,0,0,1,1024.42,1116.031Z" transform="translate(-995.64 -1073.375)"/><path class="a" d="M1130.1,1245.662a.806.806,0,0,1-.406-1.5l7.678-4.458a.806.806,0,0,1,.81,1.395l-7.678,4.458A.8.8,0,0,1,1130.1,1245.662Z" transform="translate(-1113.899 -1201.383)"/><path class="a" d="M1286.7,1246.144a.8.8,0,0,1-.446-.135l-6.6-4.4a.806.806,0,1,1,.894-1.342l6.6,4.4a.806.806,0,0,1-.448,1.477Z" transform="translate(-1246.63 -1201.866)"/></g><path class="a" d="M1112.25,966.61a.806.806,0,0,1-.806-.806V946.535h-36.422V965.8a.806.806,0,0,1-1.613,0V945.729a.806.806,0,0,1,.806-.806h38.034a.806.806,0,0,1,.806.806V965.8A.806.806,0,0,1,1112.25,966.61Z" transform="translate(-68.812 -32.808)"/><path class="a" d="M1141.588,1003.245H1130.1a.806.806,0,1,1,0-1.612h11.488a.806.806,0,1,1,0,1.612Z" transform="translate(-118.261 -82.987)"/><path class="a" d="M1154.632,1050.4H1130.1a.806.806,0,0,1,0-1.613h24.531a.806.806,0,0,1,0,1.613Z" transform="translate(-118.261 -124.714)"/><path class="a" d="M1154.632,1097.56H1130.1a.806.806,0,1,1,0-1.612h24.531a.806.806,0,0,1,0,1.612Z" transform="translate(-118.261 -166.439)"/><path class="a" d="M1154.632,1144.719H1130.1a.806.806,0,0,1,0-1.613h24.531a.806.806,0,0,1,0,1.613Z" transform="translate(-118.261 -208.166)"/><path class="a" d="M1202.385,1191.876H1190.9a.806.806,0,0,1,0-1.612h11.488a.806.806,0,0,1,0,1.612Z" transform="translate(-172.056 -249.893)"/></g></svg>