<svg xmlns="http://www.w3.org/2000/svg" xmlns:xlink="http://www.w3.org/1999/xlink" width="401.262" height="232.187" viewBox="0 0 401.262 232.187"><defs><style>.a{fill:#bdbdbd;}.b{fill:url(#a);}.c{fill:#dedede;}.d{fill:#999595;}.e{fill:#3c3c3c;}.f{fill:url(#b);}.g{fill:#f2dad4;}.h{fill:#242323;}.i{fill:#f0bf9c;}.j{fill:#1e1f1f;}.k{fill:url(#c);}.l{fill:#e1b290;}.m{fill:url(#e);}.n{fill:url(#f);}.o{fill:url(#g);}.p{fill:url(#h);}</style><linearGradient id="a" x1="0.5" y1="-0.227" x2="0.5" y2="0.559" gradientUnits="objectBoundingBox"><stop offset="0" stop-color="#e5e5e5"/><stop offset="0.476" stop-color="#f3f3f3"/><stop offset="1" stop-color="#fff"/></linearGradient><linearGradient id="b" x1="0.419" y1="-0.145" x2="0.536" y2="0.837" gradientUnits="objectBoundingBox"><stop offset="0" stop-color="#3c7a5d"/><stop offset="0.984" stop-color="#3c7a3c"/><stop offset="1" stop-color="#3c7a3c"/></linearGradient><linearGradient id="c" x1="0.265" y1="-0.23" x2="0.691" y2="0.944" gradientUnits="objectBoundingBox"><stop offset="0" stop-color="#3c7a5d"/><stop offset="1" stop-color="#3c7a3c"/></linearGradient><linearGradient id="e" x1="0.103" y1="-0.049" x2="0.752" y2="0.905" gradientUnits="objectBoundingBox"><stop offset="0" stop-color="#f2bfad"/><stop offset="1" stop-color="#f2dad4"/></linearGradient><linearGradient id="f" x1="0.086" y1="0.016" x2="0.677" y2="0.759" xlink:href="#e"/><linearGradient id="g" x1="0.602" y1="0.368" x2="0.324" y2="0.911" xlink:href="#e"/><linearGradient id="h" x1="0" y1="0.5" x2="1" y2="0.5" xlink:href="#e"/></defs><g transform="translate(-1070.808 -785.412)"><g transform="translate(1070.808 847.192)"><path class="a" d="M1812.358,924.071a2.788,2.788,0,0,0-5.509.862c.4,2.6.91,10.732-1.9,14.005a3.748,3.748,0,0,1-2.263,1.3l.256-15.494a4.03,4.03,0,1,0-8.058.033l.728,29.4a3.762,3.762,0,0,1-2.359-1.314c-2.807-3.273-2.3-11.408-1.9-14.005a2.788,2.788,0,0,0-5.509-.862c-.2,1.28-1.812,12.671,3.167,18.489a9.44,9.44,0,0,0,6.737,3.311l.317,12.8h6.084l.441-26.74a9.42,9.42,0,0,0,6.6-3.3C1814.17,936.742,1812.558,925.351,1812.358,924.071Z" transform="translate(-1458.977 -920.649)"/><path class="a" d="M1161.015,979.691a1.777,1.777,0,0,0-3.512.55c.255,1.655.58,6.841-1.21,8.928a2.393,2.393,0,0,1-1.443.83l.163-9.877a2.569,2.569,0,1,0-5.137.021l.464,18.744a2.4,2.4,0,0,1-1.5-.837c-1.789-2.087-1.465-7.273-1.21-8.928a1.777,1.777,0,0,0-3.512-.549c-.128.816-1.155,8.077,2.019,11.786a6.018,6.018,0,0,0,4.295,2.112l.2,8.158h3.878l.281-17.046a6,6,0,0,0,4.2-2.1C1162.17,987.769,1161.143,980.507,1161.015,979.691Z" transform="translate(-1110.486 -951.534)"/><ellipse class="b" cx="200.631" cy="71.027" rx="200.631" ry="71.027" transform="translate(0 28.353)"/></g><g transform="translate(1274.206 797.817)"><rect class="c" width="98.804" height="98.804" rx="12.45" transform="translate(0 0)"/><path class="d" d="M1596.734,917.879V887.946l25.084,15.352Z" transform="translate(-1559.874 -853.511)"/></g><g transform="translate(1135.866 785.412)"><path class="e" d="M1501.169,814.678c1.741-1.2,4.485-1.249,7.052-5.677,1.334-2.3,2.69-9.383.627-13.586-3.29-6.7-11.136-11.285-14.729-9.683-2.974,1.325,1.4,16.73,3.524,17.344S1501.169,814.678,1501.169,814.678Z" transform="translate(-1365.252 -785.412)"/><path class="f" d="M1437.012,883.191s-2.528,3.75-5.578,7.891c-3.263,4.429-5.284,5.905-8.569,5.95s-7.193,0-7.193,0l-.444,7.77,17.36,1.465,9.546-15.1Z" transform="translate(-1322.946 -838.523)"/><path class="g" d="M1355.509,967.89l-5.093,10.1,9.474.458,2.734-7.152Z" transform="translate(-1287.742 -884.529)"/><path class="h" d="M1392.179,921.451c1.169-1.592-12.089-23.547-17.141-26.614s-8.775.408-11.277,2.977-15.544,23.079-15.149,24.395,11.352,10.948,12.479,11.042,9.21-14.9,9.633-14.9,5.216,16.634,6.3,17.057S1391.33,922.607,1392.179,921.451Z" transform="translate(-1286.756 -844.196)"/><path class="i" d="M1242.9,993.729c-1.438-.351-7.6-3.1-9.649-5.176s-8.052,2.3-8.307,4.665,2.428,8.116,3.8,8.53,3.983.881,3.983.881l.981-.5a25.932,25.932,0,0,1,4.942-.281c2.369.142,5.039.849,5.163.778S1242.9,993.729,1242.9,993.729Z" transform="translate(-1219.58 -895.457)"/><path class="j" d="M1341.97,953.045c-2.358,1.8-5.8,8.235-7.524,8.984a44.563,44.563,0,0,1-14.648,3.485c-7.873.609-31.885,7.081-37.352,7.728s-18.871.466-19.294,1.313.291,11.9,1.455,12.22,29.512-1.442,32.231-1.762,33.219,1.6,37.977.981,24.157.185,27.432-1.483,6.24-5.19,6.673-7.228-4.2-12.789-7.785-15.261S1341.97,953.045,1341.97,953.045Z" transform="translate(-1240.276 -876.465)"/><path class="i" d="M1375.638,906.682c-.492-1.133-1.176-3.1-2.651-3.956a18.394,18.394,0,0,1-3.379-2.395c-.3-.385-1.09-.235-1.625-.684s-1.369-1.069-1.818-.257,2.8,3.977,2.053,3.935a3.822,3.822,0,0,1-2.1-1.069c-.257-.342-1.2-.855-1.711-.128a1.7,1.7,0,0,0,0,2.036c.385.508,2.389,3.524,2,3.31s-3.266-2.566-3.8-2.31-1.069,1.133-.727,1.625-.027,3.417.346,3.856,2.019,1.339,2.435,1.843,4.037,1.8,6.561,1.645,3.248-.285,4.015-.614S1375.638,906.682,1375.638,906.682Z" transform="translate(-1293.915 -847.107)"/><path class="k" d="M1455.322,857.352c-2.6.887-7.516,7.75-8.46,10.835s-3.4,14.292-3.841,17.756-4.848,10.389-6.17,10.83-2.519.881-1.637,1.952,23.548,22.1,26.067,24.115,3.967,3.022,4.785,2.392,9.444-26.255,10.137-29.656,5.289-20.211,5.163-25-.315-7.492-3.463-9.822-6.8-7.87-7.619-8.689S1455.322,857.352,1455.322,857.352Z" transform="translate(-1333.637 -821.577)"/><path class="l" d="M1471.047,840.494a8.556,8.556,0,0,1,2.8,3.842,15.721,15.721,0,0,1,1.075,5.956c-.213,1.772-2.872,5.248-2.376,5.035s8.864-4.751,11.665-6.24,6.346-3.049,6.2-4.361-1.276-4.326-1.276-5.921-4.609-2.163-7.41-1.454S1471.047,840.494,1471.047,840.494Z" transform="translate(-1353.265 -813.46)"/><path class="i" d="M1472.083,804.591c-2.2,1.362-4.186,2.307-4.059,3.354s1.459,1.809.921,2.38-3.714,6.6-3.047,7.394,4.983,3.745,8.125,3.936,7.395-3.713,8.22-3.332,4.856.984,6.411-.7,2.092-3.244,1.714-4.284c-.262-.721-1.428-.921-2.729-.571a2.354,2.354,0,0,1-2.7-2.095,4.421,4.421,0,0,1,1.185-2.978c1.6-1.873-5.515-9.915-7.693-9.4a9.546,9.546,0,0,0-5.564,3.272C1471.877,802.7,1472.893,804.09,1472.083,804.591Z" transform="translate(-1350.418 -792.396)"/><path class="f" d="M1387.339,896.873c-.129,2.343-.04,5.657,1.5,5.934s15.627,3.2,19.623,4.115,15.628-.838,20.249-2.922,20.31-12.459,21.405-13.457c2.284-2.08,1.335-12.549-2.8-15.486s-11.741.445-15.037,3.827-11.217,15.486-15.4,16.109-14.977.5-17.555-.134-8.826-3.094-9.767-2.305A7.406,7.406,0,0,0,1387.339,896.873Z" transform="translate(-1307.775 -833.496)"/><path class="m" d="M1371.743,905.734c-.207-.326.5-.719.991-.751s1.177,1.385,1.073,1.564c-.139.238-.986.1-1.491-.212A1.138,1.138,0,0,1,1371.743,905.734Z" transform="translate(-1299.306 -850.359)"/><path class="n" d="M1365.325,909.4c-.465-.154-1.27.7-1.422,1.055s.326.987.6,1.253,1.7,1.857,2.131,1.857,1.095-.252,1.095-.844S1365.676,909.52,1365.325,909.4Z" transform="translate(-1295.052 -852.75)"/><path class="o" d="M1362.229,917.637a1.379,1.379,0,0,0-.738,1.438c.433,1.02,2.763,1.963,3.288,2.188s1.512.638,1.838.15-.45-1.65-1.125-2.013-1.252-.662-1.407-1.013A1.683,1.683,0,0,0,1362.229,917.637Z" transform="translate(-1293.737 -857.207)"/><path class="p" d="M1364.718,925.393c-.594.158-.5,1.179-.3,1.366a8.088,8.088,0,0,0,2.3,1.354,5.271,5.271,0,0,0,2.008.07c.265-.172.2-1.007-.2-1.355s-1.9-.513-2.359-.793S1365.29,925.242,1364.718,925.393Z" transform="translate(-1295.263 -861.431)"/><path class="j" d="M1225.273,972.313c-1.687,1.291-3.082,2.937-3.978,2.853s-1.562-.187-1.562.458,3.466,7.787,5.2,8.266,2.42,0,2.42,0-.6,1.434-4.452,1.225-5.17-1.285-5.678-2.48-1.673-7.62-2.72-9.682-2.151-11.385-.239-14.463,2.929-4.094,4.034-4.064,2.211.03,2.51,1.285,6.693,13.447,6.544,14.284S1225.273,972.313,1225.273,972.313Z" transform="translate(-1213.221 -877.215)"/></g></g></svg>