<svg xmlns="http://www.w3.org/2000/svg" width="19.029" height="15.455" viewBox="0 0 19.029 15.455"><defs><style>.a{fill:#fff;}</style></defs><path class="a" d="M17.073,7.232c.012.169.012.338.012.507a11.02,11.02,0,0,1-11.1,11.1A11.021,11.021,0,0,1,0,17.085a8.068,8.068,0,0,0,.942.048,7.811,7.811,0,0,0,4.842-1.666,3.907,3.907,0,0,1-3.646-2.7,4.918,4.918,0,0,0,.737.06A4.125,4.125,0,0,0,3.9,12.69,3.9,3.9,0,0,1,.773,8.863V8.814a3.928,3.928,0,0,0,1.763.5A3.906,3.906,0,0,1,1.328,4.093,11.086,11.086,0,0,0,9.37,8.174a4.4,4.4,0,0,1-.1-.893,3.9,3.9,0,0,1,6.75-2.668A7.678,7.678,0,0,0,18.5,3.671,3.89,3.89,0,0,1,16.783,5.82a7.818,7.818,0,0,0,2.246-.6,8.384,8.384,0,0,1-1.956,2.016Z" transform="translate(0 -3.381)"/></svg>