<svg xmlns="http://www.w3.org/2000/svg" xmlns:xlink="http://www.w3.org/1999/xlink" width="57" height="26.588" viewBox="0 0 57 26.588"><defs><style>.a{fill:url(#a);}</style><linearGradient id="a" x1="0.5" x2="0.5" y2="1" gradientUnits="objectBoundingBox"><stop offset="0" stop-color="#3c7a3c"/><stop offset="1" stop-color="#3c7a54"/></linearGradient></defs><g transform="translate(-2518.049 -1038.548)"><g transform="translate(2524.802 1038.548)"><g transform="translate(0 0)"><path class="a" d="M2626.591,1068.838a.732.732,0,0,1-.709-.916l.7-2.678a.732.732,0,0,1,1.416.368l-.7,2.678A.732.732,0,0,1,2626.591,1068.838Z" transform="translate(-2621.344 -1061.963)"/><path class="a" d="M2612.783,1122a.732.732,0,0,1-.709-.916l.7-2.678a.732.732,0,1,1,1.416.368l-.7,2.678A.731.731,0,0,1,2612.783,1122Z" transform="translate(-2608.979 -1108.606)"/><path class="a" d="M2625.523,1065.137h-42.047a.816.816,0,0,1-.643-.311.794.794,0,0,1-.144-.692l2.578-9.8a.814.814,0,0,1,.991-.575.8.8,0,0,1,.582.978l-2.314,8.795h40.369l6.152-23.38h-41a.8.8,0,1,1,0-1.6H2632.1a.817.817,0,0,1,.643.311.8.8,0,0,1,.144.692l-6.574,24.984A.811.811,0,0,1,2625.523,1065.137Z" transform="translate(-2582.663 -1038.549)"/></g><path class="a" d="M2677.169,1053.2a2.15,2.15,0,0,1-1.44-.518l-12.027-10.623a.732.732,0,0,1,.969-1.1l12.027,10.624a1.1,1.1,0,0,0,1.222-.078l21.227-12.853a.732.732,0,1,1,.758,1.252l-21.227,12.853A2.933,2.933,0,0,1,2677.169,1053.2Z" transform="translate(-2650.011 -1038.548)"/><path class="a" d="M2704.193,1150.92a.732.732,0,0,1-.33-1.385l5.98-3.017a.732.732,0,1,1,.659,1.306l-5.98,3.017A.729.729,0,0,1,2704.193,1150.92Z" transform="translate(-2689.166 -1133.833)"/><path class="a" d="M2827.149,1151.285a.729.729,0,0,1-.459-.162l-3.693-2.974a.732.732,0,0,1,.918-1.139l3.693,2.974a.732.732,0,0,1-.459,1.3Z" transform="translate(-2794.506 -1134.196)"/></g><path class="a" d="M2563.479,1040.012h-8.936a.732.732,0,1,1,0-1.463h8.936a.732.732,0,0,1,0,1.463Z" transform="translate(-32.025 -0.001)"/><path class="a" d="M2519.687,1040.012h-.906a.732.732,0,1,1,0-1.463h.906a.732.732,0,1,1,0,1.463Z" transform="translate(0 -0.001)"/><path class="a" d="M2575.344,1092.478h-9.059a.732.732,0,1,1,0-1.463h9.059a.732.732,0,1,1,0,1.463Z" transform="translate(-42.54 -46.423)"/><path class="a" d="M2583.1,1144.943h-6.563a.732.732,0,0,1,0-1.463h6.563a.732.732,0,0,1,0,1.463Z" transform="translate(-51.724 -92.843)"/></g></svg>