<svg xmlns="http://www.w3.org/2000/svg" width="53.079" height="53.079" viewBox="0 0 53.079 53.079"><defs><style>.a{fill:#2d2c2e;}.b{fill:#3c3b3d;}.c{fill:#ffdf00;}.d{fill:#3c7a3c;}.e{fill:#ffd8a8;}.f{fill:#d8f2f1;}.g{fill:#65b2fe;}.h{opacity:0.56;}.i{fill:#ea7e23;}</style></defs><g transform="translate(0 0)"><g transform="translate(0 0)"><path class="a" d="M303.292,350.515l8.975-8.975,6.526,6.528-8.975,8.975a4.615,4.615,0,1,1-6.527-6.527Zm3.171,4.763a1.5,1.5,0,1,0-1.5-1.5A1.5,1.5,0,0,0,306.463,355.278Z" transform="translate(-297.094 -305.592)"/><path class="b" d="M264.482,308.19l1.224,1.223,4.056-4.056.052-.111a18.536,18.536,0,0,1-8.916-8.916l-.111.052-4.056,4.056,1.224,1.224Z" transform="translate(-242.897 -265.598)"/><path class="c" d="M30.559,83.821A18.775,18.775,0,0,1,31.088,82a18.467,18.467,0,0,1,28.23-8.924h0A18.46,18.46,0,0,1,51.5,106.285h0A18.478,18.478,0,0,1,30.559,83.821Z" transform="translate(-13.914 -65.031)"/><path class="d" d="M252.28,43.25v2.809l4.191.936a10.649,10.649,0,0,0,1.408,3.4l-2.3,3.632,1.985,1.985,3.632-2.3a10.6,10.6,0,0,0,3.4,1.408l.936,4.191h3.307a18.555,18.555,0,0,1-.6-10.518l-.087-.021a4.292,4.292,0,1,1,2.631-6.019l.063.042a18.531,18.531,0,0,1,8.178-6.772L279.01,36l-2.7-2.7L272.672,35.6a10.709,10.709,0,0,0-3.4-1.414L268.338,30h-2.809l-.936,4.191a10.714,10.714,0,0,0-3.4,1.414L257.563,33.3l-1.985,1.984,2.3,3.634a10.643,10.643,0,0,0-1.408,3.4Z" transform="translate(-251.586 -30)"/><path class="d" d="M45.98,433.833v2.525H64.135v-2.525a11.541,11.541,0,0,0-.979-1.118,11.455,11.455,0,0,0-16.2,0A11.541,11.541,0,0,0,45.98,433.833Z" transform="translate(-12.9 -383.279)"/><path class="e" d="M92.644,351.2a4.587,4.587,0,1,0,.145.14C92.742,351.294,92.694,351.247,92.644,351.2Z" transform="translate(-47.394 -313.075)"/><ellipse class="f" cx="11.539" cy="11.539" rx="11.539" ry="11.539" transform="translate(23.078 11.493)"/><g transform="translate(28.847 18.462)"><path class="g" d="M222.308,270H220v2.308h2.308Z" transform="translate(-220 -260.769)"/><path class="g" d="M192.308,270H190v2.308h2.308Z" transform="translate(-186.538 -260.769)"/><path class="g" d="M192.308,190H190v2.308h2.308Z" transform="translate(-186.538 -190)"/><path class="g" d="M162.308,270H160v2.308h2.308Z" transform="translate(-153.077 -260.769)"/><path class="g" d="M162.308,190H160v2.308h2.308Z" transform="translate(-153.077 -190)"/><path class="g" d="M132.308,190H130v2.308h2.308Z" transform="translate(-119.615 -190)"/></g><g class="h"><path class="d" d="M42.885,30a2.885,2.885,0,1,0,2.885,2.885A2.884,2.884,0,0,0,42.885,30Z" transform="translate(6.156 -30)"/><path class="d" d="M432.308,300a2.308,2.308,0,1,0,2.308,2.308A2.307,2.307,0,0,0,432.308,300Z" transform="translate(-427.692 -268.845)"/><path class="d" d="M471.154,100a1.154,1.154,0,1,0,1.154,1.154A1.154,1.154,0,0,0,471.154,100Z" transform="translate(-470 -91.923)"/><path class="d" d="M451.154,370a1.154,1.154,0,1,0,1.154,1.154A1.154,1.154,0,0,0,451.154,370Z" transform="translate(-447.692 -330.768)"/><path class="d" d="M401.154,30a1.154,1.154,0,1,0,1.154,1.154A1.154,1.154,0,0,0,401.154,30Z" transform="translate(-391.923 -30)"/><path class="d" d="M281.154,460a1.154,1.154,0,1,0,1.154,1.154A1.154,1.154,0,0,0,281.154,460Z" transform="translate(-258.076 -410.383)"/><path class="d" d="M231.154,410a1.154,1.154,0,1,0,1.154,1.154A1.154,1.154,0,0,0,231.154,410Z" transform="translate(-202.307 -366.152)"/><path class="d" d="M111.154,30a1.154,1.154,0,1,0,1.154,1.154A1.154,1.154,0,0,0,111.154,30Z" transform="translate(-68.46 -30)"/><path class="d" d="M31.154,360a1.154,1.154,0,1,0,1.154,1.154A1.154,1.154,0,0,0,31.154,360Z" transform="translate(20.771 -321.921)"/></g><path class="i" d="M135,206.923a1.154,1.154,0,0,0,.517-2.186l-4.616-2.308a1.154,1.154,0,0,0-1.548.516l-.608,1.217-7.018-4.01a1.154,1.154,0,0,0-1.145,2l8.077,4.616a1.154,1.154,0,0,0,1.6-.486l.638-1.276,3.584,1.792A1.15,1.15,0,0,0,135,206.923Z" transform="translate(-93.459 -180.383)"/></g></g></svg>