<svg xmlns="http://www.w3.org/2000/svg" width="583" height="364.448" viewBox="0 0 583 364.448"><defs><style>.a{fill:#cce6cc;opacity:0.447;}.b{fill:#cc6164;}.c{fill:#fdf7e7;}.d{fill:#495375;}.e{fill:#fff;}.f,.g,.j{fill:#3c7a3c;}.f{opacity:0.827;}.h{fill:#56ac56;}.i,.w{fill:#e8f4e8;}.i{opacity:0.63;}.j{opacity:0.545;}.k{fill:#e4e4e0;}.l{fill:#468094;}.m{fill:#f0bf9c;}.n,.v{fill:#422c4f;}.o{fill:#eba588;}.p{fill:#e78882;}.q{fill:#4e4d4b;}.r{fill:#a59b95;}.s{fill:#faeccb;}.t{fill:#df8d6d;}.u{fill:#bd6c67;}.v{opacity:0.3;}.x{fill:#e5d995;}.y{fill:#4b5f88;}.z{fill:#81d3cf;}.aa{fill:#f0bf6c;}.ab{fill:#eba25d;}</style></defs><g transform="translate(-56.5 -50.898)"><path class="a" d="M118.019,410.884h480.2a14.735,14.735,0,0,0,14.736-14.736h0a14.736,14.736,0,0,0-14.736-14.736H503.436a20.469,20.469,0,0,1-20.469-20.469h0a20.47,20.47,0,0,1,20.469-20.47h44.636a18.19,18.19,0,0,0,18.19-18.19h0a18.19,18.19,0,0,0-18.19-18.19H500.618a21.507,21.507,0,0,1-21.508-21.508h0a21.508,21.508,0,0,1,21.508-21.508h70.049a23.071,23.071,0,0,0,23.071-23.071h0a23.071,23.071,0,0,0-23.071-23.071h-30.7a18.07,18.07,0,0,1-18.069-18.07h0a18.069,18.069,0,0,1,18.069-18.069h73.109a20.02,20.02,0,0,0,20.02-20.021h0a20.02,20.02,0,0,0-20.02-20.021H478.626a15.766,15.766,0,0,1-15.766-15.765h0a15.766,15.766,0,0,1,15.766-15.766h72.028a16.1,16.1,0,0,0,16.1-16.1h0a16.1,16.1,0,0,0-16.1-16.1H413.869a38.871,38.871,0,0,1-27.485-11.385h0A38.871,38.871,0,0,0,358.9,52.25h-84.19a54.615,54.615,0,0,0-38.617,16h0a54.608,54.608,0,0,1-38.616,16H124.942a23.6,23.6,0,0,0-23.6,23.6h0a23.6,23.6,0,0,0,23.6,23.6h53.137a19.06,19.06,0,0,1,19.06,19.06h0a19.059,19.059,0,0,1-19.06,19.06H89.663A25.447,25.447,0,0,0,64.216,195h0a25.447,25.447,0,0,0,25.447,25.447h62.943a20.362,20.362,0,0,1,20.363,20.362h0a20.363,20.363,0,0,1-20.363,20.363H129.441a21.459,21.459,0,0,0-21.46,21.459h0a21.459,21.459,0,0,0,21.46,21.459h34.845a14.358,14.358,0,0,1,14.358,14.358h0a14.358,14.358,0,0,1-14.358,14.357h-3.641A18.447,18.447,0,0,0,142.2,351.253h0A18.447,18.447,0,0,0,160.645,369.7h9.312a10.554,10.554,0,0,1,10.554,10.554h0a10.555,10.555,0,0,1-10.554,10.555H118.019a10.038,10.038,0,0,0-10.038,10.037h0A10.038,10.038,0,0,0,118.019,410.884Z" transform="translate(-0.654 -0.115)"/><g transform="translate(498.763 50.898)"><path class="b" d="M539.727,172.561v-9.544h86.794v19.612H549.794A10.067,10.067,0,0,1,539.727,172.561Z" transform="translate(-539.727 -60.402)"/><path class="c" d="M539.727,168.831v-9.545h83.286V178.9H549.794A10.067,10.067,0,0,1,539.727,168.831Z" transform="translate(-539.727 -60.086)"/><path class="d" d="M539.727,60.966V163.318a9.805,9.805,0,0,1,9.806-9.806h.262V50.9A10.067,10.067,0,0,0,539.727,60.966Z" transform="translate(-539.727 -50.898)"/><rect class="b" width="76.727" height="102.614" transform="translate(10.067)"/><g transform="translate(7.169 105.782)"><path class="b" d="M614.067,167.611a511.463,511.463,0,0,0-66.507-.1A511.635,511.635,0,0,0,614.067,167.611Z" transform="translate(-547.56 -166.478)"/><g transform="translate(14.644 4.767)"><path class="b" d="M594.22,172.185a236.046,236.046,0,0,0-30.66,0A235.716,235.716,0,0,0,594.22,172.185Z" transform="translate(-563.56 -171.687)"/></g><g transform="translate(2.898 8.46)"><path class="b" d="M579.4,176.188a220.474,220.474,0,0,0-28.678,0A220.479,220.479,0,0,0,579.4,176.188Z" transform="translate(-550.726 -175.721)"/></g><g transform="translate(36.609 8.307)"><path class="b" d="M616.237,176.021a220.784,220.784,0,0,0-28.677,0A220.46,220.46,0,0,0,616.237,176.021Z" transform="translate(-587.56 -175.555)"/></g></g><g transform="translate(28.41 17.389)"><rect class="e" width="40.041" height="4.119"/><rect class="e" width="40.041" height="4.119" transform="translate(0 8.237)"/><rect class="e" width="21.329" height="4.119" transform="translate(0 16.474)"/></g></g><g transform="translate(200.191 75.4)"><g transform="translate(0 52.138)"><g transform="translate(77.947 222.918)"><g transform="translate(39.355)"><path class="f" d="M402.682,424.748H341.667l7.815-57.812h45.385Z" transform="translate(-341.667 -366.936)"/><path class="g" d="M395.32,366.936H349.935l-2.922,21.612h51.228Z" transform="translate(-342.12 -366.936)"/></g><rect class="g" width="139.725" height="12.813" transform="translate(0 47.501)"/></g><path class="h" d="M509.119,146.534a11.9,11.9,0,0,0-11.9-11.9H225.4a11.9,11.9,0,0,0-11.9,11.9V320.229H509.119Z" transform="translate(-213.5 -134.636)"/><rect class="e" width="277.314" height="167.288" rx="3" transform="translate(9.152 9.153)"/><path class="i" d="M263.364,313.426a123.1,123.1,0,0,1-20.053-52.461c-.971-7.445-.828-16.07,4.757-21.089,4.533-4.073,11.363-4.5,16.293-8.079,4.226-3.072,6.588-8.19,7.424-13.347,1.427-8.794.139-17.4,2.814-26.174,4.044-13.259,13.633-27.8,28.462-29.713,10.637-1.373,20.976,3.984,29.684,10.246s16.823,13.706,26.834,17.557c11.748,4.519,24.836,3.591,37.295,1.8s25.018-4.384,37.526-2.978,25.32,7.7,30.677,19.093c7.242,15.4-1.156,34.079,3.481,50.453,2.673,9.441,9.419,17.158,13.439,26.111s4.281,22.852-3.687,28.58Z" transform="translate(-215.988 -136.985)"/><g transform="translate(0 185.593)"><path class="j" d="M213.5,337.419v25.428a11.9,11.9,0,0,0,11.9,11.9H497.221a11.9,11.9,0,0,0,11.9-11.9V337.419Z" transform="translate(-213.5 -337.419)"/><circle class="e" cx="7.665" cy="7.665" r="7.665" transform="translate(140.144 11.898)"/><path class="g" d="M509.119,337.419H213.5v25.428a11.9,11.9,0,0,0,11.9,11.9h8.695V353.436a9.152,9.152,0,0,1,9.152-9.152H509.119Z" transform="translate(-213.5 -337.419)"/></g></g><g transform="translate(26.694)"><g transform="translate(25.931 142.547)"><path class="e" d="M454.151,278.463a41.054,41.054,0,0,0-27.308-31.782l-39.3-13.262-21.355,4.271-21.355-4.271-39.3,13.262a41.055,41.055,0,0,0-27.308,31.782L271,319.45H461.367Z" transform="translate(-271 -233.419)"/><path class="k" d="M309.114,322.964l-6.864-50.8,15.788,50.8Z" transform="translate(-273.649 -236.704)"/><path class="k" d="M439.423,322.964l6.864-50.8-15.788,50.8Z" transform="translate(-284.521 -236.704)"/><g transform="translate(51.293 36.15)"><path class="k" d="M409.628,288.512a179.786,179.786,0,0,1-20.121.692,137.244,137.244,0,0,1-43.979-8.3,179.624,179.624,0,0,1-18.483-7.982,69.69,69.69,0,0,0,16.749,11.94,82.136,82.136,0,0,0,45.885,8.665A69.68,69.68,0,0,0,409.628,288.512Z" transform="translate(-327.044 -272.917)"/><g transform="translate(42.34 4.005)"><path class="k" d="M413.233,277.293c-5.592.836-12.715,2.05-19.9,2.836-7.177.818-14.393,1.205-20.032,1.625a62.827,62.827,0,0,0,39.927-4.461Z" transform="translate(-373.306 -277.293)"/></g><g transform="translate(18.87 26.792)"><path class="k" d="M422.414,302.191c-5.215,1.076-11.127,2.38-17.429,3.606s-12.987,2.387-19.707,3.327-13.468,1.647-19.866,2.183-12.441.9-17.751,1.292a91.6,91.6,0,0,0,17.821,2.5,112.5,112.5,0,0,0,40.471-5.635A91.532,91.532,0,0,0,422.414,302.191Z" transform="translate(-347.662 -302.191)"/></g></g><path class="k" d="M373.022,237.69l-21.355-4.271,8.39,28.029,5.819-6.979,2.45,1.83h9.393l2.45-1.83,5.819,6.979,8.39-28.029Z" transform="translate(-277.838 -233.419)"/><g transform="translate(82.218 4.271)"><path class="b" d="M374.338,238.086l-7.146,11.625,3.573,10.188h7.146l3.573-10.188Z" transform="translate(-361.372 -238.086)"/><path class="b" d="M377.372,261.919h-7.146l-9.393,59.947h25.932Z" transform="translate(-360.833 -240.106)"/><path class="b" d="M374.338,238.086l1.268,2.062-4.914,8.541a3.091,3.091,0,0,0-.243,2.549l.261.758a5.273,5.273,0,0,0,4.986,3.556h3.74l-1.525,4.347h-7.146l-3.573-10.188Z" transform="translate(-361.372 -238.086)"/></g></g><g transform="translate(66.84)"><g transform="translate(32.92 96.785)"><g transform="translate(0 33.481)"><path class="e" d="M356.624,220l16.4,16.552-11.44,18.61-9.915-22.881Z" transform="translate(-351.667 -220.001)"/><path class="e" d="M391.4,220,375,236.553l11.44,18.61,9.915-22.881Z" transform="translate(-353.645 -220.001)"/></g><path class="l" d="M373.481,217.419l-16.4,2.363,16.4,16.552,16.4-16.552Z" transform="translate(-352.126 -186.301)"/><g transform="translate(8.389)"><path class="m" d="M360.833,209.487v13.087L373.8,235.662l12.966-13.088V209.487c-3.717,3.755-8.173,5.947-12.966,5.947S364.55,213.242,360.833,209.487Z" transform="translate(-360.833 -185.629)"/><path class="n" d="M360.833,183.419v23.858c3.717,3.755,8.172,5.947,12.966,5.947s9.249-2.192,12.966-5.947V183.419Z" transform="translate(-360.833 -183.419)"/></g></g><g transform="translate(0.505 72.761)"><circle class="o" cx="13.156" cy="13.156" r="13.156"/><circle class="p" cx="8.123" cy="8.123" r="8.123" transform="translate(5.034 5.034)"/></g><g transform="translate(81.732 72.761)"><circle class="o" cx="13.156" cy="13.156" r="13.156"/><circle class="p" cx="8.123" cy="8.123" r="8.123" transform="translate(5.034 5.034)"/></g><path class="m" d="M371.584,100.419A36.881,36.881,0,0,0,334.7,137.3V161.01a36.881,36.881,0,1,0,73.762,0V137.3A36.881,36.881,0,0,0,371.584,100.419Z" transform="translate(-317.309 -79.598)"/><g transform="translate(31.566 83.629)"><path class="q" d="M391.557,176.019l-.426-.427a13.821,13.821,0,0,0-9.773-4.048H364.435a13.821,13.821,0,0,0-9.773,4.048l-.427.427a13.821,13.821,0,0,0-4.048,9.773v5.091a13.177,13.177,0,0,0,8.3,12.243l1.853.738a33.943,33.943,0,0,0,25.1,0l1.853-.738a13.176,13.176,0,0,0,8.3-12.243v-5.091A13.821,13.821,0,0,0,391.557,176.019Zm-1.347,13.35a6.963,6.963,0,0,1-4.854,6.635l-6.883,2.186a5.183,5.183,0,0,1-5.126-1.169.657.657,0,0,0-.9,0,5.183,5.183,0,0,1-5.126,1.169l-6.883-2.186a6.963,6.963,0,0,1-4.854-6.635V184.6a5.26,5.26,0,0,1,4.508-5.2l6.431-.928a10.276,10.276,0,0,0,6.374-3.531,10.276,10.276,0,0,0,6.374,3.531l6.431.928a5.26,5.26,0,0,1,4.508,5.2Z" transform="translate(-350.187 -169.256)"/><path class="o" d="M365.918,169.044a9.836,9.836,0,0,0,16.623,0Z" transform="translate(-351.521 -169.044)"/><path class="e" d="M387.381,181.6a78.772,78.772,0,0,1-27.29.753,13.472,13.472,0,0,0,20.241,11.117A15.017,15.017,0,0,0,387.381,181.6Z" transform="translate(-351.027 -170.108)"/></g><path class="q" d="M417.082,116.094a7.334,7.334,0,0,0,.128-7.118,7.709,7.709,0,0,0-6.085-4.048,11.941,11.941,0,0,0,.885-11.908,14.915,14.915,0,0,0-9.43-7.672,20.035,20.035,0,0,0-12.33.558,25.51,25.51,0,0,0-18.772-8.237h-3.011A25.51,25.51,0,0,0,349.7,85.906a20.035,20.035,0,0,0-12.33-.558,14.915,14.915,0,0,0-9.43,7.672,11.941,11.941,0,0,0,.885,11.908,7.707,7.707,0,0,0-6.085,4.048,7.334,7.334,0,0,0,.128,7.118c-4.818,1.932-7.913,7.966-7.009,13.077s5.055,9.343,9.988,10.953l2.391,10.222a18.226,18.226,0,0,0,4.859,8.735V143.665a8.237,8.237,0,0,1,2.413-5.825l2.918-2.918a9.3,9.3,0,0,0,2.721-6.57V119.8a10.464,10.464,0,0,1,4.266-8.43l4.966-3.649a5.5,5.5,0,0,1,6.726.168l1.565,1.276a10.855,10.855,0,0,0,6.86,2.443h8.894a10.855,10.855,0,0,0,6.86-2.443l1.565-1.276a5.5,5.5,0,0,1,6.726-.168l4.966,3.649a10.464,10.464,0,0,1,4.266,8.43v8.551a9.3,9.3,0,0,0,2.721,6.57l2.918,2.918a8.237,8.237,0,0,1,2.413,5.825v15.416a18.217,18.217,0,0,0,4.858-8.735l2.391-10.222c4.934-1.611,9.085-5.843,9.989-10.953S421.9,118.026,417.082,116.094Z" transform="translate(-315.698 -77.669)"/><g transform="translate(26.529 55.921)"><path class="r" d="M355.55,138.883a14.643,14.643,0,0,0-10.866,7.2l23.17-2.892A14.642,14.642,0,0,0,355.55,138.883Z" transform="translate(-344.684 -138.769)"/><circle class="n" cx="3.089" cy="3.089" r="3.089" transform="translate(8.412 9.518)"/></g><g transform="translate(58.851 55.921)"><path class="r" d="M392.3,138.883a14.643,14.643,0,0,1,10.866,7.2L380,143.2A14.642,14.642,0,0,1,392.3,138.883Z" transform="translate(-380 -138.769)"/><circle class="n" cx="3.089" cy="3.089" r="3.089" transform="translate(8.58 9.518)"/></g><g transform="translate(31.304 71.625)"><path class="o" d="M364.56,157.064a24.227,24.227,0,0,0-14.659,0A24.227,24.227,0,0,0,364.56,157.064Z" transform="translate(-349.901 -155.929)"/></g><g transform="translate(62.586 71.625)"><path class="o" d="M384.081,157.064a24.227,24.227,0,0,1,14.659,0A24.227,24.227,0,0,1,384.081,157.064Z" transform="translate(-384.081 -155.929)"/></g></g><g transform="translate(0 123.904)"><path class="c" d="M276.25,244.673l1.945-3.432,39.369-10.018,3.608,4.4Z" transform="translate(-245.514 -214.59)"/><path class="c" d="M273.841,243.133,247.833,214l8.115-.948L275.786,239.7Z" transform="translate(-243.105 -213.05)"/><path class="s" d="M247.833,214.086v7.064l26.008,22.071Z" transform="translate(-243.105 -213.137)"/><path class="s" d="M321.172,236.028l-.379,3.278-44.544,5.775Z" transform="translate(-245.514 -214.998)"/><g transform="translate(0 3.999)"><path class="t" d="M273.4,243.5l-30.736-26.084v67.751L268.6,308.332l4.8-64.829Z" transform="translate(-242.667 -217.419)"/><path class="u" d="M275.8,245.35,271,310.179h0l44.389-1.22,7.779-69.749Z" transform="translate(-245.069 -219.266)"/></g><path class="v" d="M262.713,305.265l-3.052-41.7h0a5.291,5.291,0,0,1,5.209,4.36l1.106,6.18,4.058-15.688h0a6.727,6.727,0,0,1,5.683,6.825l-.323,12.131,5.794-10.678h0a5.607,5.607,0,0,1,3.813,6.05l-1.6,12.34,5.956-8.789h0a5.364,5.364,0,0,1,3.116,5.781l-2.867,17.3,1.4,11.856-20.961.577Z" transform="translate(-244.107 -216.896)"/><g transform="translate(12.843 41.523)"><path class="m" d="M265.369,314.918,258.347,291.6l-1.642-25.141a2.711,2.711,0,0,1,2.7-2.888h0a2.711,2.711,0,0,1,2.686,2.348l2.658,19.731,2.058-24.5a2.98,2.98,0,0,1,2.97-2.731h0a2.98,2.98,0,0,1,2.98,2.98v25.392l4.528-17.912a3.009,3.009,0,0,1,3.646-2.182h0a3.009,3.009,0,0,1,2.256,3.286L280.542,291.6l5.564-13.909a2.407,2.407,0,0,1,3-1.389h0a2.407,2.407,0,0,1,1.611,2.7l-3.536,20.382.411,8.083a21.172,21.172,0,0,1-2.089,10.3h0l-3.587.709a21.389,21.389,0,0,1-16.544-3.548Z" transform="translate(-256.7 -258.419)"/><path class="k" d="M266.172,320.151h0a21.389,21.389,0,0,0,16.544,3.548l3.587-.709.61,3.813h-20.74Z" transform="translate(-257.503 -263.652)"/></g></g></g></g><g transform="translate(56.5 410.769)"><path class="n" d="M637.212,448.678H58.788a2.288,2.288,0,1,1,0-4.576H637.212a2.288,2.288,0,1,1,0,4.576Z" transform="translate(-56.5 -444.102)"/></g><g transform="translate(71.511 354.635)"><g transform="translate(0 17.694)"><path class="b" d="M215.2,406.679V402.1H92.121a19.22,19.22,0,0,0-19.22,19.22h0a19.22,19.22,0,0,0,19.22,19.22H215.2V406.679Z" transform="translate(-72.901 -402.102)"/><g transform="translate(80.082 4.577)"><path class="b" d="M160.4,422.176a14.577,14.577,0,0,0,3.98,10V412.172A14.573,14.573,0,0,0,160.4,422.176Z" transform="translate(-160.401 -407.533)"/><path class="c" d="M175.413,407.1a14.588,14.588,0,0,0-10.663,4.639v20.009a14.592,14.592,0,0,0,10.663,4.639h119.3V407.1Z" transform="translate(-160.77 -407.103)"/></g><path class="w" d="M174.621,402.1a19.22,19.22,0,0,0-19.22,19.22h0a19.22,19.22,0,0,0,19.22,19.22H297.7v-4.575H174.621a14.644,14.644,0,0,1,0-29.287H297.7V402.1Z" transform="translate(-79.895 -402.102)"/><g transform="translate(88.639 8.968)"><g transform="translate(2.288)"><path class="x" d="M272.7,413.535c-27.738-2.179-72.709-2.179-100.446,0C199.987,415.713,244.958,415.713,272.7,413.535Z" transform="translate(-172.25 -411.9)"/></g><g transform="translate(0 7.437)"><path class="x" d="M234.96,421.088a501.425,501.425,0,0,0-65.21,0A501.749,501.749,0,0,0,234.96,421.088Z" transform="translate(-169.75 -420.027)"/></g><g transform="translate(18.305 17.901)"><path class="x" d="M272.807,432.811c-22.936-1.8-60.121-1.8-83.057,0C212.686,434.612,249.871,434.612,272.807,432.811Z" transform="translate(-189.75 -431.459)"/></g><g transform="translate(86.031 13.907)"><path class="x" d="M296.927,427.636a254.946,254.946,0,0,0-33.177,0A255.291,255.291,0,0,0,296.927,427.636Z" transform="translate(-263.75 -427.096)"/></g></g><path class="b" d="M175.375,421.186l.334.333a7.326,7.326,0,0,1,2.144,5.179v12.41l3.947-3.946,3.871,3.87V426.507a7.323,7.323,0,0,0-2.145-5.178h0Z" transform="translate(-81.588 -403.72)"/></g><g transform="translate(16.254)"><rect class="y" width="121.725" height="17.694" transform="translate(0 0)"/><rect class="d" width="121.725" height="10.848" transform="translate(0 3.423)"/><path class="y" d="M223.661,382.769v17.694h53.933v-2.745H226.406v-12.2h51.187v-2.745Z" transform="translate(-101.936 -382.769)"/><rect class="c" width="48.583" height="12.204" transform="translate(124.471 2.745)"/><g transform="translate(127.407 4.828)"><path class="e" d="M273,388.746a331.809,331.809,0,0,0-43.13,0A331.809,331.809,0,0,0,273,388.746Z" transform="translate(-229.869 -388.044)"/><g transform="translate(16.474 3.473)"><path class="e" d="M274.411,392.271a204.163,204.163,0,0,0-26.542,0A204.174,204.174,0,0,0,274.411,392.271Z" transform="translate(-247.869 -391.839)"/></g><g transform="translate(1.716 6.127)"><path class="e" d="M263.891,395.263a247.243,247.243,0,0,0-32.147,0A247.243,247.243,0,0,0,263.891,395.263Z" transform="translate(-231.744 -394.74)"/></g></g></g></g><g transform="translate(395.861 384.62)"><path class="e" d="M513.3,434.492c-13.465-29.623-62.314-17.209-78.993-11.16a37.05,37.05,0,0,0-5.951,2.573l4.652,9.428,30.782-7.24,18.959-1.449,17.872,4.831,6.763,3.859,5.917,5.077Z" transform="translate(-427.384 -415.531)"/><path class="e" d="M521.166,434.492c13.465-29.623,62.314-17.209,78.994-11.16a37.129,37.129,0,0,1,5.951,2.573l-4.653,9.428-30.781-7.24-18.959-1.449-17.872,4.831-6.763,3.859-5.917,5.077Z" transform="translate(-435.252 -415.531)"/><path class="d" d="M561.691,427.125c-15.819-1.938-36.749-1.412-47.435,11.845h-2.094c-10.685-13.257-31.615-13.783-47.435-11.845-17.215,2.108-33.757,7.79-37.432,10.116l1.939,3.061c5.988-3.795,62.739-22.178,80.595,1.568l.544.722h5.673l.544-.722c17.857-23.748,74.606-5.362,80.595-1.568l1.939-3.061C595.448,434.914,578.905,429.233,561.691,427.125Z" transform="translate(-427.294 -416.443)"/></g><g transform="translate(108.439 67.077)"><g transform="translate(34.219)"><path class="e" d="M286.241,161.168l-12.766-21.644a18.245,18.245,0,0,0,1.4-7.034V86.881a18.3,18.3,0,0,0-18.3-18.3H168.943a18.3,18.3,0,0,0-18.3,18.3V132.49a18.3,18.3,0,0,0,18.3,18.3h87.633a18.206,18.206,0,0,0,8.508-2.105Z" transform="translate(-150.638 -68.576)"/></g><g transform="translate(309.3 51.338)"><path class="e" d="M451.2,217.26l12.766-21.644a18.242,18.242,0,0,1-1.4-7.034V142.974a18.3,18.3,0,0,1,18.3-18.3h67.69a18.3,18.3,0,0,1,18.3,18.3v45.609a18.3,18.3,0,0,1-18.3,18.3h-67.69a18.216,18.216,0,0,1-8.508-2.1Z" transform="translate(-451.199 -124.669)"/></g><g transform="translate(53.998 17.049)"><rect class="z" width="82.599" height="7.501"/><rect class="z" width="58.762" height="7.501" transform="translate(0 13.942)"/><rect class="z" width="82.599" height="7.501" transform="translate(0 27.884)"/><rect class="z" width="28.119" height="7.501" transform="translate(0 41.827)"/></g><rect class="z" width="68.184" height="7.501" transform="translate(338.177 75.86)"/><rect class="z" width="42.363" height="7.501" transform="translate(338.177 89.802)"/><rect class="z" width="52.147" height="7.501" transform="translate(338.177 103.744)"/><g transform="translate(0 120.01)"><rect class="e" width="107.997" height="63.522" rx="10"/><circle class="g" cx="16.665" cy="16.665" r="16.665" transform="translate(32.225 22.742) rotate(-22.5)"/><path class="e" d="M182.646,233.475l-17.4-10.044v20.087Z" transform="translate(-117.658 -201.714)"/></g><g transform="translate(361.223 168.367)"><rect class="e" width="66.453" height="46.573"/><g transform="translate(6.049 8.559)"><rect class="b" width="7.714" height="17.209" transform="translate(0 15.781)"/><rect class="aa" width="7.714" height="25.848" transform="translate(11.66 7.143)"/><rect class="z" width="7.714" height="32.991" transform="translate(23.321)"/><rect class="ab" width="7.714" height="22.017" transform="translate(34.981 10.974)"/><rect class="b" width="7.714" height="12.924" transform="translate(46.641 20.067)"/></g></g></g></g></svg>