<svg xmlns="http://www.w3.org/2000/svg" width="13.962" height="15.957" viewBox="0 0 13.962 15.957"><defs><style>.a{fill:#636363;}</style></defs><path class="a" d="M13.412,7.024,12.4,6.013l-5.061,5.06a2.147,2.147,0,0,0,3.037,3.036l6.074-6.073a3.578,3.578,0,1,0-5.061-5.06L5.011,9.353,5,9.366a4.991,4.991,0,0,0,7.059,7.058l.013-.014h0l4.353-4.352-1.013-1.012L11.056,15.4l-.013.013a3.559,3.559,0,0,1-5.034-5.033l.014-.013h0L12.4,3.988a2.147,2.147,0,0,1,3.037,3.036L9.363,13.1A.716.716,0,0,1,8.35,12.085l5.061-5.061Z" transform="translate(-3.535 -1.928)"/></svg>