<svg xmlns="http://www.w3.org/2000/svg" width="97.179" height="35.427" viewBox="0 0 97.179 35.427"><defs><style>.a{fill:#e5d995;}.b{fill:none;stroke:#3c7a3c;stroke-miterlimit:10;stroke-width:1.37px;}.c{fill:#3c7a3c;}.d{fill:#333;font-size:12px;font-family:SegoeUI, Segoe UI;}</style></defs><g transform="translate(-150 -7)"><g transform="translate(150 7)"><g transform="translate(0 0)"><g transform="translate(16.159 14.584)"><path class="a" d="M804.335,522.831l-4.688-2.707a.264.264,0,0,0-.4.228v5.413a.264.264,0,0,0,.4.228l4.688-2.707a.263.263,0,0,0,0-.456" transform="translate(-799.252 -520.088)"/><path class="b" d="M804.335,522.831l-4.688-2.707a.264.264,0,0,0-.4.228v5.413a.264.264,0,0,0,.4.228l4.688-2.707A.263.263,0,0,0,804.335,522.831Z" transform="translate(-799.252 -520.088)"/></g><path class="c" d="M724.129,448.165l5.292-5.292-4.781-4.781v-8.13h-8.129l-4.974-4.974-4.977,4.974h-7.9v7.8l-4.781,4.781,4.781,4.784v8.143H706.8l4.941,4.942,5.082-4.96h5.836l-1.739-1.736,1.739-1.739h-7.251l-3.636,3.553-3.548-3.553h-6.093v-6.09l-3.346-3.343,3.346-3.343v-5.766H708l3.532-3.535,3.535,3.535h6.093v6.093l3.343,3.343-2.838,2.833Z" transform="translate(-693.875 -424.988)"/><g transform="translate(30.523 26.994)"><rect class="c" width="2.458" height="2.458" transform="translate(0 1.738) rotate(-45)"/><rect class="c" width="2.458" height="2.458" transform="translate(3.477 1.738) rotate(-45)"/></g></g><g transform="translate(48.179 4.832)"><text class="d" transform="translate(0.18 9)"><tspan x="0" y="0">Quran</tspan></text><text class="d" transform="translate(0 22.408)"><tspan x="0" y="0">Academy</tspan></text></g></g></g></svg>