<svg xmlns="http://www.w3.org/2000/svg" width="98.708" height="93.312" viewBox="0 0 98.708 93.312"><defs><style>.a{fill:#e5d995;}.b{fill:none;stroke:#3c7a3c;stroke-miterlimit:10;stroke-width:2.37px;}.c{fill:#3c7a3c;}</style></defs><g transform="translate(-124.711 -54)"><g transform="translate(124.711 54)"><g transform="translate(42.562 38.412)"><path class="a" d="M812.641,527.312l-12.348-7.129a.694.694,0,0,0-1.041.6v14.259a.694.694,0,0,0,1.041.6l12.348-7.129a.694.694,0,0,0,0-1.2" transform="translate(-799.252 -520.088)"/><path class="b" d="M812.641,527.312l-12.348-7.129a.694.694,0,0,0-1.041.6v14.259a.694.694,0,0,0,1.041.6l12.348-7.129A.694.694,0,0,0,812.641,527.312Z" transform="translate(-799.252 -520.088)"/></g><path class="c" d="M773.562,486.033,787.5,472.094,774.907,459.5V438.087l-21.411,0-13.1-13.1-13.108,13.1-20.817,0v20.554l-12.594,12.594,12.594,12.6v21.449h21.456L740.94,518.3l13.386-13.065H769.7l-4.58-4.573,4.58-4.58H750.6l-9.577,9.359-9.345-9.359H715.63V480.04l-8.813-8.806,8.813-8.806V447.241h15.461l9.3-9.311,9.311,9.311h16.048v16.048l8.805,8.806-7.474,7.461Z" transform="translate(-693.875 -424.988)"/><g transform="translate(80.395 71.099)"><rect class="c" width="6.473" height="6.473" transform="translate(0 4.577) rotate(-45)"/><rect class="c" width="6.473" height="6.473" transform="translate(9.158 4.577) rotate(-45)"/></g></g></g></svg>