<svg xmlns="http://www.w3.org/2000/svg" width="45.23" height="27.138" viewBox="0 0 45.23 27.138"><defs><style>.a{fill:#ffb600;}.b{fill:#f7981d;}.c{fill:#ff8500;}.d{fill:#ff5050;}.e{fill:#e52836;}.f{fill:#cb2026;}.g{fill:#fff;}.h{fill:#dce5e5;}</style></defs><path class="a" d="M228.738,114.369a13.569,13.569,0,0,1-27.138,0h0a13.569,13.569,0,1,1,27.138,0Z" transform="translate(-183.508 -100.8)"/><path class="b" d="M215.169,100.8a13.6,13.6,0,0,1,13.569,13.569h0a13.569,13.569,0,0,1-27.138,0" transform="translate(-183.508 -100.8)"/><path class="c" d="M352.8,100.8a13.6,13.6,0,0,1,13.569,13.569h0A13.558,13.558,0,0,1,352.8,127.938" transform="translate(-321.139 -100.8)"/><path class="d" d="M13.425,100.8a13.569,13.569,0,0,0,.144,27.138,13.727,13.727,0,0,0,9.118-3.518h0a12.9,12.9,0,0,0,1.364-1.436h-2.8a16.562,16.562,0,0,1-1.005-1.364h4.81a9.2,9.2,0,0,0,.79-1.436h-6.39a8.557,8.557,0,0,1-.574-1.436h7.467a14.256,14.256,0,0,0,.718-4.308,18.532,18.532,0,0,0-.287-2.872H18.451a10.5,10.5,0,0,1,.359-1.436h7.467A8.557,8.557,0,0,0,25.7,108.7H19.384a14.239,14.239,0,0,1,.79-1.436h4.81a6.828,6.828,0,0,0-1.077-1.436H21.251a12.238,12.238,0,0,1,1.364-1.364,13.248,13.248,0,0,0-9.118-3.518C13.5,100.8,13.5,100.8,13.425,100.8Z" transform="translate(0 -100.8)"/><path class="e" d="M0,115.825a13.558,13.558,0,0,0,13.569,13.569,13.727,13.727,0,0,0,9.118-3.518h0a12.9,12.9,0,0,0,1.364-1.436h-2.8a16.564,16.564,0,0,1-1.005-1.364h4.81a9.2,9.2,0,0,0,.79-1.436h-6.39a8.556,8.556,0,0,1-.574-1.436h7.467a14.256,14.256,0,0,0,.718-4.308,18.531,18.531,0,0,0-.287-2.872H18.451a10.5,10.5,0,0,1,.359-1.436h7.467a8.558,8.558,0,0,0-.574-1.436H19.384a14.238,14.238,0,0,1,.79-1.436h4.81a6.828,6.828,0,0,0-1.077-1.436H21.251a12.236,12.236,0,0,1,1.364-1.364A13.248,13.248,0,0,0,13.5,102.4h-.072" transform="translate(0 -102.256)"/><path class="f" d="M149.744,129.394a13.727,13.727,0,0,0,9.118-3.518h0a12.9,12.9,0,0,0,1.364-1.436h-2.8a16.569,16.569,0,0,1-1.005-1.364h4.81a9.2,9.2,0,0,0,.79-1.436h-6.39a8.558,8.558,0,0,1-.574-1.436h7.467a14.256,14.256,0,0,0,.718-4.308,18.53,18.53,0,0,0-.287-2.872h-8.328a10.492,10.492,0,0,1,.359-1.436h7.467a8.556,8.556,0,0,0-.574-1.436h-6.318a14.239,14.239,0,0,1,.79-1.436h4.81a6.828,6.828,0,0,0-1.077-1.436h-2.656a12.236,12.236,0,0,1,1.364-1.364,13.248,13.248,0,0,0-9.118-3.518H149.6" transform="translate(-136.175 -102.256)"/><g transform="translate(1.292 10.051)"><path class="g" d="M183.682,226.318l.215-1.221a3.109,3.109,0,0,1-.359.072c-.5,0-.574-.287-.5-.431l.431-2.513h.79l.215-1.364h-.718L183.9,220h-1.436s-.862,4.738-.862,5.313a1.078,1.078,0,0,0,1.149,1.221A2.2,2.2,0,0,0,183.682,226.318Z" transform="translate(-166.595 -219.354)"/><path class="g" d="M210.4,231.939a2.284,2.284,0,0,0,2.513,2.513,3.727,3.727,0,0,0,1.508-.215l.287-1.364a4.3,4.3,0,0,1-1.508.359c-1.579,0-1.292-1.149-1.292-1.149h2.944a9.309,9.309,0,0,0,.215-1.292,1.945,1.945,0,0,0-2.082-2.082C211.477,228.564,210.4,230.144,210.4,231.939Zm2.513-2.082c.79,0,.646.933.646,1.005h-1.579C211.979,230.79,212.123,229.857,212.913,229.857Z" transform="translate(-192.81 -227.272)"/><path class="g" d="M299.949,219.764l.287-1.579a3.528,3.528,0,0,1-1.22.359c-1.005,0-1.436-.79-1.436-1.651,0-1.723.862-2.656,1.867-2.656a2.4,2.4,0,0,1,1.292.431l.215-1.508a5.048,5.048,0,0,0-1.651-.359c-1.651,0-3.3,1.436-3.3,4.164,0,1.795.862,3.015,2.585,3.015A6.443,6.443,0,0,0,299.949,219.764Z" transform="translate(-270.729 -212.8)"/><path class="g" d="M89.128,227.2a5.084,5.084,0,0,0-1.723.287l-.215,1.22a4.244,4.244,0,0,1,1.579-.287c.5,0,.933.072.933.5,0,.287-.072.359-.072.359h-.646c-1.22,0-2.585.5-2.585,2.154,0,1.292.862,1.579,1.364,1.579a2.157,2.157,0,0,0,1.508-.646l-.072.574h1.292l.574-3.949A1.7,1.7,0,0,0,89.128,227.2Zm.287,3.231c0,.215-.144,1.364-1.005,1.364a.56.56,0,0,1-.574-.574c0-.359.215-.862,1.292-.862A1.132,1.132,0,0,0,89.415,230.431Z" transform="translate(-79.939 -225.908)"/><path class="g" d="M136.851,232.287a1.84,1.84,0,0,0,2.154-1.867c0-1.795-1.723-1.436-1.723-2.154,0-.359.287-.5.79-.5.215,0,1.005.072,1.005.072l.215-1.292a5.453,5.453,0,0,0-1.364-.144c-1.077,0-2.154.431-2.154,1.867,0,1.651,1.795,1.508,1.795,2.154,0,.431-.5.5-.862.5a4.7,4.7,0,0,1-1.292-.215L135.2,232C135.272,232.144,135.631,232.287,136.851,232.287Z" transform="translate(-124.359 -225.18)"/><path class="g" d="M431.292,214.4l-.287,1.938a1.991,1.991,0,0,0-1.364-.718c-1.292,0-2.441,1.579-2.441,3.446,0,1.149.574,2.369,1.795,2.369a1.917,1.917,0,0,0,1.364-.574l-.072.5h1.436l1.077-6.892Zm-.646,3.805c0,.79-.359,1.795-1.149,1.795-.5,0-.79-.431-.79-1.149,0-1.149.5-1.867,1.149-1.867C430.359,216.985,430.646,217.344,430.646,218.205Z" transform="translate(-390.154 -214.256)"/><path class="g" d="M15.764,221.292l.862-5.169.144,5.169h1.005l1.867-5.169-.79,5.169h1.508l1.149-6.892H19.138L17.7,218.636l-.072-4.236H15.549L14.4,221.292Z" transform="translate(-14.4 -214.256)"/><path class="g" d="M261.579,234.4c.431-2.369.5-4.308,1.508-3.949a5.636,5.636,0,0,1,.5-1.651H263.3c-.646,0-1.149.862-1.149.862l.144-.79h-1.364l-.933,5.6h1.579Z" transform="translate(-237.959 -227.364)"/><path class="g" d="M349.128,227.2a5.085,5.085,0,0,0-1.723.287l-.215,1.22a4.244,4.244,0,0,1,1.579-.287c.5,0,.933.072.933.5,0,.287-.072.359-.072.359h-.646c-1.221,0-2.585.5-2.585,2.154,0,1.292.862,1.579,1.364,1.579a2.157,2.157,0,0,0,1.508-.646l-.072.574h1.292l.574-3.949A1.676,1.676,0,0,0,349.128,227.2Zm.359,3.231c0,.215-.144,1.364-1.005,1.364a.56.56,0,0,1-.574-.574c0-.359.215-.862,1.292-.862C349.415,230.431,349.415,230.431,349.487,230.431Z" transform="translate(-316.606 -225.908)"/><path class="g" d="M395.979,234.4c.431-2.369.5-4.308,1.508-3.949a5.637,5.637,0,0,1,.5-1.651H397.7c-.646,0-1.149.862-1.149.862l.144-.79h-1.364l-.933,5.6h1.579Z" transform="translate(-360.298 -227.364)"/></g><g transform="translate(1.292 10.051)"><path class="h" d="M180,225.313a1.078,1.078,0,0,0,1.149,1.221,2.733,2.733,0,0,0,1.077-.215l.215-1.221a3.108,3.108,0,0,1-.359.072c-.5,0-.574-.287-.5-.431l.431-2.513h.79l.215-1.364H182.3l.144-.862" transform="translate(-165.139 -219.354)"/><path class="h" d="M218.4,231.939c0,2.01.646,2.513,1.795,2.513a3.728,3.728,0,0,0,1.508-.215l.287-1.364a4.3,4.3,0,0,1-1.508.359c-1.579,0-1.292-1.149-1.292-1.149h2.944a9.309,9.309,0,0,0,.215-1.292,1.945,1.945,0,0,0-2.082-2.082C218.759,228.564,218.4,230.144,218.4,231.939Zm1.795-2.082c.79,0,.933.933.933,1.005h-1.867C219.262,230.79,219.405,229.857,220.195,229.857Z" transform="translate(-200.093 -227.272)"/><path class="h" d="M307.231,219.764l.287-1.579a3.528,3.528,0,0,1-1.22.359c-1.005,0-1.436-.79-1.436-1.651,0-1.723.862-2.656,1.867-2.656a2.4,2.4,0,0,1,1.292.431l.215-1.508a5.048,5.048,0,0,0-1.651-.359c-1.651,0-2.585,1.436-2.585,4.164,0,1.795.144,3.015,1.867,3.015A6.443,6.443,0,0,0,307.231,219.764Z" transform="translate(-278.011 -212.8)"/><path class="h" d="M87.19,230.236a4.244,4.244,0,0,1,1.579-.287c.5,0,.933.072.933.5,0,.287-.072.359-.072.359h-.646c-1.22,0-2.585.5-2.585,2.154,0,1.292.862,1.579,1.364,1.579a2.157,2.157,0,0,0,1.508-.646l-.072.574h1.292l.574-3.949c0-1.651-1.436-1.723-2.01-1.723m1.077,3.087a2.35,2.35,0,0,1-1.723,1.364.56.56,0,0,1-.574-.574c0-.359.215-.862,1.292-.862A5.864,5.864,0,0,0,90.133,231.887Z" transform="translate(-79.939 -227.364)"/><path class="h" d="M136,232.144a6.077,6.077,0,0,0,1.651.144,1.84,1.84,0,0,0,2.154-1.867c0-1.795-1.723-1.436-1.723-2.154,0-.359.287-.5.79-.5.215,0,1.005.072,1.005.072l.215-1.292a5.453,5.453,0,0,0-1.364-.144c-1.077,0-1.436.431-1.436,1.867,0,1.651,1.077,1.508,1.077,2.154,0,.431-.5.5-.862.5" transform="translate(-125.087 -225.18)"/><path class="h" d="M438.234,217.067a1.991,1.991,0,0,0-1.364-.718c-1.292,0-1.723,1.579-1.723,3.446,0,1.149-.144,2.369,1.077,2.369a1.916,1.916,0,0,0,1.364-.574l-.072.5h1.436l1.077-6.892m-1.867,3.733c0,.79-.646,1.795-1.436,1.795-.5,0-.79-.431-.79-1.149,0-1.149.5-1.867,1.149-1.867A1.1,1.1,0,0,1,438.162,218.933Z" transform="translate(-397.384 -214.985)"/><path class="h" d="M15.764,221.292l.862-5.169.144,5.169h1.005l1.867-5.169-.79,5.169h1.508l1.149-6.892H19.713l-2.01,4.236-.072-4.236h-.79L14.4,221.292Z" transform="translate(-14.4 -214.256)"/><path class="h" d="M260.8,234.4h1.508c.431-2.369.5-4.308,1.508-3.949a5.635,5.635,0,0,1,.5-1.651h-.287c-.646,0-1.149.862-1.149.862l.144-.79" transform="translate(-238.687 -227.364)"/><path class="h" d="M347.19,230.236a4.244,4.244,0,0,1,1.579-.287c.5,0,.933.072.933.5,0,.287-.072.359-.072.359h-.646c-1.221,0-2.585.5-2.585,2.154,0,1.292.862,1.579,1.364,1.579a2.157,2.157,0,0,0,1.508-.646l-.072.574h1.292l.574-3.949c0-1.651-1.436-1.723-2.01-1.723m1.077,3.087a2.35,2.35,0,0,1-1.723,1.364.56.56,0,0,1-.574-.574c0-.359.215-.862,1.292-.862A6.315,6.315,0,0,0,350.133,231.887Z" transform="translate(-316.606 -227.364)"/><path class="h" d="M395.2,234.4h1.508c.431-2.369.5-4.308,1.508-3.949a5.633,5.633,0,0,1,.5-1.651h-.287c-.646,0-1.149.862-1.149.862l.144-.79" transform="translate(-361.026 -227.364)"/></g></svg>