<svg xmlns="http://www.w3.org/2000/svg" width="53.879" height="41.777" viewBox="0 0 53.879 41.777"><defs><style>.a{fill:#694b4b;}.b{fill:#5a4146;}.c{fill:#785550;}.d{fill:#e6af78;}.e{fill:#eff2fa;}.f{fill:#d29b6e;}.g{fill:#e4eaf6;}.h{fill:#f0c087;}.i{fill:#5b5d6e;}.j{fill:#515262;}.k{fill:#489a48;}.l{fill:#3c7a3c;}</style></defs><path class="a" d="M22.785,159.632c-8.644,0-7.686,10.512-7.646,18.129a.813.813,0,0,0,.4.7,14.589,14.589,0,0,0,14.495,0,.814.814,0,0,0,.4-.7C30.47,170.144,31.429,159.632,22.785,159.632Z" transform="translate(-13.501 -148.884)"/><path class="b" d="M22.233,159.838c-8.039.451-7.128,10.659-7.089,18.107a.813.813,0,0,0,.4.7,14.327,14.327,0,0,0,7.247,1.927l2.185-15.291" transform="translate(-13.506 -149.069)"/><path class="a" d="M43.529,159.632c-4.915,0-5.256,5.939-5.256,5.939,2.833-.478,4.574.717,7.441-.478l-2.185,15.291a14.327,14.327,0,0,0,7.247-1.927.814.814,0,0,0,.4-.7C51.215,170.144,52.173,159.632,43.529,159.632Z" transform="translate(-34.245 -148.884)"/><path class="c" d="M121.308,182.806c.034-6.546.741-15.222-4.544-17.536a4.852,4.852,0,0,0,.175,2.683c1.092,2.185,2.185,2.185,3.277,3.823,1.092,6.007-2.087,12.383-3.143,13.251h0a13.739,13.739,0,0,0,3.837-1.526A.813.813,0,0,0,121.308,182.806Z" transform="translate(-104.378 -153.929)"/><path class="d" d="M17.559,310.6l-4.873-2.03a1.092,1.092,0,0,1-.672-1.008v-1.32H6.553v1.32a1.092,1.092,0,0,1-.672,1.008L1.008,310.6A1.638,1.638,0,0,0,0,312.108v2.185a1.092,1.092,0,0,0,1.092,1.092H17.475a1.092,1.092,0,0,0,1.092-1.092v-2.185A1.638,1.638,0,0,0,17.559,310.6Z" transform="translate(0 -280.062)"/><path class="e" d="M17.559,330.96,12.848,329l-3.564,1.538L5.72,329,1.008,330.96A1.638,1.638,0,0,0,0,332.473v2.184a1.092,1.092,0,0,0,1.092,1.092H17.475a1.092,1.092,0,0,0,1.092-1.092v-2.184A1.638,1.638,0,0,0,17.559,330.96Z" transform="translate(0 -300.427)"/><path class="f" d="M55.55,306.237H50.089v1.32a1.092,1.092,0,0,1-.672,1.008l-.761.317C54.48,310.367,55.55,306.237,55.55,306.237Z" transform="translate(-43.536 -280.062)"/><g transform="translate(0 27.677)"><path class="g" d="M2.662,352.9.47,351.16A1.635,1.635,0,0,0,0,352.3v2.185a1.092,1.092,0,0,0,1.092,1.092H3.277v-1.4A1.639,1.639,0,0,0,2.662,352.9Z" transform="translate(0 -347.935)"/><path class="g" d="M148.584,354.545v-2.185a1.635,1.635,0,0,0-.463-1.137l-2.2,1.737a1.638,1.638,0,0,0-.615,1.279v1.4h2.185A1.092,1.092,0,0,0,148.584,354.545Z" transform="translate(-130.016 -347.992)"/><path class="g" d="M83.661,347.747H83.5a.464.464,0,0,1-.464-.464v-3.656h1.092v3.656A.464.464,0,0,1,83.661,347.747Z" transform="translate(-74.295 -341.194)"/><path class="g" d="M51.075,322.941,47.949,320.6a.437.437,0,0,0-.626.107l-.618.926,1.916,2.683a.437.437,0,0,0,.628.087Z" transform="translate(-41.791 -320.509)"/><path class="g" d="M88.222,322.941l3.126-2.344a.437.437,0,0,1,.626.107l.618.926-1.916,2.683a.437.437,0,0,1-.628.087Z" transform="translate(-78.938 -320.509)"/></g><path class="h" d="M45.389,206.339c-2.731,2.73-8.089.546-8.089,4.915l.339,3.218a2.185,2.185,0,0,0,1.115,1.712l3.109,1.727a1.638,1.638,0,0,0,1.591,0l3.109-1.727a2.184,2.184,0,0,0,1.115-1.712l.391-3.822a6.025,6.025,0,0,0,.025-.818C47.89,208.442,45.935,207.431,45.389,206.339Z" transform="translate(-33.375 -190.676)"/><path class="d" d="M37.3,211.251l.339,3.218a2.185,2.185,0,0,0,1.115,1.712l3.109,1.727a1.631,1.631,0,0,0,1.112.166h0s-1.568-.475-2.5-3c-.286-.774-.683-4.87-.341-5.37.675-.989,4.437-1.092,5.549-2.928q-.082-.1-.152-.2l-.012-.017a2.075,2.075,0,0,1-.129-.219C42.659,209.067,37.3,206.882,37.3,211.251Z" transform="translate(-33.375 -190.674)"/><path class="g" d="M106.139,382.783h-1.42a.928.928,0,0,0-.928.928v.164h3.277v-.164A.928.928,0,0,0,106.139,382.783Z" transform="translate(-92.869 -348.553)"/><path class="d" d="M377.2,298.021v-3h-7.713v3l3.856,3.428Z" transform="translate(-330.605 -270.027)"/><path class="e" d="M321.227,324.458l-5.3-1.248a.851.851,0,0,1-.223-.09l-4.294,2.505L307.28,323a.854.854,0,0,1-.39.211l-5.3,1.248a1.714,1.714,0,0,0-1.321,1.668v3.356a.857.857,0,0,0,.857.857h20.567a.857.857,0,0,0,.857-.857v-3.356A1.714,1.714,0,0,0,321.227,324.458Z" transform="translate(-268.669 -295.061)"/><path class="f" d="M369.487,295.022v3.165c4.858,1.75,7.713-2.63,7.713-2.63v-.534Z" transform="translate(-330.605 -270.027)"/><path class="h" d="M353.2,201.37l.373,8.215a2.571,2.571,0,0,0,1.026,1.94l1.772,1.329a2.571,2.571,0,0,0,1.542.514h1.714a2.571,2.571,0,0,0,1.542-.514l1.772-1.329a2.571,2.571,0,0,0,1.026-1.94l.373-8.215Z" transform="translate(-316.032 -186.23)"/><path class="d" d="M357.485,203.084c1.714,0,4.285-.428,4.895-1.714H353.2l.373,8.215a2.571,2.571,0,0,0,1.026,1.94l1.772,1.329a2.571,2.571,0,0,0,1.542.514h.857c-.857,0-2.571-1.714-2.571-3.856v-5.142A1.368,1.368,0,0,1,357.485,203.084Z" transform="translate(-316.032 -186.23)"/><path class="g" d="M476.065,345.111l2.777-2.494a1.711,1.711,0,0,1,.369,1.062v3.356a.857.857,0,0,1-.857.857h-3v-1.187A2.143,2.143,0,0,1,476.065,345.111Z" transform="translate(-425.332 -312.614)"/><path class="i" d="M398.1,359.955h-2.142l.268-3.856h1.607Z" transform="translate(-354.286 -324.677)"/><path class="j" d="M398.1,347.955h-2.142v.248a1.038,1.038,0,0,0,1.038,1.038h.066A1.038,1.038,0,0,0,398.1,348.2v-.248Z" transform="translate(-354.286 -317.39)"/><g transform="translate(37.596 26.93)"><path class="g" d="M358.5,313.524l3.917,3.525a14.778,14.778,0,0,0-2.45,1.67.55.55,0,0,1-.851-.192l-1.84-4.048.582-.873A.428.428,0,0,1,358.5,313.524Z" transform="translate(-357.27 -313.414)"/><path class="g" d="M410.05,313.524l-3.917,3.525a14.777,14.777,0,0,1,2.45,1.67.55.55,0,0,0,.851-.192l1.84-4.048-.582-.873A.428.428,0,0,0,410.05,313.524Z" transform="translate(-400.991 -313.414)"/></g><path class="c" d="M430.818,172.131l.4,2.839c1.834.367,2.1,3.244,2.136,4.066a.845.845,0,0,0,.135.419l.7,1.085a4.1,4.1,0,0,1,.857-3S435.424,170.417,430.818,172.131Z" transform="translate(-385.482 -159.83)"/><path class="h" d="M452.08,243.191l-.484,1.936a.515.515,0,0,1-.5.39h0a.515.515,0,0,1-.511-.451l-.247-1.98a.887.887,0,0,1,.88-1h0A.887.887,0,0,1,452.08,243.191Z" transform="translate(-402.942 -222.664)"/><path class="a" d="M342.342,157.677l.634.433a6.407,6.407,0,0,0-2.33,5.744c.857.857.857,3,.857,3l.857-.857s-.331-2.476,1.285-3.428c1.5-.884,2.812-.428,4.151-.428,3.589,0,4.593-1.352,4.419-3-.09-.852-1.393-2.627-4.713-2.571A14.429,14.429,0,0,0,342.342,157.677Z" transform="translate(-304.764 -146.143)"/><path class="b" d="M342.092,174.869a4.707,4.707,0,0,1,.884-3.656,6.407,6.407,0,0,0-2.33,5.744c.857.857.857,3,.857,3l.857-.857s-.331-2.476,1.285-3.428c1.5-.884,2.812-.428,4.151-.428a10.537,10.537,0,0,0,1.545-.106C346.578,175.23,344.949,173.137,342.092,174.869Z" transform="translate(-304.764 -159.247)"/><path class="d" d="M345.082,243.191l.484,1.936a.515.515,0,0,0,.5.39h0a.515.515,0,0,0,.511-.451l.247-1.98a.887.887,0,0,0-.88-1h0A.887.887,0,0,0,345.082,243.191Z" transform="translate(-308.744 -222.664)"/><path class="g" d="M429.491,384.6h-2.143a.857.857,0,0,0-.857.857h3.856A.857.857,0,0,0,429.491,384.6Z" transform="translate(-381.611 -350.18)"/><path class="a" d="M144.912,57.5c-14.695,0-13.065,17.87-13,30.819a1.383,1.383,0,0,0,.678,1.182,24.8,24.8,0,0,0,24.641,0,1.383,1.383,0,0,0,.678-1.182C157.977,75.37,159.606,57.5,144.912,57.5Z" transform="translate(-117.956 -57.5)"/><path class="b" d="M143.973,57.849c-13.667.766-12.117,18.121-12.051,30.783a1.383,1.383,0,0,0,.678,1.182,24.357,24.357,0,0,0,12.321,3.277L148.633,67.1" transform="translate(-117.964 -57.812)"/><path class="a" d="M180.177,57.5c-8.355,0-8.936,10.1-8.936,10.1,4.816-.812,7.775,1.218,12.649-.812l-3.714,25.995A24.357,24.357,0,0,0,192.5,89.5a1.383,1.383,0,0,0,.678-1.182C193.242,75.37,194.871,57.5,180.177,57.5Z" transform="translate(-153.221 -57.5)"/><path class="c" d="M312.4,96.9c.058-11.127,1.259-25.877-7.725-29.811a8.251,8.251,0,0,0,.3,4.562c1.857,3.714,3.714,3.714,5.57,6.5C312.4,88.359,307,99.2,305.2,100.673h0a23.353,23.353,0,0,0,6.523-2.594A1.383,1.383,0,0,0,312.4,96.9Z" transform="translate(-272.448 -66.077)"/><path class="d" d="M136.028,314.137l-8.284-3.452a1.857,1.857,0,0,1-1.143-1.714v-2.244h-9.284v2.244a1.857,1.857,0,0,1-1.143,1.714l-8.284,3.452a2.785,2.785,0,0,0-1.714,2.571v3.714a1.857,1.857,0,0,0,1.857,1.857h27.851a1.857,1.857,0,0,0,1.857-1.857v-3.714A2.785,2.785,0,0,0,136.028,314.137Z" transform="translate(-95.004 -280.501)"/><path class="k" d="M136.028,348.76l-8.01-3.337-6.059,2.615-6.059-2.615-8.01,3.337a2.785,2.785,0,0,0-1.714,2.571v3.714a1.857,1.857,0,0,0,1.857,1.857h27.851a1.857,1.857,0,0,0,1.857-1.857v-3.714A2.785,2.785,0,0,0,136.028,348.76Z" transform="translate(-95.004 -315.124)"/><path class="f" d="M200.611,306.728h-9.284v2.244a1.857,1.857,0,0,1-1.143,1.714l-1.294.539C198.792,313.749,200.611,306.728,200.611,306.728Z" transform="translate(-169.014 -280.501)"/><g transform="translate(11.173 28.78)"><path class="l" d="M110.7,386.062l-3.726-2.964a2.779,2.779,0,0,0-.8,1.944v3.714a1.857,1.857,0,0,0,1.857,1.857h3.714v-2.375A2.786,2.786,0,0,0,110.7,386.062Z" transform="translate(-106.179 -377.614)"/><path class="l" d="M358.769,388.853V385.14a2.779,2.779,0,0,0-.787-1.932l-3.738,2.953a2.785,2.785,0,0,0-1.045,2.175v2.375h3.714A1.857,1.857,0,0,0,358.769,388.853Z" transform="translate(-327.205 -377.713)"/><path class="l" d="M248.261,377.3h0a.928.928,0,0,1-.928-.928v-6.076h1.857v6.076A.928.928,0,0,1,248.261,377.3Z" transform="translate(-232.479 -366.156)"/><path class="l" d="M193,335.123l-5.314-3.985a.743.743,0,0,0-1.064.182l-1.05,1.575,3.258,4.561a.743.743,0,0,0,1.068.148Z" transform="translate(-177.222 -330.989)"/><path class="l" d="M256.155,335.123l5.314-3.985a.743.743,0,0,1,1.064.182l1.05,1.575-3.258,4.561a.743.743,0,0,1-1.068.148Z" transform="translate(-240.373 -330.989)"/></g><path class="h" d="M183.339,136.9c-4.642,4.642-13.752.928-13.752,8.355l.577,5.471a3.713,3.713,0,0,0,1.895,2.91l5.286,2.937a2.785,2.785,0,0,0,2.705,0l5.286-2.937a3.714,3.714,0,0,0,1.895-2.91l.665-6.5a10.233,10.233,0,0,0,.042-1.39C187.59,140.476,184.267,138.757,183.339,136.9Z" transform="translate(-151.741 -128.545)"/><path class="d" d="M169.587,145.255l.577,5.471a3.713,3.713,0,0,0,1.895,2.91l5.286,2.937a2.773,2.773,0,0,0,1.89.283h0s-2.665-.808-4.251-5.1c-.486-1.315-1.16-8.278-.58-9.129,1.147-1.682,7.543-1.857,9.433-4.977q-.14-.174-.258-.348l-.02-.028a3.509,3.509,0,0,1-.219-.371C178.7,141.542,169.587,137.828,169.587,145.255Z" transform="translate(-151.741 -128.545)"/><path class="l" d="M287.264,436.856H283.55a.928.928,0,0,0-.928.928v.928h5.57v-.928A.928.928,0,0,0,287.264,436.856Z" transform="translate(-252.881 -396.936)"/></svg>