<svg xmlns="http://www.w3.org/2000/svg" xmlns:xlink="http://www.w3.org/1999/xlink" width="314.192" height="312.068" viewBox="0 0 314.192 312.068"><defs><style>.a{fill:none;}.b{fill:#e8f4e8;}.c{fill:#3c7a3c;}.d{fill:#89b189;}.e{clip-path:url(#a);}.f{fill:#4e4d4b;}.g{fill:#f0bf9c;}.h{fill:#eba588;}.i{fill:#fff;}.j{fill:#ebebeb;}.k{fill:#cc6164;}.l{opacity:0.7;}.m{fill:#e1fff5;}</style><clipPath id="a"><circle class="a" cx="79.967" cy="79.967" r="79.967" transform="translate(0 57.717) rotate(-21.154)"/></clipPath></defs><g transform="translate(-51.091 -90.018)"><path class="b" d="M314.54,426.7c0,5.044-34.626,9.131-77.338,9.131s-77.343-4.087-77.343-9.131,34.627-9.13,77.343-9.13S314.54,421.658,314.54,426.7Z" transform="translate(-15.445 -46.514)"/><path class="b" d="M235.5,351.225c-61.59,3.946-161.63-32.515-124.349-91.238,28.876-45.482,5.323-77.768-9.625-91.5-26.308-24.171,1.163-85.7,125.542-77.767,113.577,7.244,155.7,82.963,141.4,151.028C355.629,302.812,306.184,346.7,235.5,351.225Z" transform="translate(-5.87 0)"/><g transform="translate(51.091 119.414)"><g transform="translate(0 162.06)"><rect class="c" width="32.622" height="10.616" transform="translate(90.036 23.067) rotate(-45)"/><rect class="c" width="122.348" height="25.601" transform="translate(0 102.509) rotate(-45)"/><rect class="d" width="8.532" height="25.602" transform="translate(80.479 22.028) rotate(-45)"/></g><g transform="translate(74.306)"><g class="e"><g transform="translate(34.968 34.157)"><path class="f" d="M227.14,203.136c-21.051-32.693-1.851-45.872,13.213-35.663,12.58,8.534,25.116-3.383,35.536,6.68,8.271,7.984,6.608,14.981-.993,34.974C266.679,230.729,227.14,203.136,227.14,203.136Z" transform="translate(-184.045 -164.089)"/><path class="g" d="M240.731,243.761h30.008l6.887-47.149H232.373Z" transform="translate(-186.108 -168.708)"/><path class="g" d="M282.907,209.594s5.74-2.336,5.74,2.355c0,5.93-7.548,10-7.548,10Z" transform="translate(-193.028 -170.468)"/><path class="g" d="M233.7,209.7s-6.141-2.435-6.141,2.257c0,5.93,8.315,10,8.315,10Z" transform="translate(-185.424 -170.476)"/><g transform="translate(64.359 43.794)"><path class="h" d="M255.954,227.083a72.455,72.455,0,0,0,1.935-11.952,72.232,72.232,0,0,0-3.413,11.616c-.377,1.768-.733,3.47-1.014,4.794q1.08.081,2.1.164c.432.022.843.043,1.242.065.8.026,1.544.047,2.217.068a28.356,28.356,0,0,0,3.206-.094,28.2,28.2,0,0,0-3.121-.737c-.664-.119-1.4-.245-2.184-.384-.4-.057-.808-.122-1.229-.185-.589-.079-.515-.088-.547-.1.026-.062.026-.013.063-.127.077-.311.156-.638.242-.976C255.61,228.549,255.78,227.822,255.954,227.083Z" transform="translate(-253.462 -215.131)"/></g><rect class="g" width="14.682" height="14.294" transform="translate(61.962 72.418)"/><path class="i" d="M302.872,364.692l-23.308-66,8.272,66h-78.22l5.564-64.636L189.83,364.692H178.451L202.51,260.113h89.044l23.837,104.578" transform="translate(-178.451 -177.725)"/><path class="j" d="M266.949,260.113l6.723,11.257-13.546-.958s-1.335-7.947,2.893-10.3Z" transform="translate(-190.021 -177.725)"/><path class="j" d="M255.091,269.791l-11.786,3.087,5.727-12.764h6.059Z" transform="translate(-187.661 -177.725)"/><path class="k" d="M263.988,260.113s-5.229,23.71-12.129,0Z" transform="translate(-188.875 -177.725)"/><path class="k" d="M258.236,271.829l7.784,64.448-9.42,9.6-9.981-9.459,8.943-65.209S257.725,268.334,258.236,271.829Z" transform="translate(-188.131 -179.143)"/><path class="h" d="M250.668,251.564H265.35v4.513l-14.682-2.94Z" transform="translate(-188.706 -176.511)"/></g></g></g><path class="c" d="M242.046,130.714a97.916,97.916,0,1,0,97.916,97.916A97.917,97.917,0,0,0,242.046,130.714Zm0,177.883a79.967,79.967,0,1,1,79.967-79.967A79.968,79.968,0,0,1,242.046,308.6Z" transform="translate(-64.303 -125.193)"/><g class="l" transform="translate(199.322 42.011)"><path class="m" d="M301.147,221.8c-6.673-11.951-6.146-24.951,1.177-29.042s18.667,2.281,25.339,14.232,6.144,24.946-1.176,29.035S307.821,233.746,301.147,221.8Z" transform="translate(-285.258 -175.839)"/><path class="m" d="M285.222,185.823a7.6,7.6,0,1,1,10.923,1.5A7.8,7.8,0,0,1,285.222,185.823Z" transform="translate(-283.402 -173.244)"/></g></g><g transform="translate(83.58 188.623)"><path class="b" d="M111.969,225.414C116.647,202.5,91.5,199.567,89.236,212.9,86.257,230.431,108.04,244.651,111.969,225.414Z" transform="translate(-88.957 -204.943)"/><path class="b" d="M107.087,251.31c-9.3,2.651-3.433,12.613,1.858,10.9C115.9,259.959,114.9,249.086,107.087,251.31Z" transform="translate(-90.836 -211.485)"/></g></g></svg>