<svg xmlns="http://www.w3.org/2000/svg" xmlns:xlink="http://www.w3.org/1999/xlink" width="880.982" height="524.474" viewBox="0 0 880.982 524.474"><defs><style>.a,.ac,.ad,.af,.am,.an,.ar,.av,.ay,.ba,.c,.d,.e,.f,.h,.k,.l,.m,.o,.q,.r,.s,.y{fill:none;}.at,.au,.b,.bb{fill:#3c7a3c;}.ag,.c,.d{stroke:#3c7a3c;}.aa,.ab,.ac,.ad,.af,.ag,.ah,.ai,.ak,.am,.an,.ao,.aq,.ar,.at,.au,.av,.aw,.ax,.ay,.az,.ba,.bb,.c,.h,.k,.l,.m,.o,.q,.r,.s,.x,.y,.z{stroke-miterlimit:10;}.d,.e,.f{stroke-linecap:round;stroke-linejoin:round;stroke-width:0.75px;}.e{stroke:#db7294;}.f,.o{stroke:#eeda36;}.g{fill:#d96980;}.h{stroke:#fff;}.az,.i{fill:#e5d995;}.j{fill:#e4b0c8;}.k{stroke:#d96980;}.l{stroke:#9e88e5;}.m{stroke:#672ed6;}.ao,.n{fill:#672ed6;}.aa,.ab,.p{fill:#eeda36;}.q{stroke:#d7d4fc;}.r{stroke:rgba(60,122,60,0.52);}.r,.s{stroke-dasharray:4;}.s{stroke:#c1c0ff;}.t{fill:#d6e3d6;}.ag,.aw,.u,.x,.z{fill:#fff;}.v{fill:#3c3c3c;}.w{clip-path:url(#a);}.aa,.af,.ah,.am,.an,.at,.au,.av,.aw,.az,.ba,.bb,.x{stroke:#000;}.ab,.ai,.y,.z{stroke:#1c191b;}.ac,.ay{stroke:#020202;}.ad,.ak,.ax{stroke:#0c0c0c;}.ae,.ah{fill:#db7294;}.af{stroke-width:0.25px;}.aj{fill:#0c0c0c;}.ak,.ax{fill:#fff7f7;}.al{clip-path:url(#b);}.an{stroke-width:2px;}.ao{stroke:#211f21;}.ap{fill:#141414;}.aq{fill:#f7f6f6;stroke:#141414;stroke-width:0.223px;}.ar{stroke:#090909;stroke-width:0.275px;}.as{clip-path:url(#c);}.at{stroke-width:0.909px;}.au{stroke-width:0.972px;}.av{stroke-width:1.88px;}.aw,.az,.ba,.bb{stroke-width:0.94px;}.ax{stroke-width:0.21px;}.ay{stroke-width:0.259px;}</style><clipPath id="a"><rect class="a" width="125.384" height="75.89" rx="9.347"/></clipPath><clipPath id="b"><rect class="a" width="109.348" height="66.184" rx="7.86"/></clipPath><clipPath id="c"><rect class="a" width="179.008" height="108.346" rx="7.933"/></clipPath></defs><g transform="translate(-35.393 -131.12)"><g transform="translate(35.393 116.546)"><g transform="translate(7.628 0)"><g transform="translate(0.708 15.074)"><g transform="translate(321.482 385.887)"><path class="b" d="M298.13,426.321l2.611,2.611a7.426,7.426,0,0,1,10.5,0l2.612-2.611a11.116,11.116,0,0,0-15.723,0Z" transform="translate(-289.467 -410.813)"/><path class="b" d="M293.312,421.3l2.611,2.611a13.55,13.55,0,0,1,19.164,0L317.7,421.3a17.241,17.241,0,0,0-24.386,0Z" transform="translate(-288.981 -410.124)"/><path class="b" d="M305.018,409.436a23.21,23.21,0,0,0-16.524,6.846l2.611,2.611a19.675,19.675,0,0,1,27.826,0l2.612-2.611A23.213,23.213,0,0,0,305.018,409.436Z" transform="translate(-288.494 -409.436)"/><path class="b" d="M306.521,429.591a3.152,3.152,0,1,0,3.151,3.152A3.152,3.152,0,0,0,306.521,429.591Z" transform="translate(-289.997 -411.472)"/></g><g transform="translate(403.773 65.783)"><path class="c" d="M364.954,157.561l4.8,4.8a13.656,13.656,0,0,1,19.312,0l4.8-4.8a20.443,20.443,0,0,0-28.915,0Z" transform="translate(-349.023 -129.041)"/><path class="c" d="M360.136,154.047l4.8,4.8a24.92,24.92,0,0,1,35.242,0l4.8-4.8a31.707,31.707,0,0,0-44.846,0Z" transform="translate(-352.171 -133.492)"/><path class="c" d="M385.706,137.943a42.69,42.69,0,0,0-30.388,12.59l4.8,4.8a36.183,36.183,0,0,1,51.173,0l4.8-4.8A42.684,42.684,0,0,0,385.706,137.943Z" transform="translate(-355.318 -137.943)"/><circle class="c" cx="5.796" cy="5.796" r="5.796" transform="translate(24.593 33.322)"/></g><g transform="translate(495.539 276.044)"><line class="d" y2="14.87" transform="translate(7.435)"/><line class="d" x2="14.87" transform="translate(0 7.435)"/></g><g transform="translate(86.026 410.079)"><line class="e" y2="14.87" transform="translate(7.435)"/><line class="e" x2="14.87" transform="translate(0 7.435)"/></g><g transform="translate(168.85 500.966)"><line class="e" y2="14.87" transform="translate(7.435)"/><line class="e" x2="14.87" transform="translate(0 7.435)"/></g><g transform="translate(857.401 390.284)"><line class="e" y2="14.87" transform="translate(7.435)"/><line class="e" x2="14.87" transform="translate(0 7.435)"/></g><g transform="translate(323.389 86.274)"><line class="e" y2="14.87" transform="translate(7.435)"/><line class="e" x2="14.87" transform="translate(0 7.435)"/></g><g transform="translate(99.929 28.504)"><line class="d" y2="14.87" transform="translate(7.435)"/><line class="d" x2="14.87" transform="translate(0 7.435)"/></g><g transform="translate(176.48 264.118)"><line class="f" y2="14.87" transform="translate(7.435)"/><line class="f" x2="14.87" transform="translate(0 7.435)"/></g><g transform="translate(379.184 437.452)"><line class="f" y2="14.87" transform="translate(7.435)"/><line class="f" x2="14.87" transform="translate(0 7.435)"/></g><circle class="f" cx="5.111" cy="5.111" r="5.111" transform="translate(271.824 85.987)"/><g transform="translate(747.024 360.228)"><circle class="g" cx="32.832" cy="32.832" r="32.832" transform="translate(0 33.289) rotate(-30.461)"/><g transform="translate(26.184 31.069)"><rect class="h" width="38.5" height="28.924"/><path class="h" d="M645.121,355.5l19.25,17.784,19.25-17.784" transform="translate(-645.121 -355.495)"/></g></g><g transform="translate(52.109 448.181)"><circle class="i" cx="27.201" cy="27.201" r="27.201" transform="translate(0 52.068) rotate(-73.155)"/><g transform="translate(18.373 22.421)"><rect class="h" width="31.897" height="23.963"/><path class="h" d="M88.019,403.464,103.967,418.2l15.948-14.734" transform="translate(-88.019 -403.464)"/></g></g><g transform="translate(293.189 30.187)"><circle class="j" cx="17.287" cy="17.287" r="17.287"/><g transform="translate(7.409 9.981)"><rect class="h" width="20.271" height="15.229"/><path class="h" d="M273.423,122.45l10.136,9.364,10.136-9.364" transform="translate(-273.423 -122.45)"/></g></g><path class="g" d="M181.71,236.28l4.669,8.087,4.669,8.087H172.372l4.669-8.087Z" transform="translate(-5.189 -22.33)"/><path class="k" d="M424.032,379.5l10.657,9.356,10.657,9.357-13.431,4.551-13.432,4.551,2.775-13.907Z" transform="translate(71.75 51.482)"/><path class="k" d="M72.8,115.606l-3.711,13.687-3.711,13.687-10-10.058-10-10.058,13.709-3.63Z" transform="translate(-45.386 -86.752)"/><path class="l" d="M709.929,397.634,706.71,409.5l-3.219,11.87-8.67-8.722-8.671-8.722,11.889-3.148Z" transform="translate(154.889 63.329)"/><path class="k" d="M248.265,407.834a7.643,7.643,0,1,1-7.643-7.643A7.642,7.642,0,0,1,248.265,407.834Z" transform="translate(14.195 65)"/><path class="k" d="M416.512,108.932a10.78,10.78,0,1,1-10.779-10.779A10.78,10.78,0,0,1,416.512,108.932Z" transform="translate(64.95 -98.153)"/><path class="g" d="M284.2,283.025a6.851,6.851,0,1,1-6.851-6.851A6.851,6.851,0,0,1,284.2,283.025Z" transform="translate(26.223 -0.346)"/><path class="g" d="M417.551,428.473a6.85,6.85,0,1,1-6.851-6.851A6.85,6.85,0,0,1,417.551,428.473Z" transform="translate(68.642 78.999)"/><path class="j" d="M290.814,366.2a4.088,4.088,0,1,1-4.089-4.087A4.088,4.088,0,0,1,290.814,366.2Z" transform="translate(30.49 47.147)"/><circle class="k" cx="12.12" cy="12.12" r="12.12" transform="translate(696.533 500.943) rotate(-22.606)"/><circle class="m" cx="10.625" cy="10.625" r="10.625" transform="translate(576.956 295.674)"/><circle class="c" cx="9.565" cy="9.565" r="9.565" transform="translate(23.542 366.881)"/><path class="n" d="M683.374,294.962a8.273,8.273,0,1,1-8.273-8.273A8.273,8.273,0,0,1,683.374,294.962Z" transform="translate(142.266 5.328)"/><path class="c" d="M390.976,414.515a8.273,8.273,0,1,1-8.273-8.273A8.273,8.273,0,0,1,390.976,414.515Z" transform="translate(58.991 68.952)"/><path class="o" d="M618.835,391.926s13.719-1.347,17.309,7.317,5.026,17.053,26.571,6.4" transform="translate(110.915 59.551)"/><path class="o" d="M81.77,172.209s-1.817,12.56-10.354,13.862-16.352.739-11.568,22.347" transform="translate(-36.891 -57.798)"/><path class="o" d="M325.256,107.221s13.719-1.346,17.31,7.319,5.026,17.053,26.571,6.4" transform="translate(40.937 -92.279)"/><path class="p" d="M370.2,228.03a6.194,6.194,0,1,1-6.193-6.195A6.193,6.193,0,0,1,370.2,228.03Z" transform="translate(54.125 -30.17)"/><circle class="q" cx="7.779" cy="7.779" r="7.779" transform="matrix(0.793, -0.609, 0.609, 0.793, 184.439, 12.301)"/></g><path class="r" d="M185.649,437.54c-77.7,0-140.691-59.778-140.691-133.518,0-52.119,31.468-97.264,77.356-119.255" transform="translate(-44.958 -26.499)"/><path class="r" d="M391.348,356.37c5.71,52.2-33.566,99.326-87.726,105.251s-102.695-31.592-108.407-83.795" transform="translate(38.842 -5.315)"/><ellipse class="r" cx="91.475" cy="89.447" rx="91.475" ry="89.447" transform="translate(172.786 131.455)"/><ellipse class="s" cx="89.695" cy="82.901" rx="89.695" ry="82.901" transform="translate(593.557 268.544)"/></g><g transform="translate(0 99.846)"><g transform="translate(0 0)"><g transform="translate(85.974 284.164)"><g transform="translate(0 0)"><rect class="t" width="144.516" height="99.558" rx="9.347" transform="translate(0 0.387)"/><g transform="translate(9.566)"><rect class="u" width="125.384" height="75.89" rx="9.347" transform="translate(0 6.177)"/><path class="v" d="M168.15,331.712s-6.806,21.441,7.1,26.174,15.464.814,18.555,8.218,15.472,4.21,16.655-7.182-7.222-10.5-11.6-11.1-7.292-8.631-7.251-12.813S169.726,322.979,168.15,331.712Z" transform="translate(-130.681 -290.853)"/><g transform="translate(0 6.177)"><g class="w"><g transform="translate(-8.118 54.792)"><g transform="translate(12.744)"><path class="x" d="M183.858,352.241s14.823.905,30.114,15.274,14.891,51.451,14.891,51.451l-45.65-1.166Z" transform="translate(-135.593 -352.241)"/><g transform="translate(0 4.153)"><path class="u" d="M198.7,364.587c10.23,7.652,31.053,53.1,24.442,53.263s-85.523-.475-88-2.927S143.4,390.8,143.4,390.8s16.6-34.112,42.3-34.325C194.27,356.407,187.773,356.419,198.7,364.587Z" transform="translate(-134.764 -356.467)"/><path class="y" d="M157.051,392.9s-7.231,20.266-5.562,22.56,54.79,2.886,59.24,2.737-3.09-32.1-6.859-41.286" transform="translate(-135.046 -356.816)"/></g></g><g transform="translate(0 0.002)"><path class="z" d="M185.366,403.938s5.959-3.987,21.359-.2c0,0,2.989,1.343.7,1.952s-8.013-.316-8.013-.316,8.87.811,9.07,2.353-8.361.044-8.361.044,9.225,1.452,9.115,3.017-5.241-.18-10.221.177-14.063,4.012-15.471,3S179.067,406.281,185.366,403.938Z" transform="translate(-122.82 -353.096)"/><path class="x" d="M179.35,352.243c-9.2.083-19.283,2.943-29.052,10.908-13.333,10.871-35.95,45.048-26.075,62.691s32.622,10.763,40.5,7.211,23.284-15.364,24.964-20.193c1.971-5.659,1.11-9.653-5.992-11.429s-33.176,1-38.28,4.328" transform="translate(-121.798 -352.243)"/><path class="aa" d="M190.767,413.718c1.925-5.531,1.131-9.465-5.533-11.3a20.188,20.188,0,0,0-.183,6.163c.434,3.776,1.724,6.974,3.3,8.67A12.008,12.008,0,0,0,190.767,413.718Z" transform="translate(-122.878 -353.101)"/></g><path class="ab" d="M169.014,379.991s-7.777-5.7-4.782-8.319,5.578,2.793,5.578,2.793,1.8-4.75,4.379-3.163S169.014,379.991,169.014,379.991Z" transform="translate(-122.512 -352.561)"/></g></g></g><g transform="translate(31.458)"><path class="ab" d="M188.55,355.356c0,2.684-3.735,4.86-8.343,4.86s-8.342-2.176-8.342-4.86,3.735-4.86,8.342-4.86S188.55,352.672,188.55,355.356Z" transform="translate(-162.231 -291.242)"/><path class="x" d="M164.543,331.674a6.2,6.2,0,1,0,6.2-6.148A6.173,6.173,0,0,0,164.543,331.674Z" transform="translate(-162.106 -290.814)"/><path class="x" d="M190.506,313.5h-7.334c-4.875,0-8.865,4.542-8.865,10.093V334.96c0,.32.017.636.043.949a4.5,4.5,0,0,0-.126,1.041v14.226a4.58,4.58,0,0,0,4.566,4.566H181.7a4.579,4.579,0,0,0,4.566-4.566v-6.123h4.241c4.875,0,8.865-4.542,8.865-10.093V323.591C199.37,318.04,195.381,313.5,190.506,313.5Z" transform="translate(-162.271 -290.609)"/><g transform="translate(0)"><g transform="translate(3.965 14.403)"><path class="v" d="M173.548,328.555s7.19-2.388,9.371-7.028,1.637-5.64,1.637-5.64,4.052,5.549,10.458,6.913c5.287,1.126,5.072.345,5.595-.887.478-1.125.8-8.959-7.23-13.78s-16.658-4.343-22.61,1.66-5.224,15.463-3.223,17.828S172.183,331.307,173.548,328.555Z" transform="translate(-166.097 -304.864)"/></g><circle class="v" cx="7.179" cy="7.179" r="7.179" transform="translate(0 13.973) rotate(-76.718)"/></g><g transform="translate(2.797 35.068)"><path class="u" d="M164.909,331.68a5.839,5.839,0,1,0,5.838-5.791A5.815,5.815,0,0,0,164.909,331.68Z" transform="translate(-164.909 -325.889)"/><path class="ac" d="M174,332.5s.257-3.934-3.783-3.5" transform="translate(-165 -325.942)"/></g><g transform="translate(16.678 35.044)"><g transform="translate(5.746)"><circle cx="1.653" cy="1.653" r="1.653"/><path d="M195.888,327.275a1.411,1.411,0,1,0,1.411-1.41A1.412,1.412,0,0,0,195.888,327.275Z" transform="translate(-185.065 -325.864)"/></g><path class="ad" d="M194.181,334.169s-.831,2.421-2.587,2.587-3.132-1.78-3.228-3.3" transform="translate(-179.191 -325.994)"/><g transform="translate(0 3.623)"><path class="j" d="M179.031,333.659a4.109,4.109,0,1,0,4.109-4.109A4.11,4.11,0,0,0,179.031,333.659Z" transform="translate(-179.031 -329.55)"/><path class="j" d="M198.633,330.9a3.092,3.092,0,0,1,.725.089v4.262a8.732,8.732,0,0,1-.153,1.853,3.773,3.773,0,0,1-.572.052,3.128,3.128,0,1,1,0-6.255Z" transform="translate(-179.313 -329.573)"/></g><path class="ae" d="M192.387,325.864l-.338,5.629,2.688-1.638Z" transform="translate(-179.254 -325.864)"/></g></g><path class="c" d="M245.428,313.313h-29.56A5.314,5.314,0,0,1,210.554,308h0a5.314,5.314,0,0,1,5.314-5.314h29.56A5.313,5.313,0,0,1,250.742,308h0A5.313,5.313,0,0,1,245.428,313.313Z" transform="translate(-131.435 -290.424)"/></g><rect class="c" width="125.384" height="75.89" rx="9.347" transform="translate(9.566 6.177)"/></g><path class="af" d="M197.921,382.456a3.94,3.94,0,1,1-3.94-3.94A3.941,3.941,0,0,1,197.921,382.456Z" transform="translate(-121.518 -291.721)"/></g><g transform="translate(75.005 0)"><rect class="t" width="163.579" height="112.691" rx="7.86" transform="translate(3.527 13.439)"/><rect class="ag" width="141.924" height="85.9" rx="7.86" transform="translate(14.355 19.992)"/><path class="ah" d="M263.03,243.756h65.807c-6.64-8.995-18.886-15.032-32.9-15.032S269.67,234.762,263.03,243.756Z" transform="translate(-211.4 -137.863)"/><ellipse class="ai" cx="10.785" cy="6.284" rx="10.785" ry="6.284" transform="translate(74.585 86.362)"/><path class="x" d="M273.348,209.287a8.014,8.014,0,1,0,8.014-7.948A7.981,7.981,0,0,0,273.348,209.287Z" transform="translate(-208.068 -146.706)"/><path class="x" d="M303.7,189.786h-9.481c-6.3,0-11.46,5.871-11.46,13.048v14.7c0,.414.021.823.056,1.228a5.8,5.8,0,0,0-.163,1.347V238.5a5.92,5.92,0,0,0,5.9,5.9h3.761a5.92,5.92,0,0,0,5.9-5.9v-7.918H303.7c6.3,0,11.46-5.872,11.46-13.049v-14.7C315.156,195.657,310,189.786,303.7,189.786Z" transform="translate(-205.065 -150.437)"/><g transform="translate(67.256 28.378)"><path class="v" d="M284.473,212.12s9.3-3.088,12.115-9.086,2.117-7.291,2.117-7.291,5.239,7.174,13.52,8.938c6.836,1.455,6.558.444,7.232-1.147.618-1.455,1.036-11.583-9.346-17.816s-21.536-5.614-29.231,2.147-6.755,19.991-4.168,23.048S282.71,215.679,284.473,212.12Z" transform="translate(-274.841 -181.493)"/></g><path class="c" d="M272.8,183.478s-4.016.574-4.591,6.886-4.591,13.962-13.389,15.875-29.837,1.721-30.794-19.891,23.335-26.3,30.985-18.553c5.416,5.487,7.076,5.929,10.328-.382s13.835-11.651,23.939-2.383,2.838,19.6-2.135,21.127S276.228,180.7,272.8,183.478Z" transform="translate(-224.002 -160.042)"/><g transform="translate(65.746 55.094)"><path class="u" d="M273.7,209.174a7.548,7.548,0,1,0,7.549-7.486A7.518,7.518,0,0,0,273.7,209.174Z" transform="translate(-273.7 -201.688)"/><path class="ac" d="M283.686,209.209s.332-5.087-4.89-4.52" transform="translate(-272.054 -200.733)"/></g><g transform="translate(83.69 55.062)"><g transform="translate(7.429 0.001)"><path class="aj" d="M292.88,203.8a2.137,2.137,0,1,0,2.136-2.137A2.138,2.138,0,0,0,292.88,203.8Z" transform="translate(-292.88 -201.664)"/><path class="aj" d="M303.456,203.487a1.824,1.824,0,1,0,1.824-1.823A1.826,1.826,0,0,0,303.456,203.487Z" transform="translate(-289.465 -201.664)"/></g><path class="ak" d="M303.749,209.877s-1.074,3.13-3.346,3.346-4.049-2.3-4.173-4.266Z" transform="translate(-284.368 -199.309)"/><g transform="translate(0 4.684)"><path class="j" d="M287.264,210.517a5.313,5.313,0,1,0,5.313-5.313A5.313,5.313,0,0,0,287.264,210.517Z" transform="translate(-287.264 -205.204)"/><path class="j" d="M307.132,206.5a4.063,4.063,0,0,1,.938.112v5.51a11.35,11.35,0,0,1-.2,2.4,4.861,4.861,0,0,1-.74.067,4.043,4.043,0,1,1,0-8.086Z" transform="translate(-282.154 -204.786)"/></g><path class="ae" d="M300.205,201.663l-.437,7.278,3.475-2.117Z" transform="translate(-283.226 -201.663)"/></g><path class="af" d="M294.217,248.593a4.46,4.46,0,1,1-4.46-4.461A4.459,4.459,0,0,1,294.217,248.593Z" transform="translate(-204.209 -132.888)"/></g><g transform="translate(0 158.505)"><rect class="t" width="126.034" height="86.826" rx="7.86"/><path class="af" d="M151.672,209.93a3.436,3.436,0,1,1-3.436-3.436A3.436,3.436,0,0,1,151.672,209.93Z" transform="translate(-85.041 -131.137)"/><g transform="translate(8.343 1.388)"><rect class="u" width="109.348" height="66.184" rx="7.86" transform="translate(0 3.662)"/><g transform="translate(0 3.662)"><g class="al"><g transform="translate(2.07 30.918)"><g transform="translate(0 17.704)"><path class="x" d="M133.467,185.219c-20.479,0-37.081,20.884-37.081,46.645h74.162C170.548,206.1,153.947,185.219,133.467,185.219Z" transform="translate(-96.386 -185.219)"/><g transform="translate(8.206 8.586)"><path class="p" d="M121.5,196.29a2.647,2.647,0,1,1-2.647-2.647A2.647,2.647,0,0,1,121.5,196.29Z" transform="translate(-104.21 -193.643)"/><circle class="p" cx="2.941" cy="2.941" r="2.941" transform="translate(24.855 9.593)"/><path class="p" d="M145.492,196.29a2.647,2.647,0,1,1-2.647-2.647A2.647,2.647,0,0,1,145.492,196.29Z" transform="translate(-103.748 -193.643)"/><circle class="p" cx="2.28" cy="2.28" r="2.28" transform="translate(49.71 7.206)"/><path class="p" d="M112.549,207.51a2.758,2.758,0,1,1-2.757-2.757A2.757,2.757,0,0,1,112.549,207.51Z" transform="translate(-104.387 -193.429)"/><circle class="p" cx="2.941" cy="2.941" r="2.941" transform="translate(14.279 19.119)"/><circle class="p" cx="2.427" cy="2.427" r="2.427" transform="translate(42.042 19.119)"/><path class="p" d="M162.387,219.516a2.354,2.354,0,1,1-2.354-2.353A2.353,2.353,0,0,1,162.387,219.516Z" transform="translate(-103.411 -193.19)"/><path class="p" d="M109.438,220.672a2.5,2.5,0,1,1-2.5-2.5A2.5,2.5,0,0,1,109.438,220.672Z" transform="translate(-104.437 -193.17)"/><path class="p" d="M137.767,223.125a2.5,2.5,0,1,1-2.5-2.5A2.5,2.5,0,0,1,137.767,223.125Z" transform="translate(-103.891 -193.123)"/></g></g><g transform="translate(55.754)"><path class="n" d="M172.342,207.408l.739-2.487s.075-.665-.878-1.032l-15.548-5.984s-1.248-.732-1.59.165-2.762,4.861-2.762,4.861-.693,1.007.152,1.473,14.064,5.447,14.064,5.447l3.378,1.4s1.065.382,1.238-.127S172.342,207.408,172.342,207.408Z" transform="translate(-151.068 -167.276)"/><path class="u" d="M176.338,190.516s1.313-6.786.229-8.058-2.108.092-2.644,1.808-1.383,4.959-1.383,4.959l-3.4-6.843s7.568-5.515,7.849-6.521.351-1.683-.174-1.689a14.323,14.323,0,0,0-2.138.426s2.554-2.465,1.761-3.34-3.56,1.135-3.56,1.135.993-3.743.536-4.461-3.553,3.539-4.408,5.127-2.39,4.22-2.39,4.22-1.019.8-.974,1.222-1.249,1.373-1.446,1.551-1.74,3.4-3.2,6.688-3.618,7.753-3.618,7.753l-1.057,2.032s-1.129,1.653,1.22,2.325,11.642,4.481,11.642,4.481l2.946,1.133s.885,1.238,1.6-1.61S176.338,190.516,176.338,190.516Z" transform="translate(-150.99 -167.849)"/><g transform="translate(0 0.054)"><path class="am" d="M170.616,213.112c5.115-14.284,7.258-29.23,6.046-30.774-1.684-2.147-2.727,1.517-4.027,6.767l-3.4-6.843s8.161-5.554,8.161-7.767-12.8,4.048-13.922,6.376c-.723,1.5-5.063,13.733-12.388,24.366" transform="translate(-151.086 -167.784)"/><path class="am" d="M173.674,174.737s3.37-2.091,2.582-3.541-11.006,5.765-10.753,7.67" transform="translate(-150.808 -167.843)"/><path class="am" d="M172.3,172.607s2.1-4.164.895-4.677-5.5,6.411-6,8.531" transform="translate(-150.775 -167.902)"/></g><g transform="translate(0.704 30.209)"><line class="am" x1="17.697" y1="6.811" transform="translate(3.789)"/><line class="am" x1="19.169" y1="7.944" transform="translate(0 6.256)"/><g transform="translate(3.244 0.889)"><line class="am" x1="2.734" y2="7.148" transform="translate(13.217 5.04)"/><line class="am" x1="2.737" y2="7.047" transform="translate(9.821 3.735)"/><line class="am" x1="2.666" y2="6.954" transform="translate(6.713 2.38)"/><line class="am" x1="2.422" y2="6.94" transform="translate(3.438 1.082)"/><line class="am" x1="2.897" y2="6.674"/></g></g></g></g></g></g><g transform="translate(21.752)"><path class="an" d="M118.446,164.834a5.615,5.615,0,1,0,5.614-5.568A5.592,5.592,0,0,0,118.446,164.834Z" transform="translate(-115.643 -133.435)"/><path class="ao" d="M140.94,186.758c0,2.582-3.592,4.674-8.023,4.674s-8.022-2.093-8.022-4.674,3.592-4.674,8.022-4.674S140.94,184.177,140.94,186.758Z" transform="translate(-115.519 -132.995)"/><path class="x" d="M142.74,147.775h-7.052c-4.689,0-8.524,4.369-8.524,9.707v10.932c0,.309.015.613.041.913a4.328,4.328,0,0,0-.12,1v13.681a4.4,4.4,0,0,0,4.39,4.39h2.8a4.4,4.4,0,0,0,4.391-4.39V178.12h4.077c4.689,0,8.525-4.368,8.525-9.707V157.482C151.265,152.144,147.429,147.775,142.74,147.775Z" transform="translate(-115.477 -133.656)"/><g transform="translate(16.151 25.807)"><g transform="translate(5.525)"><path class="ap" d="M136.962,160.832a1.59,1.59,0,1,0,1.59-1.59A1.59,1.59,0,0,0,136.962,160.832Z" transform="translate(-136.962 -159.242)"/><path class="ap" d="M147.173,160.6a1.357,1.357,0,1,0,1.357-1.358A1.357,1.357,0,0,0,147.173,160.6Z" transform="translate(-136.765 -159.242)"/></g><path class="aq" d="M145.79,166.968s-.8,2.328-2.488,2.488-3.013-1.712-3.1-3.173Z" transform="translate(-131.374 -159.106)"/><g transform="translate(0 3.484)"><circle class="j" cx="3.951" cy="3.951" r="3.951"/><path class="j" d="M149.825,163.91a3.023,3.023,0,0,1,.7.085v4.1a8.488,8.488,0,0,1-.147,1.782,3.633,3.633,0,0,1-.551.05,3.007,3.007,0,0,1,0-6.015Z" transform="translate(-131.247 -162.637)"/></g><path class="g" d="M143.938,159.242l-.325,5.413,2.585-1.575Z" transform="translate(-131.309 -159.242)"/></g><path class="v" d="M129.308,163.215l1.224-6.634s6.866,2.2,12.115-2.011-3.368-5.9-1.977-2.767,6.2,4.421,12.161,3.764c8.866-.977,9.088-11.688,3.993-14.832s-10.859.553-10.859.553,2.654-5.313-3.98-7.085c-5.454-1.456-9.537,3.161-10.138,5.2,0,0-8.987.886-12.985,6.531a15.92,15.92,0,0,0-.363,18.552,36.768,36.768,0,0,0,8.655,9.47S127.924,165.992,129.308,163.215Z" transform="translate(-115.696 -133.923)"/><g transform="translate(2.803 25.831)"><path class="u" d="M118.446,164.834a5.615,5.615,0,1,0,5.614-5.568A5.592,5.592,0,0,0,118.446,164.834Z" transform="translate(-118.446 -159.266)"/><path class="ar" d="M127,165.515s.247-3.783-3.638-3.363" transform="translate(-118.351 -159.211)"/></g></g><rect class="a" width="109.348" height="66.184" rx="7.86" transform="translate(0 3.662)"/><rect class="c" width="109.348" height="66.184" rx="7.86" transform="translate(0 3.662)"/></g></g><g transform="translate(236.165 125.788)"><g transform="translate(0 10.865)"><rect class="t" width="206.322" height="142.137" rx="7.933"/><path class="af" d="M363.6,358.156a5.625,5.625,0,1,1-5.624-5.624A5.625,5.625,0,0,1,363.6,358.156Z" transform="translate(-254.522 -229.169)"/></g><g transform="translate(13.657)"><rect class="u" width="179.008" height="108.346" rx="7.933" transform="translate(0 19.131)"/><g transform="translate(0 19.131)"><g class="as"><g transform="translate(-33.341 71.831)"><path class="at" d="M296.832,360.127s27.029-25.814,55.8-31.142,86.379-4.8,117.564,36.426-45.456,77.7-47.571,77.959S296.038,422.8,291.282,419.209,268.554,394.22,296.832,360.127Z" transform="translate(-281.271 -326.189)"/><g transform="translate(26.296)"><path class="at" d="M403.827,339.046s46.612,93.638,36.178,111.525-87.659,34.948-126.2,15.4c-45.068-22.856,14.226-117.746,28.229-139.612Z" transform="translate(-297.176 -326.362)"/><path class="u" d="M317.979,351.107a10.671,10.671,0,1,0,10.672-10.672A10.672,10.672,0,0,0,317.979,351.107Z" transform="translate(-283.587 -317.169)"/></g></g></g></g><rect class="c" width="179.008" height="108.346" rx="7.933" transform="translate(0 19.131)"/><g transform="translate(15.546)"><ellipse class="au" cx="24.333" cy="37.629" rx="24.333" ry="37.629" transform="translate(13.248 114.896) rotate(-84.148)"/><g transform="translate(22.266)"><g transform="translate(7.035)"><path class="av" d="M330.989,309.971a9.854,9.854,0,1,0,9.853-9.772A9.814,9.814,0,0,0,330.989,309.971Z" transform="translate(-326.98 -252.491)"/><path class="aw" d="M367.81,287.767H355.434c-8.228,0-14.96,7.664-14.96,17.033v19.184c0,.541.028,1.075.073,1.6a7.619,7.619,0,0,0-.212,1.757v24.008a7.727,7.727,0,0,0,7.7,7.706h4.91a7.727,7.727,0,0,0,7.7-7.706V341.018h7.157c8.228,0,14.96-7.664,14.96-17.033V304.8C382.771,295.431,376.039,287.767,367.81,287.767Z" transform="translate(-320.875 -260.612)"/><g transform="translate(27.433 47.666)"><g transform="translate(9.696 0.001)"><path class="aj" d="M351.023,302.963a2.79,2.79,0,1,0,2.789-2.789A2.79,2.79,0,0,0,351.023,302.963Z" transform="translate(-351.023 -300.174)"/><path class="aj" d="M362.07,302.555a2.382,2.382,0,1,0,2.382-2.381A2.382,2.382,0,0,0,362.07,302.555Z" transform="translate(-343.807 -300.174)"/></g><path class="ax" d="M364.337,308.993s-1.4,4.085-4.366,4.366-5.287-3-5.447-5.568Z" transform="translate(-339.04 -295.198)"/><g transform="translate(0 6.114)"><path class="j" d="M345.158,310.806a6.934,6.934,0,1,0,6.934-6.934A6.934,6.934,0,0,0,345.158,310.806Z" transform="translate(-345.158 -303.872)"/><path class="j" d="M366.963,305.224a5.243,5.243,0,0,1,1.225.149v7.192a14.773,14.773,0,0,1-.258,3.126,6.2,6.2,0,0,1-.967.089,5.278,5.278,0,0,1,0-10.556Z" transform="translate(-334.361 -302.989)"/></g><path class="ae" d="M358.789,300.174l-.571,9.5,4.536-2.764Z" transform="translate(-336.627 -300.174)"/></g><path class="v" d="M351.407,328.508l2.283-15.028s41.576,5.213,55.053-14.983-.684-28.191-7.539-27.049-14.864,10.966-14.864,10.966,6.378-8.681,0-10.052-13.426,5.254-17.1,12.107c0,0-27.4-2.554-36.669,14.028s-1.756,28.347,15.188,45.479l1.133-9.582Z" transform="translate(-328.564 -271.342)"/><g transform="translate(4.009 47.708)"><path class="u" d="M330.989,309.971a9.854,9.854,0,1,0,9.853-9.772A9.814,9.814,0,0,0,330.989,309.971Z" transform="translate(-330.989 -300.199)"/><path class="ay" d="M342.7,309.245s.433-6.638-6.383-5.9" transform="translate(-327.512 -298.182)"/></g></g><g transform="translate(0 4.474)"><path class="az" d="M372.022,282.7s-27.4,28.305-38.75,36.92c0,0-14.772-32.691-6.387-41.814C333.609,270.49,366.409,274.787,372.022,282.7Z" transform="translate(-324.309 -274.048)"/><line class="ba" x1="33.4" y2="32.92" transform="translate(5.258 3.329)"/></g></g><g transform="translate(34.012 82.405)"><path class="b" d="M375,322.257l4.465,16.575-33.817,10.71L343.9,342.62l-12.49-7.423,5.171-13.988,14.792,11.5.975.805s.539.916,3.278-.592Z" transform="translate(-331.414 -321.171)"/><g transform="translate(4.371)"><path class="bb" d="M371.385,321.41l-32.244,17.751-.2,4.213" transform="translate(-330.865 -321.04)"/><line class="ba" x2="17.58" y2="12.998"/></g></g><g transform="translate(0 99.033)"><path class="ba" d="M349.224,332.871S326.408,348,310.841,341.924" transform="translate(-310.841 -330.18)"/><circle class="ba" cx="2.546" cy="2.546" r="2.546" transform="translate(35.276)"/><g transform="translate(66.971 5.706)"><path class="ba" d="M351.35,337.319a2.623,2.623,0,1,0,2.624-2.624A2.623,2.623,0,0,0,351.35,337.319Z" transform="translate(-351.35 -334.695)"/><path class="ba" d="M352.937,336.282s9.308,26.865,25.564,34.675" transform="translate(-350.313 -333.658)"/></g></g></g></g></g></g></g></g></g></svg>