<svg xmlns="http://www.w3.org/2000/svg" xmlns:xlink="http://www.w3.org/1999/xlink" width="42" height="42" viewBox="0 0 42 42"><defs><style>.a{fill:#333;}.b{fill:url(#a);}.c{fill:url(#b);}.d{fill:url(#c);}.e{fill:url(#d);}.f{fill:#489a48;}.g{fill:#3c7a3c;}</style><linearGradient id="a" x1="1.024" y1="0.5" x2="-0.094" y2="0.5" gradientUnits="objectBoundingBox"><stop offset="0" stop-color="#fff3be"/><stop offset="0.572" stop-color="#ffd15b"/><stop offset="1" stop-color="#eca026"/></linearGradient><linearGradient id="b" x1="2.224" x2="-0.08" xlink:href="#a"/><linearGradient id="c" x1="0.968" y1="0.5" x2="0.11" y2="0.5" gradientUnits="objectBoundingBox"><stop offset="0" stop-color="#fff"/><stop offset="1" stop-color="#f9f3f1"/></linearGradient><linearGradient id="d" x1="0.916" y1="0.5" x2="-1.284" y2="0.5" gradientUnits="objectBoundingBox"><stop offset="0" stop-color="#f8f6f7"/><stop offset="1" stop-color="#d1ceeb"/></linearGradient></defs><path class="a" d="M112.784,320.495l3.074-3.074-4.187-4.187-3.074,3.074Z" transform="translate(-82.801 -287.438)"/><path class="a" d="M142.845,315a16.5,16.5,0,0,1-3.074,3.074l-1.765-1.766,3.074-3.074Z" transform="translate(-112.21 -287.437)"/><ellipse class="b" cx="16.408" cy="16.408" rx="16.408" ry="16.408" transform="translate(0 0)"/><path class="c" d="M307.157,0q.834,0,1.648.082a16.409,16.409,0,0,0,0,32.652q-.813.081-1.648.082a16.408,16.408,0,0,1,0-32.816Z" transform="translate(-290.749)"/><ellipse class="d" cx="11.589" cy="11.589" rx="11.589" ry="11.589" transform="translate(4.819 4.819)"/><path class="e" d="M302.338,58.515a11.68,11.68,0,0,1,1.648.117,11.59,11.59,0,0,0,0,22.944,11.59,11.59,0,1,1-1.648-23.061Z" transform="translate(-285.93 -53.696)"/><path class="f" d="M12.455,355.957a4.29,4.29,0,0,0-.515-6.506l-7.868-5.706a1.275,1.275,0,0,0-1.65.131L.373,345.924a1.275,1.275,0,0,0-.131,1.65l5.706,7.868a4.29,4.29,0,0,0,6.506.515Z" transform="translate(28.288 -315.214)"/><path class="g" d="M32.239,345.925l2.048-2.048a1.275,1.275,0,0,1,1.65-.131l1.049.761-1.418,1.418a1.275,1.275,0,0,0-.131,1.65l5.706,7.868a4.262,4.262,0,0,0,1.809,1.437,4.292,4.292,0,0,1-5.139-1.437l-5.706-7.868A1.275,1.275,0,0,1,32.239,345.925Z" transform="translate(-3.578 -315.215)"/></svg>