<svg xmlns="http://www.w3.org/2000/svg" xmlns:xlink="http://www.w3.org/1999/xlink" width="150.541" height="245.837" viewBox="0 0 150.541 245.837"><defs><style>.a{fill:none;}.b{fill:#3c7a3c;}.c{clip-path:url(#a);}.d{fill:#23385c;}</style><clipPath id="a"><path class="a" d="M347.672,38.371,104.221,39.9a50.673,50.673,0,0,0,12.022,41.335c9.587,10.736,23.688,17.219,31.438,29.346,9.7,15.181,7.205,35.678,16.43,51.152,6.432,10.791,17.859,17.762,29.716,21.914a94.408,94.408,0,0,0,46.766,3.947c6.364-1.082,12.829-2.93,17.789-7.063,7.449-6.207,10.185-16.382,11.389-26s1.349-19.608,5.237-28.491c5.178-11.831,16.4-20.067,28.311-25.05,7.712-3.224,15.925-5.347,23.167-9.521C344.292,81.206,353.523,58.073,347.672,38.371Z"/></clipPath></defs><g transform="translate(188.912 -103.588) rotate(90)"><path class="b" d="M322.75,103.829c-6.29,12.333-24.286,15.318-36.051,8.038-8.168-5.053-13.818-13.833-22.656-17.6-5.707-2.431-12.1-2.49-18.2-3.64a51.538,51.538,0,0,1-31.887-20.894,47,47,0,0,1-5.78-10.571H323.842q.721,11.161,1.456,22.336C325.794,89.065,326.2,97.073,322.75,103.829Z"/><g class="c"><path class="d" d="M359.112,68.569a.941.941,0,0,0-.922.751.988.988,0,0,0-.019.19.941.941,0,0,0,1.882,0,.914.914,0,0,0-.019-.19A.942.942,0,0,0,359.112,68.569Z"/><path class="d" d="M359.112,61.041a.941.941,0,1,0-.941-.942A.942.942,0,0,0,359.112,61.041Z"/><path class="d" d="M355.348,64.805a.941.941,0,1,0-.941.941A.941.941,0,0,0,355.348,64.805Z"/><path class="d" d="M364.5,64.158a.943.943,0,1,0,.026,1.262C364.516,65,364.51,64.578,364.5,64.158Z"/><path class="d" d="M350.228,68.73a.932.932,0,0,0-.526-.161.941.941,0,0,0-.922.751.914.914,0,0,0-.019.19.941.941,0,0,0,1.882,0,.988.988,0,0,0-.019-.19A.94.94,0,0,0,350.228,68.73Z"/><path class="d" d="M350.228,59.319a.941.941,0,1,0,.415.78A.939.939,0,0,0,350.228,59.319Z"/><path class="d" d="M359.112,87.39a.94.94,0,0,0-.941.94.927.927,0,0,0,.074.366.941.941,0,0,0,1.734,0,.941.941,0,0,0-.087-.892A.939.939,0,0,0,359.112,87.39Z"/><path class="d" d="M359.112,79.862a.942.942,0,1,0-.941-.942A.943.943,0,0,0,359.112,79.862Z"/><path class="d" d="M355.348,83.626a.941.941,0,1,0-.941.94A.941.941,0,0,0,355.348,83.626Z"/><path class="d" d="M362.876,83.626a.939.939,0,0,0,.72.912c.072-.618.148-1.234.212-1.853A.94.94,0,0,0,362.876,83.626Z"/><path class="d" d="M354.407,73.273a.941.941,0,1,0,.941.942A.941.941,0,0,0,354.407,73.273Z"/><path class="d" d="M362.876,74.215a.937.937,0,0,0,1.515.741c.023-.478.036-.958.054-1.438a.937.937,0,0,0-1.569.7Z"/><path class="d" d="M350.482,87.8a.942.942,0,0,0-1.56,0,.941.941,0,0,0,1.306,1.306.94.94,0,0,0,.415-.78A.931.931,0,0,0,350.482,87.8Z"/><path class="d" d="M350.228,78.14a.941.941,0,0,0-1.467.78.941.941,0,1,0,1.467-.78Z"/><path class="d" d="M359.112,106.21a.942.942,0,0,0-.922.751,1,1,0,0,0-.019.19.939.939,0,0,0,.605.876c.177-.6.359-1.195.529-1.8A.943.943,0,0,0,359.112,106.21Z"/><path class="d" d="M359.112,98.682a.941.941,0,1,0-.941-.941A.942.942,0,0,0,359.112,98.682Z"/><path class="d" d="M354.407,101.5a.941.941,0,1,0,.941.941A.941.941,0,0,0,354.407,101.5Z"/><path class="d" d="M354.407,92.094a.941.941,0,1,0,.941.942A.941.941,0,0,0,354.407,92.094Z"/><path class="d" d="M350.228,96.961a.941.941,0,0,0-1.467.78.941.941,0,0,0,.941.941.932.932,0,0,0,.526-.161.941.941,0,0,0,0-1.56Z"/><path class="d" d="M353.466,121.267a.935.935,0,0,0,.341.72c.23-.549.454-1.1.676-1.654-.025,0-.05-.008-.076-.008A.941.941,0,0,0,353.466,121.267Z"/><path class="d" d="M353.466,111.857a.941.941,0,1,0,.941-.942A.94.94,0,0,0,353.466,111.857Z"/><path class="d" d="M350.228,115.781a.941.941,0,1,0,.415.78A.939.939,0,0,0,350.228,115.781Z"/><path class="d" d="M340.292,68.569a.941.941,0,0,0-.922.751.988.988,0,0,0-.019.19.941.941,0,0,0,1.882,0,.914.914,0,0,0-.019-.19A.942.942,0,0,0,340.292,68.569Z"/><path class="d" d="M340.292,61.041a.941.941,0,1,0-.941-.942A.942.942,0,0,0,340.292,61.041Z"/><path class="d" d="M335.587,63.863a.942.942,0,1,0,.941.942A.94.94,0,0,0,335.587,63.863Z"/><path class="d" d="M345,65.746a.942.942,0,1,0-.941-.941A.942.942,0,0,0,345,65.746Z"/><path class="d" d="M331.072,68.588a.948.948,0,0,0-.556.055.943.943,0,0,0-.556.677.914.914,0,0,0-.019.19.941.941,0,0,0,.575.866.948.948,0,0,0,.556.055.942.942,0,0,0,.751-.921.985.985,0,0,0-.019-.19A.944.944,0,0,0,331.072,68.588Z"/><path class="d" d="M341.072,87.8a.941.941,0,0,0-1.721.526.928.928,0,0,0,.074.366.941.941,0,0,0,1.734,0,.941.941,0,0,0-.087-.892Z"/><path class="d" d="M340.292,77.979a.942.942,0,1,0,.941.941A.941.941,0,0,0,340.292,77.979Z"/><path class="d" d="M335.587,82.684a.941.941,0,1,0,.941.942A.94.94,0,0,0,335.587,82.684Z"/><path class="d" d="M345,82.684a.941.941,0,1,0,.941.942A.941.941,0,0,0,345,82.684Z"/><path class="d" d="M335.587,73.273a.941.941,0,1,0,.941.942A.941.941,0,0,0,335.587,73.273Z"/><path class="d" d="M345,73.273a.941.941,0,1,0,.941.942A.941.941,0,0,0,345,73.273Z"/><path class="d" d="M331.662,87.8a.939.939,0,0,0-.59-.4.921.921,0,0,0-.19-.019.945.945,0,0,0-.366.073.955.955,0,0,0-.415.341.938.938,0,0,0-.16.526.927.927,0,0,0,.074.366.941.941,0,0,0,.867.575,1,1,0,0,0,.19-.019.941.941,0,0,0,.59-1.448Z"/><path class="d" d="M331.072,78a1,1,0,0,0-.19-.019.942.942,0,1,0,0,1.883,1,1,0,0,0,.19-.019.942.942,0,0,0,0-1.845Z"/><path class="d" d="M340.292,106.21a.942.942,0,0,0-.922.751,1,1,0,0,0-.019.19.941.941,0,1,0,1.882,0,.921.921,0,0,0-.019-.19A.943.943,0,0,0,340.292,106.21Z"/><path class="d" d="M340.292,96.8a.941.941,0,1,0,.941.941A.941.941,0,0,0,340.292,96.8Z"/><path class="d" d="M335.587,101.5a.941.941,0,1,0,.941.941A.94.94,0,0,0,335.587,101.5Z"/><path class="d" d="M345,101.5a.941.941,0,1,0,.941.941A.941.941,0,0,0,345,101.5Z"/><path class="d" d="M335.587,92.094a.941.941,0,1,0,.941.942A.94.94,0,0,0,335.587,92.094Z"/><path class="d" d="M345,92.094a.941.941,0,1,0,.941.942A.941.941,0,0,0,345,92.094Z"/><path class="d" d="M331.072,106.229a1,1,0,0,0-.19-.019.941.941,0,0,0-.922.751.921.921,0,0,0-.019.19.941.941,0,0,0,.941.941.921.921,0,0,0,.19-.02.941.941,0,0,0,.751-.921.993.993,0,0,0-.019-.19A.945.945,0,0,0,331.072,106.229Z"/><path class="d" d="M331.072,96.819a.948.948,0,0,0-.556.055.941.941,0,0,0,0,1.734.948.948,0,0,0,.556.055.941.941,0,0,0,0-1.844Z"/><path class="d" d="M340.292,125.031a.942.942,0,1,0,.78.415A.938.938,0,0,0,340.292,125.031Z"/><path class="d" d="M340.292,115.621a.941.941,0,1,0,.941.94A.94.94,0,0,0,340.292,115.621Z"/><path class="d" d="M336.528,121.267a.941.941,0,1,0-.941.941A.941.941,0,0,0,336.528,121.267Z"/><path class="d" d="M345,120.325a.942.942,0,1,0,.941.942A.941.941,0,0,0,345,120.325Z"/><path class="d" d="M335.587,110.915a.941.941,0,1,0,.941.942A.94.94,0,0,0,335.587,110.915Z"/><path class="d" d="M345,110.915a.941.941,0,1,0,.941.942A.941.941,0,0,0,345,110.915Z"/><path class="d" d="M331.662,125.446a.94.94,0,0,0-.59-.4,1,1,0,0,0-.19-.019.928.928,0,0,0-.366.074.938.938,0,0,0-.575.867.941.941,0,0,0,.941.94.921.921,0,0,0,.19-.019.941.941,0,0,0,.677-.555.953.953,0,0,0,.074-.366A.939.939,0,0,0,331.662,125.446Z"/><path class="d" d="M349.7,108.092a.942.942,0,0,0,.941-.941,1,1,0,0,0-.019-.19.941.941,0,0,0-1.844,0,.921.921,0,0,0-.019.19A.941.941,0,0,0,349.7,108.092Z"/><path class="d" d="M340.292,143.852a.941.941,0,0,0-.922.751.978.978,0,0,0-.019.189.941.941,0,1,0,1.882,0,.9.9,0,0,0-.019-.189A.942.942,0,0,0,340.292,143.852Z"/><path class="d" d="M340.292,136.324a.942.942,0,1,0-.941-.942A.943.943,0,0,0,340.292,136.324Z"/><path class="d" d="M335.587,139.146a.942.942,0,1,0,.941.942A.94.94,0,0,0,335.587,139.146Z"/><path class="d" d="M344.056,140.088a.934.934,0,0,0,.229.609c.308-.507.6-1.02.906-1.531a.953.953,0,0,0-.194-.02A.941.941,0,0,0,344.056,140.088Z"/><path class="d" d="M335.587,129.736a.941.941,0,1,0,.941.941A.94.94,0,0,0,335.587,129.736Z"/><path class="d" d="M344.056,130.677a.941.941,0,1,0,.941-.941A.941.941,0,0,0,344.056,130.677Z"/><path class="d" d="M331.072,143.871a.948.948,0,0,0-.556.055.943.943,0,0,0-.556.677.9.9,0,0,0-.019.189.941.941,0,0,0,.575.867.928.928,0,0,0,.366.074,1,1,0,0,0,.19-.019.942.942,0,0,0,.751-.922.975.975,0,0,0-.019-.189A.942.942,0,0,0,331.072,143.871Z"/><path class="d" d="M331.072,134.461a.921.921,0,0,0-.19-.02.942.942,0,0,0-.366,1.809.928.928,0,0,0,.366.074.994.994,0,0,0,.19-.019.941.941,0,0,0,0-1.844Z"/><path class="d" d="M349.7,126.912a.939.939,0,0,0,.526-.16.94.94,0,0,0,.415-.78.941.941,0,1,0-1.808.366A.942.942,0,0,0,349.7,126.912Z"/><path class="d" d="M334.646,149.5a.941.941,0,1,0,.941-.942A.94.94,0,0,0,334.646,149.5Z"/><path class="d" d="M331.072,155.126a.942.942,0,0,0,0-1.845.994.994,0,0,0-.19-.019.928.928,0,0,0-.366.074.941.941,0,0,0,0,1.734.928.928,0,0,0,.366.075A1,1,0,0,0,331.072,155.126Z"/><path class="d" d="M321.472,68.569a.941.941,0,0,0-.922.751.988.988,0,0,0-.019.19.941.941,0,0,0,1.882,0,.988.988,0,0,0-.019-.19A.942.942,0,0,0,321.472,68.569Z"/><path class="d" d="M330.516,60.967a.928.928,0,0,0,.366.074,1,1,0,0,0,.19-.019.941.941,0,0,0,0-1.844.921.921,0,0,0-.19-.02.942.942,0,0,0-.366,1.809Z"/><path class="d" d="M321.472,61.041a.941.941,0,1,0-.941-.942A.942.942,0,0,0,321.472,61.041Z"/><path class="d" d="M316.767,65.746a.942.942,0,1,0-.941-.941A.942.942,0,0,0,316.767,65.746Z"/><path class="d" d="M326.177,65.746a.942.942,0,1,0-.941-.941A.942.942,0,0,0,326.177,65.746Z"/><path class="d" d="M312.984,69.32a.944.944,0,0,0-.4-.59.943.943,0,0,0-.893-.087.943.943,0,0,0-.555.677.914.914,0,0,0-.019.19.939.939,0,0,0,.941.94.942.942,0,0,0,.941-.94A.988.988,0,0,0,312.984,69.32Z"/><path class="d" d="M322.252,87.8a.941.941,0,0,0-1.721.526.927.927,0,0,0,.074.366.941.941,0,0,0,1.734,0,.941.941,0,0,0-.087-.892Z"/><path class="d" d="M321.472,77.979a.942.942,0,1,0,.941.941A.941.941,0,0,0,321.472,77.979Z"/><path class="d" d="M316.767,82.684a.941.941,0,1,0,.941.942A.94.94,0,0,0,316.767,82.684Z"/><path class="d" d="M326.177,82.684a.941.941,0,1,0,.941.942A.941.941,0,0,0,326.177,82.684Z"/><path class="d" d="M316.767,73.273a.941.941,0,1,0,.941.942A.941.941,0,0,0,316.767,73.273Z"/><path class="d" d="M326.177,73.273a.941.941,0,1,0,.941.942A.941.941,0,0,0,326.177,73.273Z"/><path class="d" d="M312.842,87.8a.96.96,0,0,0-.254-.254.939.939,0,0,0-.526-.16.934.934,0,0,0-.781.414.938.938,0,0,0-.16.526.927.927,0,0,0,.074.366.943.943,0,0,0,.5.5.954.954,0,0,0,.367.074.932.932,0,0,0,.526-.161.94.94,0,0,0,.254-1.306Z"/><path class="d" d="M312.588,78.14a.932.932,0,0,0-.526-.161.954.954,0,0,0-.367.074.943.943,0,0,0,0,1.735.954.954,0,0,0,.367.074.941.941,0,0,0,.526-1.722Z"/><path class="d" d="M321.472,106.21a.942.942,0,0,0-.922.751,1,1,0,0,0-.019.19.941.941,0,1,0,1.882,0,1,1,0,0,0-.019-.19A.943.943,0,0,0,321.472,106.21Z"/><path class="d" d="M321.472,96.8a.941.941,0,1,0,.941.941A.941.941,0,0,0,321.472,96.8Z"/><path class="d" d="M316.767,101.5a.941.941,0,1,0,.941.941A.94.94,0,0,0,316.767,101.5Z"/><path class="d" d="M326.177,101.5a.941.941,0,1,0,.941.941A.941.941,0,0,0,326.177,101.5Z"/><path class="d" d="M316.767,92.094a.941.941,0,1,0,.941.942A.94.94,0,0,0,316.767,92.094Z"/><path class="d" d="M326.177,92.094a.941.941,0,1,0,.941.942A.941.941,0,0,0,326.177,92.094Z"/><path class="d" d="M312.984,106.961a.941.941,0,0,0-1.844,0,.921.921,0,0,0-.019.19.942.942,0,0,0,.574.867.954.954,0,0,0,.367.074.942.942,0,0,0,.941-.941A1,1,0,0,0,312.984,106.961Z"/><path class="d" d="M312.588,96.961a.943.943,0,0,0-.893-.087.941.941,0,0,0,.367,1.808.932.932,0,0,0,.526-.161.941.941,0,0,0,0-1.56Z"/><path class="d" d="M322.252,125.446a.941.941,0,1,0,.161.526A.939.939,0,0,0,322.252,125.446Z"/><path class="d" d="M329.941,116.561a.942.942,0,0,0,.575.868.948.948,0,0,0,.556.055.941.941,0,0,0,0-1.844.948.948,0,0,0-.556.055A.94.94,0,0,0,329.941,116.561Z"/><path class="d" d="M321.472,115.621a.941.941,0,1,0,.941.94A.94.94,0,0,0,321.472,115.621Z"/><path class="d" d="M316.767,120.325a.942.942,0,1,0,.941.942A.94.94,0,0,0,316.767,120.325Z"/><path class="d" d="M326.177,120.325a.942.942,0,1,0,.941.942A.941.941,0,0,0,326.177,120.325Z"/><path class="d" d="M316.767,110.915a.941.941,0,1,0,.941.942A.94.94,0,0,0,316.767,110.915Z"/><path class="d" d="M326.177,110.915a.941.941,0,1,0,.941.942A.941.941,0,0,0,326.177,110.915Z"/><path class="d" d="M312.842,125.446a.945.945,0,0,0-.254-.254.943.943,0,0,0-.893-.087.951.951,0,0,0-.414.341.942.942,0,0,0,1.307,1.306.94.94,0,0,0,.415-.78A.939.939,0,0,0,312.842,125.446Z"/><path class="d" d="M312.588,115.781a.941.941,0,1,0,.415.78A.939.939,0,0,0,312.588,115.781Z"/><path class="d" d="M321.472,143.852a.941.941,0,0,0-.922.751.978.978,0,0,0-.019.189.941.941,0,1,0,1.882,0,.978.978,0,0,0-.019-.189A.942.942,0,0,0,321.472,143.852Z"/><path class="d" d="M321.472,134.441a.942.942,0,1,0,.941.941A.941.941,0,0,0,321.472,134.441Z"/><path class="d" d="M316.767,139.146a.942.942,0,1,0,.941.942A.94.94,0,0,0,316.767,139.146Z"/><path class="d" d="M326.177,139.146a.942.942,0,1,0,.941.942A.941.941,0,0,0,326.177,139.146Z"/><path class="d" d="M316.767,129.736a.941.941,0,1,0,.941.941A.94.94,0,0,0,316.767,129.736Z"/><path class="d" d="M326.177,129.736a.941.941,0,1,0,.941.941A.941.941,0,0,0,326.177,129.736Z"/><path class="d" d="M312.984,144.6a.949.949,0,0,0-.4-.591.942.942,0,0,0-1.448.591.9.9,0,0,0-.019.189.939.939,0,0,0,.941.941.942.942,0,0,0,.941-.941A.978.978,0,0,0,312.984,144.6Z"/><path class="d" d="M312.588,134.6a.939.939,0,0,0-.526-.161.954.954,0,0,0-.367.074.942.942,0,0,0,.367,1.809.932.932,0,0,0,.526-.161.941.941,0,0,0,0-1.561Z"/><path class="d" d="M322.252,163.087a.941.941,0,0,0-1.56,0,.941.941,0,0,0,.78,1.467.942.942,0,0,0,.867-.575.941.941,0,0,0-.087-.892Z"/><path class="d" d="M321.472,153.262a.942.942,0,1,0,.941.941A.941.941,0,0,0,321.472,153.262Z"/><path class="d" d="M316.767,157.967a.941.941,0,1,0,.941.942A.94.94,0,0,0,316.767,157.967Z"/><path class="d" d="M326.177,157.967a.941.941,0,1,0,.941.942A.941.941,0,0,0,326.177,157.967Z"/><path class="d" d="M316.767,148.556a.941.941,0,1,0,.941.942A.94.94,0,0,0,316.767,148.556Z"/><path class="d" d="M325.236,149.5a.941.941,0,1,0,.941-.942A.941.941,0,0,0,325.236,149.5Z"/><path class="d" d="M312.842,163.087a.96.96,0,0,0-.254-.254.939.939,0,0,0-.526-.161.94.94,0,0,0-.781.415.938.938,0,0,0-.16.526.927.927,0,0,0,.074.366.941.941,0,1,0,1.647-.892Z"/><path class="d" d="M312.588,153.423a.943.943,0,0,0-.893-.087.942.942,0,1,0,.893.087Z"/><path class="d" d="M315.826,168.319a.941.941,0,1,0,.941-.942A.941.941,0,0,0,315.826,168.319Z"/><path class="d" d="M312.588,172.243a.941.941,0,1,0,.415.781A.939.939,0,0,0,312.588,172.243Z"/><path class="d" d="M302.652,68.569a.941.941,0,0,0-.922.751.985.985,0,0,0-.019.19.941.941,0,0,0,1.882,0,.988.988,0,0,0-.019-.19A.942.942,0,0,0,302.652,68.569Z"/><path class="d" d="M311.7,60.967a.942.942,0,1,0,.367-1.809.954.954,0,0,0-.367.074.943.943,0,0,0,0,1.735Z"/><path class="d" d="M302.652,61.041a.941.941,0,1,0-.941-.942A.942.942,0,0,0,302.652,61.041Z"/><path class="d" d="M297.946,63.863a.942.942,0,1,0,.942.942A.94.94,0,0,0,297.946,63.863Z"/><path class="d" d="M307.357,65.746a.942.942,0,1,0-.941-.941A.942.942,0,0,0,307.357,65.746Z"/><path class="d" d="M294.163,69.32a.941.941,0,0,0-1.843,0,.914.914,0,0,0-.019.19.941.941,0,0,0,1.882,0A.914.914,0,0,0,294.163,69.32Z"/><path class="d" d="M303.432,87.8a.941.941,0,0,0-1.721.526.927.927,0,0,0,.074.366.941.941,0,0,0,1.734,0,.941.941,0,0,0-.087-.892Z"/><path class="d" d="M302.652,77.979a.942.942,0,1,0,.941.941A.94.94,0,0,0,302.652,77.979Z"/><path class="d" d="M297.946,82.684a.941.941,0,1,0,.942.942A.94.94,0,0,0,297.946,82.684Z"/><path class="d" d="M307.357,82.684a.941.941,0,1,0,.941.942A.941.941,0,0,0,307.357,82.684Z"/><path class="d" d="M297.946,73.273a.941.941,0,1,0,.942.942A.941.941,0,0,0,297.946,73.273Z"/><path class="d" d="M307.357,73.273a.941.941,0,1,0,.941.942A.941.941,0,0,0,307.357,73.273Z"/><path class="d" d="M294.022,87.8a.959.959,0,0,0-.254-.254.94.94,0,0,0-1.467.78.927.927,0,0,0,.074.366.941.941,0,1,0,1.647-.892Z"/><path class="d" d="M293.768,78.14a.941.941,0,0,0-1.467.78.941.941,0,1,0,1.467-.78Z"/><path class="d" d="M302.652,106.21a.942.942,0,0,0-.922.751.993.993,0,0,0-.019.19.941.941,0,1,0,1.882,0,1,1,0,0,0-.019-.19A.943.943,0,0,0,302.652,106.21Z"/><path class="d" d="M302.652,96.8a.941.941,0,1,0,.941.941A.94.94,0,0,0,302.652,96.8Z"/><path class="d" d="M297.946,101.5a.941.941,0,1,0,.942.941A.94.94,0,0,0,297.946,101.5Z"/><path class="d" d="M307.357,101.5a.941.941,0,1,0,.941.941A.941.941,0,0,0,307.357,101.5Z"/><path class="d" d="M297.946,92.094a.941.941,0,1,0,.942.942A.94.94,0,0,0,297.946,92.094Z"/><path class="d" d="M307.357,92.094a.941.941,0,1,0,.941.942A.941.941,0,0,0,307.357,92.094Z"/><path class="d" d="M294.163,106.961a.941.941,0,0,0-1.843,0,.921.921,0,0,0-.019.19.941.941,0,0,0,1.882,0A.921.921,0,0,0,294.163,106.961Z"/><path class="d" d="M293.768,96.961a.941.941,0,0,0-1.467.78.941.941,0,0,0,.941.941.932.932,0,0,0,.526-.161.941.941,0,0,0,0-1.56Z"/><path class="d" d="M303.432,125.446a.941.941,0,1,0,.161.526A.939.939,0,0,0,303.432,125.446Z"/><path class="d" d="M302.652,115.621a.941.941,0,1,0,.941.94A.94.94,0,0,0,302.652,115.621Z"/><path class="d" d="M297.946,120.325a.942.942,0,1,0,.942.942A.94.94,0,0,0,297.946,120.325Z"/><path class="d" d="M307.357,120.325a.942.942,0,1,0,.941.942A.941.941,0,0,0,307.357,120.325Z"/><path class="d" d="M297.946,110.915a.941.941,0,1,0,.942.942A.94.94,0,0,0,297.946,110.915Z"/><path class="d" d="M307.357,110.915a.941.941,0,1,0,.941.942A.941.941,0,0,0,307.357,110.915Z"/><path class="d" d="M294.022,125.446a.944.944,0,0,0-.254-.254.94.94,0,1,0,0,1.56.94.94,0,0,0,.415-.78A.94.94,0,0,0,294.022,125.446Z"/><path class="d" d="M293.768,115.781a.941.941,0,1,0,.415.78A.939.939,0,0,0,293.768,115.781Z"/><path class="d" d="M302.652,143.852a.941.941,0,0,0-.922.751.975.975,0,0,0-.019.189.941.941,0,1,0,1.882,0,.978.978,0,0,0-.019-.189A.942.942,0,0,0,302.652,143.852Z"/><path class="d" d="M302.652,134.441a.942.942,0,1,0,.941.941A.941.941,0,0,0,302.652,134.441Z"/><path class="d" d="M297.946,139.146a.942.942,0,1,0,.942.942A.94.94,0,0,0,297.946,139.146Z"/><path class="d" d="M307.357,139.146a.942.942,0,1,0,.941.942A.941.941,0,0,0,307.357,139.146Z"/><path class="d" d="M297.946,129.736a.941.941,0,1,0,.942.941A.94.94,0,0,0,297.946,129.736Z"/><path class="d" d="M307.357,129.736a.941.941,0,1,0,.941.941A.941.941,0,0,0,307.357,129.736Z"/><path class="d" d="M293.768,144.012a.942.942,0,0,0-1.448.591.9.9,0,0,0-.019.189.941.941,0,0,0,1.882,0,.9.9,0,0,0-.02-.189A.944.944,0,0,0,293.768,144.012Z"/><path class="d" d="M293.768,134.6a.941.941,0,1,0,.415.78A.939.939,0,0,0,293.768,134.6Z"/><path class="d" d="M302.652,162.672a.939.939,0,0,0-.941.941.927.927,0,0,0,.074.366.941.941,0,0,0,1.734,0,.941.941,0,0,0-.087-.892A.941.941,0,0,0,302.652,162.672Z"/><path class="d" d="M302.652,153.262a.942.942,0,1,0,.941.941A.94.94,0,0,0,302.652,153.262Z"/><path class="d" d="M298.888,158.909a.941.941,0,1,0-.942.94A.942.942,0,0,0,298.888,158.909Z"/><path class="d" d="M307.357,157.967a.941.941,0,1,0,.941.942A.941.941,0,0,0,307.357,157.967Z"/><path class="d" d="M297.946,148.556a.941.941,0,1,0,.942.942A.94.94,0,0,0,297.946,148.556Z"/><path class="d" d="M307.357,148.556a.941.941,0,1,0,.941.942A.941.941,0,0,0,307.357,148.556Z"/><path class="d" d="M294.022,163.087a.959.959,0,0,0-.254-.254.94.94,0,0,0-1.467.78.927.927,0,0,0,.074.366.941.941,0,1,0,1.647-.892Z"/><path class="d" d="M293.768,153.423a.941.941,0,0,0-1.467.78.941.941,0,1,0,1.467-.78Z"/><path class="d" d="M302.652,181.493a.942.942,0,0,0-.922.751.993.993,0,0,0-.019.19.941.941,0,0,0,1.882,0,1,1,0,0,0-.019-.19A.943.943,0,0,0,302.652,181.493Z"/><path class="d" d="M302.652,173.966a.942.942,0,1,0-.941-.942A.943.943,0,0,0,302.652,173.966Z"/><path class="d" d="M297.946,176.787a.941.941,0,1,0,.942.942A.941.941,0,0,0,297.946,176.787Z"/><path class="d" d="M307.357,178.67a.941.941,0,1,0-.941-.941A.941.941,0,0,0,307.357,178.67Z"/><path class="d" d="M297.946,167.377a.941.941,0,1,0,.942.942A.94.94,0,0,0,297.946,167.377Z"/><path class="d" d="M306.416,168.319a.941.941,0,1,0,.941-.942A.941.941,0,0,0,306.416,168.319Z"/><path class="d" d="M294.163,182.244a.941.941,0,0,0-1.843,0,.921.921,0,0,0-.019.19.941.941,0,0,0,1.882,0A.921.921,0,0,0,294.163,182.244Z"/><path class="d" d="M293.768,172.243a.941.941,0,1,0,.415.781A.939.939,0,0,0,293.768,172.243Z"/><path class="d" d="M297.946,186.2a.937.937,0,0,0-.72,1.54c.53-.322,1.052-.656,1.577-.984A.938.938,0,0,0,297.946,186.2Z"/><path class="d" d="M283.832,68.569a.94.94,0,0,0-.922.751.914.914,0,0,0-.019.19.941.941,0,0,0,1.882,0,.988.988,0,0,0-.019-.19A.942.942,0,0,0,283.832,68.569Z"/><path class="d" d="M293.242,61.041a.932.932,0,0,0,.526-.161.941.941,0,1,0-.526.161Z"/><path class="d" d="M283.832,61.041a.941.941,0,1,0-.941-.942A.942.942,0,0,0,283.832,61.041Z"/><path class="d" d="M279.126,65.746a.942.942,0,1,0-.94-.941A.942.942,0,0,0,279.126,65.746Z"/><path class="d" d="M288.537,65.746a.942.942,0,1,0-.942-.941A.942.942,0,0,0,288.537,65.746Z"/><path class="d" d="M274.611,68.588a.9.9,0,0,0-.189-.019.94.94,0,0,0-.922.751.914.914,0,0,0-.019.19.939.939,0,0,0,.941.94.9.9,0,0,0,.189-.019.941.941,0,0,0,.751-.921.914.914,0,0,0-.019-.19A.941.941,0,0,0,274.611,68.588Z"/><path class="d" d="M284.612,87.8a.941.941,0,0,0-1.721.526.927.927,0,0,0,.074.366.941.941,0,1,0,1.647-.892Z"/><path class="d" d="M283.832,77.979a.942.942,0,1,0,.941.941A.94.94,0,0,0,283.832,77.979Z"/><path class="d" d="M279.126,82.684a.941.941,0,1,0,.942.942A.94.94,0,0,0,279.126,82.684Z"/><path class="d" d="M288.537,82.684a.941.941,0,1,0,.941.942A.942.942,0,0,0,288.537,82.684Z"/><path class="d" d="M279.126,73.273a.941.941,0,1,0,.942.942A.941.941,0,0,0,279.126,73.273Z"/><path class="d" d="M288.537,73.273a.941.941,0,1,0,.941.942A.942.942,0,0,0,288.537,73.273Z"/><path class="d" d="M274.611,87.409a.9.9,0,0,0-.189-.019.934.934,0,0,0-.781.414.941.941,0,0,0,.414,1.393.954.954,0,0,0,.367.074.977.977,0,0,0,.189-.019.941.941,0,0,0,0-1.843Z"/><path class="d" d="M274.611,78a.977.977,0,0,0-.189-.019.954.954,0,0,0-.367.074.943.943,0,0,0,0,1.735.954.954,0,0,0,.367.074.977.977,0,0,0,.189-.019.942.942,0,0,0,0-1.845Z"/><path class="d" d="M283.832,106.21a.941.941,0,0,0-.922.751.921.921,0,0,0-.019.19.941.941,0,0,0,1.882,0,1,1,0,0,0-.019-.19A.943.943,0,0,0,283.832,106.21Z"/><path class="d" d="M283.832,96.8a.941.941,0,1,0,.941.941A.94.94,0,0,0,283.832,96.8Z"/><path class="d" d="M280.068,102.446a.941.941,0,1,0-.942.941A.941.941,0,0,0,280.068,102.446Z"/><path class="d" d="M288.537,101.5a.941.941,0,1,0,.941.941A.941.941,0,0,0,288.537,101.5Z"/><path class="d" d="M279.126,92.094a.941.941,0,1,0,.942.942A.94.94,0,0,0,279.126,92.094Z"/><path class="d" d="M288.537,92.094a.941.941,0,1,0,.941.942A.942.942,0,0,0,288.537,92.094Z"/><path class="d" d="M284.612,125.446a.94.94,0,1,0,.087.892.953.953,0,0,0,.074-.366A.932.932,0,0,0,284.612,125.446Z"/><path class="d" d="M283.832,117.5a.941.941,0,1,0-.941-.942A.942.942,0,0,0,283.832,117.5Z"/><path class="d" d="M279.126,120.325a.942.942,0,1,0,.942.942A.94.94,0,0,0,279.126,120.325Z"/><path class="d" d="M289.478,121.267a.941.941,0,1,0-.941.941A.941.941,0,0,0,289.478,121.267Z"/><path class="d" d="M279.126,110.915a.941.941,0,1,0,.942.942A.94.94,0,0,0,279.126,110.915Z"/><path class="d" d="M288.537,110.915a.941.941,0,1,0,.941.942A.942.942,0,0,0,288.537,110.915Z"/><path class="d" d="M274.611,117.484a.941.941,0,0,0,0-1.844.9.9,0,0,0-.189-.019.941.941,0,1,0,0,1.882A.9.9,0,0,0,274.611,117.484Z"/><path class="d" d="M283.832,143.852a.94.94,0,0,0-.922.751.9.9,0,0,0-.019.189.941.941,0,0,0,1.882,0,.978.978,0,0,0-.019-.189A.942.942,0,0,0,283.832,143.852Z"/><path class="d" d="M283.832,134.441a.942.942,0,1,0,.941.941A.941.941,0,0,0,283.832,134.441Z"/><path class="d" d="M279.126,139.146a.942.942,0,1,0,.942.942A.94.94,0,0,0,279.126,139.146Z"/><path class="d" d="M288.537,139.146a.942.942,0,1,0,.941.942A.942.942,0,0,0,288.537,139.146Z"/><path class="d" d="M279.126,129.736a.941.941,0,1,0,.942.941A.94.94,0,0,0,279.126,129.736Z"/><path class="d" d="M288.537,129.736a.941.941,0,1,0,.941.941A.941.941,0,0,0,288.537,129.736Z"/><path class="d" d="M284.612,163.087a.941.941,0,0,0-1.721.526.927.927,0,0,0,.074.366.941.941,0,1,0,1.647-.892Z"/><path class="d" d="M283.832,153.262a.942.942,0,1,0,.941.941A.94.94,0,0,0,283.832,153.262Z"/><path class="d" d="M279.126,157.967a.941.941,0,1,0,.942.942A.94.94,0,0,0,279.126,157.967Z"/><path class="d" d="M288.537,157.967a.941.941,0,1,0,.941.942A.942.942,0,0,0,288.537,157.967Z"/><path class="d" d="M279.126,148.556a.941.941,0,1,0,.942.942A.94.94,0,0,0,279.126,148.556Z"/><path class="d" d="M288.537,148.556a.941.941,0,1,0,.941.942A.942.942,0,0,0,288.537,148.556Z"/><path class="d" d="M274.611,155.126a.942.942,0,0,0,0-1.845.976.976,0,0,0-.189-.019.942.942,0,0,0,0,1.883A.977.977,0,0,0,274.611,155.126Z"/><path class="d" d="M283.832,181.493a.941.941,0,0,0-.922.751.921.921,0,0,0-.019.19.941.941,0,0,0,1.882,0,1,1,0,0,0-.019-.19A.943.943,0,0,0,283.832,181.493Z"/><path class="d" d="M283.832,172.083a.942.942,0,1,0,.941.941A.94.94,0,0,0,283.832,172.083Z"/><path class="d" d="M279.126,176.787a.941.941,0,1,0,.942.942A.941.941,0,0,0,279.126,176.787Z"/><path class="d" d="M288.537,176.787a.941.941,0,1,0,.941.942A.942.942,0,0,0,288.537,176.787Z"/><path class="d" d="M279.126,167.377a.941.941,0,1,0,.942.942A.94.94,0,0,0,279.126,167.377Z"/><path class="d" d="M288.537,167.377a.941.941,0,1,0,.941.942A.942.942,0,0,0,288.537,167.377Z"/><path class="d" d="M283.832,192.786a.941.941,0,1,0-.941-.942A.942.942,0,0,0,283.832,192.786Z"/><path class="d" d="M279.126,195.608a.938.938,0,0,0-.618,1.646c.521-.217,1.038-.439,1.555-.662,0-.014.005-.027.005-.042A.942.942,0,0,0,279.126,195.608Z"/><path class="d" d="M278.186,187.14a.941.941,0,1,0,.94-.942A.94.94,0,0,0,278.186,187.14Z"/><path class="d" d="M287.6,187.14a.941.941,0,1,0,.942-.942A.941.941,0,0,0,287.6,187.14Z"/><path class="d" d="M274.611,192.767a.941.941,0,0,0,0-1.844.9.9,0,0,0-.189-.019.953.953,0,0,0-.367.073.941.941,0,0,0,.367,1.809A.976.976,0,0,0,274.611,192.767Z"/><path class="d" d="M265.011,68.569a.939.939,0,0,0-.921.751.914.914,0,0,0-.019.19.941.941,0,0,0,1.882,0,.985.985,0,0,0-.019-.19A.942.942,0,0,0,265.011,68.569Z"/><path class="d" d="M273.481,60.1a.939.939,0,0,0,.941.942.977.977,0,0,0,.189-.019.941.941,0,0,0,0-1.844.9.9,0,0,0-.189-.02.954.954,0,0,0-.367.074A.94.94,0,0,0,273.481,60.1Z"/><path class="d" d="M265.011,59.158a.941.941,0,1,0,.942.941A.94.94,0,0,0,265.011,59.158Z"/><path class="d" d="M260.306,63.863a.942.942,0,1,0,.942.942A.94.94,0,0,0,260.306,63.863Z"/><path class="d" d="M269.717,63.863a.942.942,0,1,0,.941.942A.942.942,0,0,0,269.717,63.863Z"/><path class="d" d="M256.523,69.32a.941.941,0,0,0-1.843,0,.915.915,0,0,0-.02.19.941.941,0,0,0,.942.94.94.94,0,0,0,.94-.94A.914.914,0,0,0,256.523,69.32Z"/><path class="d" d="M256.128,59.319a.943.943,0,1,0,.414.78A.939.939,0,0,0,256.128,59.319Z"/><path class="d" d="M265.792,87.8a.94.94,0,0,0-1.721.526.927.927,0,0,0,.074.366.941.941,0,1,0,1.647-.892Z"/><path class="d" d="M265.011,77.979a.942.942,0,1,0,.942.941A.94.94,0,0,0,265.011,77.979Z"/><path class="d" d="M260.306,82.684a.941.941,0,1,0,.942.942A.94.94,0,0,0,260.306,82.684Z"/><path class="d" d="M269.717,82.684a.941.941,0,1,0,.941.942A.942.942,0,0,0,269.717,82.684Z"/><path class="d" d="M260.306,73.273a.941.941,0,1,0,.942.942A.941.941,0,0,0,260.306,73.273Z"/><path class="d" d="M269.717,73.273a.941.941,0,1,0,.941.942A.942.942,0,0,0,269.717,73.273Z"/><path class="d" d="M256.382,87.8a.959.959,0,0,0-.254-.254.942.942,0,1,0,.34,1.146.927.927,0,0,0,.074-.366A.938.938,0,0,0,256.382,87.8Z"/><path class="d" d="M256.128,78.14a.932.932,0,0,0-.526-.161.94.94,0,1,0,.526.161Z"/><path class="d" d="M265.011,106.21a.94.94,0,0,0-.921.751.921.921,0,0,0-.019.19.941.941,0,1,0,1.882,0,.993.993,0,0,0-.019-.19A.943.943,0,0,0,265.011,106.21Z"/><path class="d" d="M274.055,98.608a.936.936,0,0,0,.367.074.9.9,0,0,0,.189-.019.941.941,0,0,0,0-1.844.9.9,0,0,0-.189-.019.941.941,0,0,0-.367,1.808Z"/><path class="d" d="M265.011,96.8a.941.941,0,1,0,.942.941A.94.94,0,0,0,265.011,96.8Z"/><path class="d" d="M260.306,101.5a.941.941,0,1,0,.942.941A.94.94,0,0,0,260.306,101.5Z"/><path class="d" d="M269.717,101.5a.941.941,0,1,0,.941.941A.941.941,0,0,0,269.717,101.5Z"/><path class="d" d="M260.306,92.094a.941.941,0,1,0,.942.942A.94.94,0,0,0,260.306,92.094Z"/><path class="d" d="M269.717,92.094a.941.941,0,1,0,.941.942A.942.942,0,0,0,269.717,92.094Z"/><path class="d" d="M256.523,106.961a.941.941,0,0,0-1.843,0,.922.922,0,0,0-.02.19.941.941,0,1,0,1.882,0A.921.921,0,0,0,256.523,106.961Z"/><path class="d" d="M256.128,96.961a.932.932,0,0,0-.526-.161.941.941,0,1,0,0,1.882.941.941,0,0,0,.526-1.721Z"/><path class="d" d="M265.792,125.446a.94.94,0,1,0,.087.892.953.953,0,0,0,.074-.366A.939.939,0,0,0,265.792,125.446Z"/><path class="d" d="M265.011,115.621a.941.941,0,1,0,.942.94A.94.94,0,0,0,265.011,115.621Z"/><path class="d" d="M260.306,120.325a.942.942,0,1,0,.942.942A.94.94,0,0,0,260.306,120.325Z"/><path class="d" d="M269.717,120.325a.942.942,0,1,0,.941.942A.942.942,0,0,0,269.717,120.325Z"/><path class="d" d="M260.306,110.915a.941.941,0,1,0,.942.942A.94.94,0,0,0,260.306,110.915Z"/><path class="d" d="M269.717,110.915a.941.941,0,1,0,.941.942A.942.942,0,0,0,269.717,110.915Z"/><path class="d" d="M256.382,125.446a.944.944,0,0,0-.254-.254.941.941,0,0,0-1.468.78.953.953,0,0,0,.074.366.941.941,0,1,0,1.648-.892Z"/><path class="d" d="M256.128,115.781a.943.943,0,1,0,.414.78A.939.939,0,0,0,256.128,115.781Z"/><path class="d" d="M274.055,108.018a.954.954,0,0,0,.367.074.9.9,0,0,0,.189-.02.94.94,0,0,0,.751-.921.921.921,0,0,0-.019-.19.942.942,0,0,0-.732-.732.977.977,0,0,0-.189-.019.954.954,0,0,0-.367.074.941.941,0,0,0-.555.677.921.921,0,0,0-.019.19A.94.94,0,0,0,274.055,108.018Z"/><path class="d" d="M265.011,143.852a.939.939,0,0,0-.921.751.9.9,0,0,0-.019.189.941.941,0,1,0,1.882,0,.975.975,0,0,0-.019-.189A.942.942,0,0,0,265.011,143.852Z"/><path class="d" d="M274.055,136.25a.936.936,0,0,0,.367.074.976.976,0,0,0,.189-.019.941.941,0,0,0,0-1.844.9.9,0,0,0-.189-.02.954.954,0,0,0-.367.074.943.943,0,0,0,0,1.735Z"/><path class="d" d="M265.011,134.441a.942.942,0,1,0,.942.941A.94.94,0,0,0,265.011,134.441Z"/><path class="d" d="M260.306,139.146a.942.942,0,1,0,.942.942A.94.94,0,0,0,260.306,139.146Z"/><path class="d" d="M269.717,139.146a.942.942,0,1,0,.941.942A.942.942,0,0,0,269.717,139.146Z"/><path class="d" d="M260.306,129.736a.941.941,0,1,0,.942.941A.94.94,0,0,0,260.306,129.736Z"/><path class="d" d="M269.717,129.736a.941.941,0,1,0,.941.941A.941.941,0,0,0,269.717,129.736Z"/><path class="d" d="M256.523,144.6a.941.941,0,0,0-1.843,0,.905.905,0,0,0-.02.189.941.941,0,0,0,.942.941.94.94,0,0,0,.94-.941A.9.9,0,0,0,256.523,144.6Z"/><path class="d" d="M256.128,134.6a.943.943,0,1,0,.414.78A.939.939,0,0,0,256.128,134.6Z"/><path class="d" d="M274.055,126.838a.936.936,0,0,0,.367.074.9.9,0,0,0,.189-.019.941.941,0,0,0,.678-.555.952.952,0,0,0,.073-.366.94.94,0,0,0-.751-.922.977.977,0,0,0-.189-.019.939.939,0,0,0-.941.941.934.934,0,0,0,.574.866Z"/><path class="d" d="M265.792,163.087a.94.94,0,0,0-1.721.526.927.927,0,0,0,.074.366.941.941,0,1,0,1.647-.892Z"/><path class="d" d="M265.011,153.262a.942.942,0,1,0,.942.941A.94.94,0,0,0,265.011,153.262Z"/><path class="d" d="M260.306,157.967a.941.941,0,1,0,.942.942A.94.94,0,0,0,260.306,157.967Z"/><path class="d" d="M269.717,157.967a.941.941,0,1,0,.941.942A.942.942,0,0,0,269.717,157.967Z"/><path class="d" d="M260.306,148.556a.941.941,0,1,0,.942.942A.94.94,0,0,0,260.306,148.556Z"/><path class="d" d="M269.717,148.556a.941.941,0,1,0,.941.942A.942.942,0,0,0,269.717,148.556Z"/><path class="d" d="M256.128,162.833a.942.942,0,1,0,.34,1.146.927.927,0,0,0,.074-.366.938.938,0,0,0-.16-.526A.959.959,0,0,0,256.128,162.833Z"/><path class="d" d="M256.128,153.423a.932.932,0,0,0-.526-.161.94.94,0,1,0,.526.161Z"/><path class="d" d="M274.055,145.659a.936.936,0,0,0,.367.074.977.977,0,0,0,.189-.019.941.941,0,0,0,.751-.922.9.9,0,0,0-.019-.189.94.94,0,0,0-.732-.732.9.9,0,0,0-.189-.019.94.94,0,0,0-.922.751.9.9,0,0,0-.019.189A.94.94,0,0,0,274.055,145.659Z"/><path class="d" d="M265.011,181.493a.94.94,0,0,0-.921.751.921.921,0,0,0-.019.19.941.941,0,0,0,1.882,0,.993.993,0,0,0-.019-.19A.943.943,0,0,0,265.011,181.493Z"/><path class="d" d="M274.055,173.891a.937.937,0,0,0,.367.075.9.9,0,0,0,.189-.02.941.941,0,0,0,0-1.844.9.9,0,0,0-.189-.019.941.941,0,0,0-.367,1.808Z"/><path class="d" d="M265.011,172.083a.942.942,0,1,0,.942.941A.94.94,0,0,0,265.011,172.083Z"/><path class="d" d="M261.248,177.729a.941.941,0,1,0-.942.941A.942.942,0,0,0,261.248,177.729Z"/><path class="d" d="M269.717,176.787a.941.941,0,1,0,.941.942A.942.942,0,0,0,269.717,176.787Z"/><path class="d" d="M260.306,167.377a.941.941,0,1,0,.942.942A.94.94,0,0,0,260.306,167.377Z"/><path class="d" d="M269.717,167.377a.941.941,0,1,0,.941.942A.942.942,0,0,0,269.717,167.377Z"/><path class="d" d="M256.523,182.244a.941.941,0,0,0-1.843,0,.922.922,0,0,0-.02.19.941.941,0,1,0,1.882,0A.921.921,0,0,0,256.523,182.244Z"/><path class="d" d="M256.128,172.243a.943.943,0,1,0,.414.781A.939.939,0,0,0,256.128,172.243Z"/><path class="d" d="M274.055,164.48a.936.936,0,0,0,.367.074.977.977,0,0,0,.189-.019.941.941,0,0,0,0-1.843.9.9,0,0,0-.189-.02.94.94,0,0,0-.781.415.941.941,0,0,0,.414,1.393Z"/><path class="d" d="M265.011,200.314a.938.938,0,0,0-.257,1.841c.322-.1.645-.189.966-.287a.9.9,0,0,0,.233-.613.942.942,0,0,0-.942-.941Z"/><path class="d" d="M265.011,192.786a.941.941,0,1,0-.94-.942A.942.942,0,0,0,265.011,192.786Z"/><path class="d" d="M260.306,195.608a.941.941,0,1,0,.942.942A.94.94,0,0,0,260.306,195.608Z"/><path class="d" d="M269.717,197.491a.941.941,0,1,0-.942-.941A.942.942,0,0,0,269.717,197.491Z"/><path class="d" d="M260.306,186.2a.941.941,0,1,0,.942.942A.94.94,0,0,0,260.306,186.2Z"/><path class="d" d="M268.775,187.14a.941.941,0,1,0,.942-.942A.941.941,0,0,0,268.775,187.14Z"/><path class="d" d="M256.382,200.729a.944.944,0,0,0-.254-.254.932.932,0,0,0-.526-.161.942.942,0,0,0-.942.941.953.953,0,0,0,.074.366.943.943,0,0,0,.868.574.941.941,0,0,0,.78-1.466Z"/><path class="d" d="M256.128,191.064a.943.943,0,1,0,.414.78A.939.939,0,0,0,256.128,191.064Z"/><path class="d" d="M274.055,183.3a.953.953,0,0,0,.367.073.9.9,0,0,0,.189-.019.94.94,0,0,0,.751-.921.921.921,0,0,0-.019-.19.941.941,0,0,0-.732-.732.977.977,0,0,0-.189-.019.954.954,0,0,0-.367.074.941.941,0,0,0-.555.677.921.921,0,0,0-.019.19A.941.941,0,0,0,274.055,183.3Z"/><path class="d" d="M246.191,68.569a.939.939,0,0,0-.921.751.914.914,0,0,0-.019.19.941.941,0,0,0,1.882,0,.987.987,0,0,0-.019-.19A.942.942,0,0,0,246.191,68.569Z"/><path class="d" d="M246.191,59.158a.941.941,0,1,0,.942.941A.94.94,0,0,0,246.191,59.158Z"/><path class="d" d="M241.486,63.863a.942.942,0,1,0,.942.942A.94.94,0,0,0,241.486,63.863Z"/><path class="d" d="M250.9,63.863a.942.942,0,1,0,.941.942A.941.941,0,0,0,250.9,63.863Z"/><path class="d" d="M236.782,68.569a.942.942,0,0,0-.923.751.988.988,0,0,0-.019.19.941.941,0,0,0,1.882,0,.914.914,0,0,0-.019-.19A.941.941,0,0,0,236.782,68.569Z"/><path class="d" d="M246.972,87.8a.94.94,0,0,0-1.721.526.927.927,0,0,0,.074.366.941.941,0,1,0,1.647-.892Z"/><path class="d" d="M246.191,77.979a.942.942,0,1,0,.942.941A.94.94,0,0,0,246.191,77.979Z"/><path class="d" d="M241.486,82.684a.941.941,0,1,0,.942.942A.94.94,0,0,0,241.486,82.684Z"/><path class="d" d="M250.9,82.684a.941.941,0,1,0,.941.942A.941.941,0,0,0,250.9,82.684Z"/><path class="d" d="M241.486,73.273a.941.941,0,1,0,.942.942A.941.941,0,0,0,241.486,73.273Z"/><path class="d" d="M250.9,73.273a.941.941,0,1,0,.941.942A.942.942,0,0,0,250.9,73.273Z"/><path class="d" d="M237.562,87.8a.942.942,0,1,0,.086.892.927.927,0,0,0,.074-.366A.939.939,0,0,0,237.562,87.8Z"/><path class="d" d="M236.782,77.979a.942.942,0,1,0,.94.941A.941.941,0,0,0,236.782,77.979Z"/><path class="d" d="M246.191,106.21a.94.94,0,0,0-.921.751.921.921,0,0,0-.019.19.941.941,0,1,0,1.882,0,1,1,0,0,0-.019-.19A.943.943,0,0,0,246.191,106.21Z"/><path class="d" d="M246.191,96.8a.941.941,0,1,0,.942.941A.94.94,0,0,0,246.191,96.8Z"/><path class="d" d="M241.486,101.5a.941.941,0,1,0,.942.941A.94.94,0,0,0,241.486,101.5Z"/><path class="d" d="M250.9,101.5a.941.941,0,1,0,.941.941A.941.941,0,0,0,250.9,101.5Z"/><path class="d" d="M241.486,92.094a.941.941,0,1,0,.942.942A.94.94,0,0,0,241.486,92.094Z"/><path class="d" d="M250.9,92.094a.941.941,0,1,0,.941.942A.941.941,0,0,0,250.9,92.094Z"/><path class="d" d="M236.782,106.21a.943.943,0,0,0-.923.751,1,1,0,0,0-.019.19.941.941,0,1,0,1.882,0,.921.921,0,0,0-.019-.19A.942.942,0,0,0,236.782,106.21Z"/><path class="d" d="M236.782,96.8a.941.941,0,1,0,.94.941A.941.941,0,0,0,236.782,96.8Z"/><path class="d" d="M246.191,125.031a.941.941,0,1,0,.868,1.307.953.953,0,0,0,.074-.366.942.942,0,0,0-.942-.941Z"/><path class="d" d="M246.191,115.621a.941.941,0,1,0,.942.94A.94.94,0,0,0,246.191,115.621Z"/><path class="d" d="M242.428,121.267a.941.941,0,1,0-.942.941A.942.942,0,0,0,242.428,121.267Z"/><path class="d" d="M250.9,120.325a.942.942,0,1,0,.941.942A.941.941,0,0,0,250.9,120.325Z"/><path class="d" d="M241.486,110.915a.941.941,0,1,0,.942.942A.94.94,0,0,0,241.486,110.915Z"/><path class="d" d="M250.9,110.915a.941.941,0,1,0,.941.942A.941.941,0,0,0,250.9,110.915Z"/><path class="d" d="M237.722,116.561a.941.941,0,1,0-.94.942A.94.94,0,0,0,237.722,116.561Z"/><path class="d" d="M246.191,143.852a.939.939,0,0,0-.921.751.9.9,0,0,0-.019.189.941.941,0,1,0,1.882,0,.976.976,0,0,0-.019-.189A.942.942,0,0,0,246.191,143.852Z"/><path class="d" d="M246.191,136.324a.942.942,0,1,0-.94-.942A.943.943,0,0,0,246.191,136.324Z"/><path class="d" d="M241.486,139.146a.942.942,0,1,0,.942.942A.94.94,0,0,0,241.486,139.146Z"/><path class="d" d="M251.838,140.088a.941.941,0,1,0-.941.941A.941.941,0,0,0,251.838,140.088Z"/><path class="d" d="M241.486,129.736a.941.941,0,1,0,.942.941A.94.94,0,0,0,241.486,129.736Z"/><path class="d" d="M250.9,129.736a.941.941,0,1,0,.941.941A.941.941,0,0,0,250.9,129.736Z"/><path class="d" d="M246.972,163.087a.94.94,0,0,0-1.721.526.927.927,0,0,0,.074.366.941.941,0,1,0,1.647-.892Z"/><path class="d" d="M246.191,153.262a.942.942,0,1,0,.942.941A.94.94,0,0,0,246.191,153.262Z"/><path class="d" d="M241.486,157.967a.941.941,0,1,0,.942.942A.94.94,0,0,0,241.486,157.967Z"/><path class="d" d="M250.9,157.967a.941.941,0,1,0,.941.942A.941.941,0,0,0,250.9,157.967Z"/><path class="d" d="M241.486,148.556a.941.941,0,1,0,.942.942A.94.94,0,0,0,241.486,148.556Z"/><path class="d" d="M250.9,148.556a.941.941,0,1,0,.941.942A.941.941,0,0,0,250.9,148.556Z"/><path class="d" d="M237.722,154.2a.941.941,0,1,0-.94.942A.94.94,0,0,0,237.722,154.2Z"/><path class="d" d="M246.191,181.493a.94.94,0,0,0-.921.751.921.921,0,0,0-.019.19.941.941,0,0,0,1.882,0,1,1,0,0,0-.019-.19A.943.943,0,0,0,246.191,181.493Z"/><path class="d" d="M246.191,172.083a.942.942,0,1,0,.942.941A.94.94,0,0,0,246.191,172.083Z"/><path class="d" d="M241.486,176.787a.941.941,0,1,0,.942.942A.941.941,0,0,0,241.486,176.787Z"/><path class="d" d="M250.9,176.787a.941.941,0,1,0,.941.942A.942.942,0,0,0,250.9,176.787Z"/><path class="d" d="M241.486,167.377a.941.941,0,1,0,.942.942A.94.94,0,0,0,241.486,167.377Z"/><path class="d" d="M250.9,167.377a.941.941,0,1,0,.941.942A.941.941,0,0,0,250.9,167.377Z"/><path class="d" d="M246.972,200.729a.94.94,0,1,0,.087.892.953.953,0,0,0,.074-.366A.939.939,0,0,0,246.972,200.729Z"/><path class="d" d="M246.191,190.9a.941.941,0,1,0,.942.94A.94.94,0,0,0,246.191,190.9Z"/><path class="d" d="M241.486,195.608a.941.941,0,1,0,.942.942A.94.94,0,0,0,241.486,195.608Z"/><path class="d" d="M250.9,195.608a.941.941,0,1,0,.941.942A.941.941,0,0,0,250.9,195.608Z"/><path class="d" d="M241.486,186.2a.941.941,0,1,0,.942.942A.94.94,0,0,0,241.486,186.2Z"/><path class="d" d="M250.9,186.2a.941.941,0,1,0,.941.942A.941.941,0,0,0,250.9,186.2Z"/><path class="d" d="M237.722,191.844a.941.941,0,1,0-.94.942A.94.94,0,0,0,237.722,191.844Z"/><path class="d" d="M240.546,205.96a.941.941,0,1,0,.94-.942A.94.94,0,0,0,240.546,205.96Z"/><path class="d" d="M250.9,205.018a.938.938,0,0,0-.9.679c.548-.1,1.093-.207,1.639-.314A.939.939,0,0,0,250.9,205.018Z"/><path class="d" d="M237.648,201.621a.941.941,0,1,0-1.808-.366.953.953,0,0,0,.074.366.942.942,0,0,0,1.734,0Z"/><path class="d" d="M227.371,68.569a.939.939,0,0,0-.921.751.914.914,0,0,0-.019.19.941.941,0,0,0,1.882,0,.914.914,0,0,0-.02-.19A.94.94,0,0,0,227.371,68.569Z"/><path class="d" d="M236.782,61.041a.941.941,0,1,0-.942-.942A.941.941,0,0,0,236.782,61.041Z"/><path class="d" d="M227.371,61.041a.942.942,0,1,0-.94-.942A.942.942,0,0,0,227.371,61.041Z"/><path class="d" d="M222.666,65.746a.942.942,0,1,0-.94-.941A.942.942,0,0,0,222.666,65.746Z"/><path class="d" d="M232.076,65.746a.942.942,0,1,0-.941-.941A.942.942,0,0,0,232.076,65.746Z"/><path class="d" d="M218.883,69.32a.941.941,0,0,0-1.844,0,.987.987,0,0,0-.019.19.941.941,0,0,0,1.882,0A.914.914,0,0,0,218.883,69.32Z"/><path class="d" d="M218.488,59.319a.944.944,0,0,0-.526-.161.954.954,0,0,0-.367.074.941.941,0,1,0,.893.087Z"/><path class="d" d="M228.152,87.8a.941.941,0,1,0,.161.526A.942.942,0,0,0,228.152,87.8Z"/><path class="d" d="M227.371,77.979a.942.942,0,1,0,.942.941A.94.94,0,0,0,227.371,77.979Z"/><path class="d" d="M222.666,82.684a.941.941,0,1,0,.942.942A.94.94,0,0,0,222.666,82.684Z"/><path class="d" d="M232.076,82.684a.941.941,0,1,0,.942.942A.941.941,0,0,0,232.076,82.684Z"/><path class="d" d="M222.666,73.273a.941.941,0,1,0,.942.942A.941.941,0,0,0,222.666,73.273Z"/><path class="d" d="M232.076,73.273a.941.941,0,1,0,.942.942A.941.941,0,0,0,232.076,73.273Z"/><path class="d" d="M218.742,87.8a.959.959,0,0,0-.254-.254.943.943,0,0,0-.526-.16.934.934,0,0,0-.781.414A.941.941,0,0,0,217.6,89.2a.954.954,0,0,0,.367.074.942.942,0,0,0,.78-1.467Z"/><path class="d" d="M218.488,78.14a.936.936,0,0,0-.526-.161.954.954,0,0,0-.367.074.942.942,0,0,0,0,1.735.954.954,0,0,0,.367.074.942.942,0,0,0,.526-1.722Z"/><path class="d" d="M227.371,106.21a.94.94,0,0,0-.921.751.921.921,0,0,0-.019.19.941.941,0,1,0,1.882,0,.921.921,0,0,0-.02-.19A.941.941,0,0,0,227.371,106.21Z"/><path class="d" d="M227.371,96.8a.941.941,0,1,0,.942.941A.94.94,0,0,0,227.371,96.8Z"/><path class="d" d="M222.666,101.5a.941.941,0,1,0,.942.941A.94.94,0,0,0,222.666,101.5Z"/><path class="d" d="M232.076,101.5a.941.941,0,1,0,.942.941A.941.941,0,0,0,232.076,101.5Z"/><path class="d" d="M222.666,92.094a.941.941,0,1,0,.942.942A.94.94,0,0,0,222.666,92.094Z"/><path class="d" d="M232.076,92.094a.941.941,0,1,0,.942.942A.941.941,0,0,0,232.076,92.094Z"/><path class="d" d="M218.883,106.961a.941.941,0,0,0-.921-.751.954.954,0,0,0-.367.074.945.945,0,0,0-.556.677,1,1,0,0,0-.019.19.941.941,0,0,0,.575.867.954.954,0,0,0,.367.074.94.94,0,0,0,.94-.941A.921.921,0,0,0,218.883,106.961Z"/><path class="d" d="M218.488,96.961a.942.942,0,1,0,.414.78A.936.936,0,0,0,218.488,96.961Z"/><path class="d" d="M228.152,125.446a.94.94,0,0,0-1.721.526.952.952,0,0,0,.073.366.943.943,0,0,0,1.735,0,.953.953,0,0,0,.074-.366A.939.939,0,0,0,228.152,125.446Z"/><path class="d" d="M227.371,115.621a.941.941,0,1,0,.942.94A.94.94,0,0,0,227.371,115.621Z"/><path class="d" d="M222.666,120.325a.942.942,0,1,0,.942.942A.94.94,0,0,0,222.666,120.325Z"/><path class="d" d="M232.076,120.325a.942.942,0,1,0,.942.942A.941.941,0,0,0,232.076,120.325Z"/><path class="d" d="M222.666,110.915a.941.941,0,1,0,.942.942A.94.94,0,0,0,222.666,110.915Z"/><path class="d" d="M232.076,110.915a.941.941,0,1,0,.942.942A.941.941,0,0,0,232.076,110.915Z"/><path class="d" d="M218.742,125.446a.942.942,0,1,0,.086.892.944.944,0,0,0-.086-.892Z"/><path class="d" d="M218.488,115.781a.943.943,0,1,0,.414.78A.943.943,0,0,0,218.488,115.781Z"/><path class="d" d="M227.371,143.852a.939.939,0,0,0-.921.751.9.9,0,0,0-.019.189.941.941,0,0,0,1.882,0,.9.9,0,0,0-.02-.189A.94.94,0,0,0,227.371,143.852Z"/><path class="d" d="M236.782,136.324a.942.942,0,1,0-.942-.942A.942.942,0,0,0,236.782,136.324Z"/><path class="d" d="M227.371,134.441a.942.942,0,1,0,.942.941A.94.94,0,0,0,227.371,134.441Z"/><path class="d" d="M222.666,139.146a.942.942,0,1,0,.942.942A.94.94,0,0,0,222.666,139.146Z"/><path class="d" d="M232.076,139.146a.942.942,0,1,0,.942.942A.941.941,0,0,0,232.076,139.146Z"/><path class="d" d="M222.666,129.736a.941.941,0,1,0,.942.941A.94.94,0,0,0,222.666,129.736Z"/><path class="d" d="M232.076,129.736a.941.941,0,1,0,.942.941A.941.941,0,0,0,232.076,129.736Z"/><path class="d" d="M218.883,144.6a.941.941,0,0,0-1.844,0,.976.976,0,0,0-.019.189.941.941,0,1,0,1.882,0A.9.9,0,0,0,218.883,144.6Z"/><path class="d" d="M218.488,134.6a.944.944,0,0,0-.526-.161.954.954,0,0,0-.367.074.941.941,0,1,0,.893.087Z"/><path class="d" d="M236.782,126.912a.94.94,0,1,0-.942-.94.953.953,0,0,0,.074.366A.943.943,0,0,0,236.782,126.912Z"/><path class="d" d="M228.152,163.087a.941.941,0,1,0,.161.526A.943.943,0,0,0,228.152,163.087Z"/><path class="d" d="M227.371,153.262a.942.942,0,1,0,.942.941A.94.94,0,0,0,227.371,153.262Z"/><path class="d" d="M222.666,157.967a.941.941,0,1,0,.942.942A.94.94,0,0,0,222.666,157.967Z"/><path class="d" d="M232.076,157.967a.941.941,0,1,0,.942.942A.941.941,0,0,0,232.076,157.967Z"/><path class="d" d="M222.666,148.556a.941.941,0,1,0,.942.942A.94.94,0,0,0,222.666,148.556Z"/><path class="d" d="M232.076,148.556a.941.941,0,1,0,.942.942A.941.941,0,0,0,232.076,148.556Z"/><path class="d" d="M218.742,163.087a.959.959,0,0,0-.254-.254.944.944,0,0,0-.526-.161.94.94,0,0,0-.781.415.941.941,0,1,0,1.647.892.927.927,0,0,0,.074-.366A.939.939,0,0,0,218.742,163.087Z"/><path class="d" d="M218.488,153.423a.943.943,0,1,0,.414.78A.936.936,0,0,0,218.488,153.423Z"/><path class="d" d="M236.782,145.733a.94.94,0,0,0,.94-.941.9.9,0,0,0-.019-.189.941.941,0,0,0-1.844,0,.978.978,0,0,0-.019.189A.941.941,0,0,0,236.782,145.733Z"/><path class="d" d="M227.371,181.493a.94.94,0,0,0-.921.751.921.921,0,0,0-.019.19.941.941,0,0,0,1.882,0,.921.921,0,0,0-.02-.19A.941.941,0,0,0,227.371,181.493Z"/><path class="d" d="M236.782,173.966a.942.942,0,1,0-.942-.942A.942.942,0,0,0,236.782,173.966Z"/><path class="d" d="M227.371,172.083a.942.942,0,1,0,.942.941A.94.94,0,0,0,227.371,172.083Z"/><path class="d" d="M222.666,176.787a.941.941,0,1,0,.942.942A.941.941,0,0,0,222.666,176.787Z"/><path class="d" d="M232.076,176.787a.941.941,0,1,0,.942.942A.941.941,0,0,0,232.076,176.787Z"/><path class="d" d="M222.666,167.377a.941.941,0,1,0,.942.942A.94.94,0,0,0,222.666,167.377Z"/><path class="d" d="M232.076,167.377a.941.941,0,1,0,.942.942A.941.941,0,0,0,232.076,167.377Z"/><path class="d" d="M218.883,182.244a.941.941,0,0,0-.921-.751.954.954,0,0,0-.367.074.945.945,0,0,0-.556.677,1,1,0,0,0-.019.19.942.942,0,0,0,.575.867.953.953,0,0,0,.367.073.938.938,0,0,0,.94-.94A.921.921,0,0,0,218.883,182.244Z"/><path class="d" d="M218.488,172.243a.943.943,0,1,0,.414.781A.943.943,0,0,0,218.488,172.243Z"/><path class="d" d="M236.782,164.554a.94.94,0,0,0,.866-.575.927.927,0,0,0,.074-.366.941.941,0,1,0-.94.941Z"/><path class="d" d="M228.152,200.729a.94.94,0,1,0,.087.892.953.953,0,0,0,.074-.366A.939.939,0,0,0,228.152,200.729Z"/><path class="d" d="M227.371,190.9a.941.941,0,1,0,.942.94A.94.94,0,0,0,227.371,190.9Z"/><path class="d" d="M222.666,195.608a.941.941,0,1,0,.942.942A.94.94,0,0,0,222.666,195.608Z"/><path class="d" d="M232.076,195.608a.941.941,0,1,0,.942.942A.941.941,0,0,0,232.076,195.608Z"/><path class="d" d="M222.666,186.2a.941.941,0,1,0,.942.942A.94.94,0,0,0,222.666,186.2Z"/><path class="d" d="M232.076,186.2a.941.941,0,1,0,.942.942A.941.941,0,0,0,232.076,186.2Z"/><path class="d" d="M218.488,191.064a.943.943,0,0,0-.526-.16.953.953,0,0,0-.367.073.941.941,0,1,0,.893.087Z"/><path class="d" d="M236.782,183.374a.94.94,0,0,0,.94-.94.921.921,0,0,0-.019-.19.941.941,0,0,0-1.844,0,1,1,0,0,0-.019.19A.941.941,0,0,0,236.782,183.374Z"/><path class="d" d="M222.666,205.018a.941.941,0,1,0,.942.942A.941.941,0,0,0,222.666,205.018Z"/><path class="d" d="M231.135,205.96a.942.942,0,1,0,.941-.942A.941.941,0,0,0,231.135,205.96Z"/><path class="d" d="M218.488,202.034a.941.941,0,1,0-1.468-.779.939.939,0,0,0,.575.866.943.943,0,0,0,.893-.087Z"/><path class="d" d="M208.551,68.569a.939.939,0,0,0-.921.751.914.914,0,0,0-.019.19.941.941,0,0,0,1.882,0,.915.915,0,0,0-.02-.19A.94.94,0,0,0,208.551,68.569Z"/><path class="d" d="M208.551,61.041a.942.942,0,1,0-.94-.942A.942.942,0,0,0,208.551,61.041Z"/><path class="d" d="M203.846,65.746a.942.942,0,1,0-.941-.941A.941.941,0,0,0,203.846,65.746Z"/><path class="d" d="M213.256,65.746a.942.942,0,1,0-.941-.941A.942.942,0,0,0,213.256,65.746Z"/><path class="d" d="M199.141,68.569a.941.941,0,0,0-.922.751.988.988,0,0,0-.019.19.941.941,0,0,0,1.882,0,.914.914,0,0,0-.019-.19A.941.941,0,0,0,199.141,68.569Z"/><path class="d" d="M209.332,87.8a.941.941,0,0,0-1.721.526.927.927,0,0,0,.074.366.94.94,0,0,0,1.733,0,.928.928,0,0,0,.075-.366A.939.939,0,0,0,209.332,87.8Z"/><path class="d" d="M208.551,77.979a.942.942,0,1,0,.942.941A.94.94,0,0,0,208.551,77.979Z"/><path class="d" d="M203.846,82.684a.941.941,0,1,0,.941.942A.941.941,0,0,0,203.846,82.684Z"/><path class="d" d="M213.256,82.684a.941.941,0,1,0,.942.942A.941.941,0,0,0,213.256,82.684Z"/><path class="d" d="M203.846,73.273a.941.941,0,1,0,.941.942A.941.941,0,0,0,203.846,73.273Z"/><path class="d" d="M213.256,73.273a.941.941,0,1,0,.942.942A.941.941,0,0,0,213.256,73.273Z"/><path class="d" d="M199.922,87.8a.942.942,0,1,0,.086.892.927.927,0,0,0,.074-.366A.939.939,0,0,0,199.922,87.8Z"/><path class="d" d="M199.141,77.979a.942.942,0,1,0,.941.941A.941.941,0,0,0,199.141,77.979Z"/><path class="d" d="M208.551,106.21a.94.94,0,0,0-.921.751.921.921,0,0,0-.019.19.941.941,0,1,0,1.882,0,.922.922,0,0,0-.02-.19A.941.941,0,0,0,208.551,106.21Z"/><path class="d" d="M208.551,96.8a.941.941,0,1,0,.942.941A.94.94,0,0,0,208.551,96.8Z"/><path class="d" d="M203.846,101.5a.941.941,0,1,0,.941.941A.941.941,0,0,0,203.846,101.5Z"/><path class="d" d="M213.256,101.5a.941.941,0,1,0,.942.941A.941.941,0,0,0,213.256,101.5Z"/><path class="d" d="M203.846,92.094a.941.941,0,1,0,.941.942A.941.941,0,0,0,203.846,92.094Z"/><path class="d" d="M213.256,92.094a.941.941,0,1,0,.942.942A.941.941,0,0,0,213.256,92.094Z"/><path class="d" d="M199.141,106.21a.942.942,0,0,0-.922.751,1,1,0,0,0-.019.19.941.941,0,1,0,1.882,0,.921.921,0,0,0-.019-.19A.942.942,0,0,0,199.141,106.21Z"/><path class="d" d="M199.141,96.8a.941.941,0,1,0,.941.941A.941.941,0,0,0,199.141,96.8Z"/><path class="d" d="M209.332,125.446a.936.936,0,1,0,.161.526A.939.939,0,0,0,209.332,125.446Z"/><path class="d" d="M208.551,115.621a.941.941,0,1,0,.942.94A.94.94,0,0,0,208.551,115.621Z"/><path class="d" d="M203.846,120.325a.942.942,0,1,0,.941.942A.941.941,0,0,0,203.846,120.325Z"/><path class="d" d="M213.256,120.325a.942.942,0,1,0,.942.942A.941.941,0,0,0,213.256,120.325Z"/><path class="d" d="M203.846,110.915a.941.941,0,1,0,.941.942A.941.941,0,0,0,203.846,110.915Z"/><path class="d" d="M213.256,110.915a.941.941,0,1,0,.942.942A.941.941,0,0,0,213.256,110.915Z"/><path class="d" d="M199.922,125.446a.941.941,0,0,0-1.722.526.953.953,0,0,0,.074.366.941.941,0,1,0,1.648-.892Z"/><path class="d" d="M199.141,115.621a.941.941,0,1,0,.941.94A.94.94,0,0,0,199.141,115.621Z"/><path class="d" d="M208.551,143.852a.939.939,0,0,0-.921.751.9.9,0,0,0-.019.189.941.941,0,0,0,1.882,0,.905.905,0,0,0-.02-.189A.94.94,0,0,0,208.551,143.852Z"/><path class="d" d="M208.551,134.441a.942.942,0,1,0,.942.941A.94.94,0,0,0,208.551,134.441Z"/><path class="d" d="M203.846,139.146a.942.942,0,1,0,.941.942A.941.941,0,0,0,203.846,139.146Z"/><path class="d" d="M213.256,139.146a.942.942,0,1,0,.942.942A.941.941,0,0,0,213.256,139.146Z"/><path class="d" d="M203.846,129.736a.941.941,0,1,0,.941.941A.941.941,0,0,0,203.846,129.736Z"/><path class="d" d="M213.256,129.736a.941.941,0,1,0,.942.941A.941.941,0,0,0,213.256,129.736Z"/><path class="d" d="M199.141,143.852a.941.941,0,0,0-.922.751.978.978,0,0,0-.019.189.941.941,0,0,0,1.882,0,.9.9,0,0,0-.019-.189A.941.941,0,0,0,199.141,143.852Z"/><path class="d" d="M199.141,134.441a.942.942,0,1,0,.941.941A.941.941,0,0,0,199.141,134.441Z"/><path class="d" d="M209.332,163.087a.941.941,0,0,0-1.721.526.927.927,0,0,0,.074.366.94.94,0,0,0,1.733,0,.928.928,0,0,0,.075-.366A.939.939,0,0,0,209.332,163.087Z"/><path class="d" d="M208.551,153.262a.942.942,0,1,0,.942.941A.94.94,0,0,0,208.551,153.262Z"/><path class="d" d="M203.846,157.967a.941.941,0,1,0,.941.942A.941.941,0,0,0,203.846,157.967Z"/><path class="d" d="M213.256,157.967a.941.941,0,1,0,.942.942A.941.941,0,0,0,213.256,157.967Z"/><path class="d" d="M203.846,148.556a.941.941,0,1,0,.941.942A.941.941,0,0,0,203.846,148.556Z"/><path class="d" d="M213.256,148.556a.941.941,0,1,0,.942.942A.941.941,0,0,0,213.256,148.556Z"/><path class="d" d="M199.922,163.087a.942.942,0,1,0,.086.892.927.927,0,0,0,.074-.366A.939.939,0,0,0,199.922,163.087Z"/><path class="d" d="M199.141,153.262a.942.942,0,1,0,.941.941A.941.941,0,0,0,199.141,153.262Z"/><path class="d" d="M208.551,181.493a.94.94,0,0,0-.921.751.921.921,0,0,0-.019.19.941.941,0,0,0,1.882,0,.922.922,0,0,0-.02-.19A.941.941,0,0,0,208.551,181.493Z"/><path class="d" d="M208.551,172.083a.942.942,0,1,0,.942.941A.94.94,0,0,0,208.551,172.083Z"/><path class="d" d="M203.846,176.787a.941.941,0,1,0,.941.942A.941.941,0,0,0,203.846,176.787Z"/><path class="d" d="M213.256,176.787a.941.941,0,1,0,.942.942A.941.941,0,0,0,213.256,176.787Z"/><path class="d" d="M203.846,167.377a.941.941,0,1,0,.941.942A.941.941,0,0,0,203.846,167.377Z"/><path class="d" d="M213.256,167.377a.941.941,0,1,0,.942.942A.941.941,0,0,0,213.256,167.377Z"/><path class="d" d="M199.141,181.493a.942.942,0,0,0-.922.751,1,1,0,0,0-.019.19.941.941,0,0,0,1.882,0,.921.921,0,0,0-.019-.19A.942.942,0,0,0,199.141,181.493Z"/><path class="d" d="M199.141,172.083a.942.942,0,1,0,.941.941A.941.941,0,0,0,199.141,172.083Z"/><path class="d" d="M209.332,200.729a.936.936,0,1,0,.161.526A.942.942,0,0,0,209.332,200.729Z"/><path class="d" d="M208.551,190.9a.941.941,0,1,0,.942.94A.94.94,0,0,0,208.551,190.9Z"/><path class="d" d="M203.846,195.608a.941.941,0,1,0,.941.942A.941.941,0,0,0,203.846,195.608Z"/><path class="d" d="M213.256,195.608a.941.941,0,1,0,.942.942A.941.941,0,0,0,213.256,195.608Z"/><path class="d" d="M203.846,186.2a.941.941,0,1,0,.941.942A.941.941,0,0,0,203.846,186.2Z"/><path class="d" d="M213.256,186.2a.941.941,0,1,0,.942.942A.941.941,0,0,0,213.256,186.2Z"/><path class="d" d="M199.141,200.314a.942.942,0,0,0-.941.941.953.953,0,0,0,.074.366.941.941,0,1,0,.867-1.307Z"/><path class="d" d="M199.141,190.9a.941.941,0,1,0,.941.94A.94.94,0,0,0,199.141,190.9Z"/><path class="d" d="M203.846,205.018a.936.936,0,0,0-.876,1.279c.537.084,1.077.16,1.616.238a.931.931,0,0,0,.2-.575A.941.941,0,0,0,203.846,205.018Z"/><path class="d" d="M212.315,205.96a.941.941,0,1,0,.941-.942A.941.941,0,0,0,212.315,205.96Z"/><path class="d" d="M199.141,61.041a.941.941,0,1,0-.941-.942A.941.941,0,0,0,199.141,61.041Z"/><path class="d" d="M189.731,59.158a.941.941,0,1,0,.941.941A.94.94,0,0,0,189.731,59.158Z"/><path class="d" d="M185.026,63.863a.942.942,0,1,0,.941.942A.941.941,0,0,0,185.026,63.863Z"/><path class="d" d="M194.436,65.746a.942.942,0,1,0-.941-.941A.942.942,0,0,0,194.436,65.746Z"/><path class="d" d="M180.511,68.588a.914.914,0,0,0-.19-.019.931.931,0,0,0-.366.074.942.942,0,0,0-.556.677.987.987,0,0,0-.019.19.941.941,0,0,0,.575.866.931.931,0,0,0,.366.074.914.914,0,0,0,.19-.019.941.941,0,0,0,.751-.921.914.914,0,0,0-.019-.19A.942.942,0,0,0,180.511,68.588Z"/><path class="d" d="M189.731,77.979a.942.942,0,1,0,.941.941A.94.94,0,0,0,189.731,77.979Z"/><path class="d" d="M185.026,82.684a.941.941,0,1,0,.941.942A.941.941,0,0,0,185.026,82.684Z"/><path class="d" d="M194.436,82.684a.941.941,0,1,0,.942.942A.941.941,0,0,0,194.436,82.684Z"/><path class="d" d="M185.026,73.273a.941.941,0,1,0,.941.942A.941.941,0,0,0,185.026,73.273Z"/><path class="d" d="M194.436,73.273a.941.941,0,1,0,.942.942A.941.941,0,0,0,194.436,73.273Z"/><path class="d" d="M181.1,87.8a.939.939,0,0,0-.59-.4.914.914,0,0,0-.19-.019.934.934,0,0,0-.78.414.932.932,0,0,0-.161.526.941.941,0,0,0,.941.941.987.987,0,0,0,.19-.019.942.942,0,0,0,.677-.556.941.941,0,0,0-.087-.892Z"/><path class="d" d="M180.511,78a.987.987,0,0,0-.19-.019.942.942,0,1,0,0,1.883.987.987,0,0,0,.19-.019.942.942,0,0,0,0-1.845Z"/><path class="d" d="M189.731,70.45a.94.94,0,0,0,.941-.94.914.914,0,0,0-.019-.19.941.941,0,0,0-1.843,0,.914.914,0,0,0-.019.19A.94.94,0,0,0,189.731,70.45Z"/><path class="d" d="M189.731,96.8a.941.941,0,1,0,.941.941A.94.94,0,0,0,189.731,96.8Z"/><path class="d" d="M185.026,101.5a.941.941,0,1,0,.941.941A.941.941,0,0,0,185.026,101.5Z"/><path class="d" d="M194.436,101.5a.941.941,0,1,0,.942.941A.941.941,0,0,0,194.436,101.5Z"/><path class="d" d="M185.026,92.094a.941.941,0,1,0,.941.942A.941.941,0,0,0,185.026,92.094Z"/><path class="d" d="M194.436,92.094a.941.941,0,1,0,.942.942A.941.941,0,0,0,194.436,92.094Z"/><path class="d" d="M180.511,106.229a.988.988,0,0,0-.19-.019.941.941,0,0,0-.922.751,1,1,0,0,0-.019.19.941.941,0,0,0,.941.941.914.914,0,0,0,.19-.02.94.94,0,0,0,.751-.921.921.921,0,0,0-.019-.19A.944.944,0,0,0,180.511,106.229Z"/><path class="d" d="M180.511,96.819a.914.914,0,0,0-.19-.019.931.931,0,0,0-.366.074.941.941,0,0,0,0,1.734.931.931,0,0,0,.366.074.914.914,0,0,0,.19-.019.941.941,0,0,0,0-1.844Z"/><path class="d" d="M189.731,89.271a.938.938,0,1,0-.867-.575A.942.942,0,0,0,189.731,89.271Z"/><path class="d" d="M189.731,115.621a.941.941,0,1,0,.941.94A.94.94,0,0,0,189.731,115.621Z"/><path class="d" d="M185.026,120.325a.942.942,0,1,0,.941.942A.941.941,0,0,0,185.026,120.325Z"/><path class="d" d="M194.436,120.325a.942.942,0,1,0,.942.942A.941.941,0,0,0,194.436,120.325Z"/><path class="d" d="M185.026,110.915a.941.941,0,1,0,.941.942A.941.941,0,0,0,185.026,110.915Z"/><path class="d" d="M194.436,110.915a.941.941,0,1,0,.942.942A.941.941,0,0,0,194.436,110.915Z"/><path class="d" d="M181.1,125.446a.94.94,0,0,0-.59-.4.987.987,0,0,0-.19-.019.942.942,0,0,0-.941.941.953.953,0,0,0,.074.366.943.943,0,0,0,.5.5.931.931,0,0,0,.366.074.914.914,0,0,0,.19-.019.94.94,0,0,0,.751-.921A.932.932,0,0,0,181.1,125.446Z"/><path class="d" d="M180.511,115.64a.914.914,0,0,0-.19-.019.941.941,0,0,0-.941.94.942.942,0,0,0,.575.868.931.931,0,0,0,.366.074.914.914,0,0,0,.19-.019.941.941,0,0,0,0-1.844Z"/><path class="d" d="M189.731,108.092a.941.941,0,0,0,.941-.941.921.921,0,0,0-.019-.19.941.941,0,0,0-1.843,0,.921.921,0,0,0-.019.19A.94.94,0,0,0,189.731,108.092Z"/><path class="d" d="M189.731,134.441a.942.942,0,1,0,.941.941A.94.94,0,0,0,189.731,134.441Z"/><path class="d" d="M185.026,139.146a.942.942,0,1,0,.941.942A.941.941,0,0,0,185.026,139.146Z"/><path class="d" d="M194.436,139.146a.942.942,0,1,0,.942.942A.941.941,0,0,0,194.436,139.146Z"/><path class="d" d="M185.026,129.736a.941.941,0,1,0,.941.941A.941.941,0,0,0,185.026,129.736Z"/><path class="d" d="M194.436,129.736a.941.941,0,1,0,.942.941A.941.941,0,0,0,194.436,129.736Z"/><path class="d" d="M180.511,143.871a.914.914,0,0,0-.19-.019.931.931,0,0,0-.366.074.942.942,0,0,0-.556.677.976.976,0,0,0-.019.189.941.941,0,0,0,.575.867.931.931,0,0,0,.366.074.988.988,0,0,0,.19-.019.941.941,0,0,0,.751-.922.9.9,0,0,0-.019-.189A.941.941,0,0,0,180.511,143.871Z"/><path class="d" d="M180.511,134.461a.914.914,0,0,0-.19-.02.942.942,0,0,0-.366,1.809.931.931,0,0,0,.366.074.987.987,0,0,0,.19-.019.941.941,0,0,0,0-1.844Z"/><path class="d" d="M189.731,126.912a.937.937,0,1,0-.867-.574A.943.943,0,0,0,189.731,126.912Z"/><path class="d" d="M189.731,153.262a.942.942,0,1,0,.941.941A.94.94,0,0,0,189.731,153.262Z"/><path class="d" d="M185.026,157.967a.941.941,0,1,0,.941.942A.941.941,0,0,0,185.026,157.967Z"/><path class="d" d="M194.436,157.967a.941.941,0,1,0,.942.942A.941.941,0,0,0,194.436,157.967Z"/><path class="d" d="M185.026,148.556a.941.941,0,1,0,.941.942A.941.941,0,0,0,185.026,148.556Z"/><path class="d" d="M194.436,148.556a.941.941,0,1,0,.942.942A.941.941,0,0,0,194.436,148.556Z"/><path class="d" d="M181.1,163.087a.939.939,0,0,0-.59-.4.914.914,0,0,0-.19-.02.94.94,0,0,0-.78.415.932.932,0,0,0-.161.526.941.941,0,0,0,.575.867.931.931,0,0,0,.366.074.988.988,0,0,0,.19-.019.942.942,0,0,0,.677-.556.941.941,0,0,0-.087-.892Z"/><path class="d" d="M180.511,153.281a.987.987,0,0,0-.19-.019.931.931,0,0,0-.366.074.942.942,0,0,0,.366,1.809.988.988,0,0,0,.19-.019.942.942,0,0,0,0-1.845Z"/><path class="d" d="M189.731,145.733a.941.941,0,0,0,.941-.941.9.9,0,0,0-.019-.189.941.941,0,0,0-1.843,0,.9.9,0,0,0-.019.189A.94.94,0,0,0,189.731,145.733Z"/><path class="d" d="M189.731,172.083a.942.942,0,1,0,.941.941A.94.94,0,0,0,189.731,172.083Z"/><path class="d" d="M185.026,176.787a.941.941,0,1,0,.941.942A.941.941,0,0,0,185.026,176.787Z"/><path class="d" d="M194.436,176.787a.941.941,0,1,0,.942.942A.941.941,0,0,0,194.436,176.787Z"/><path class="d" d="M185.026,167.377a.941.941,0,1,0,.941.942A.941.941,0,0,0,185.026,167.377Z"/><path class="d" d="M194.436,167.377a.941.941,0,1,0,.942.942A.941.941,0,0,0,194.436,167.377Z"/><path class="d" d="M180.511,181.512a.988.988,0,0,0-.19-.019.941.941,0,0,0-.922.751,1,1,0,0,0-.019.19.938.938,0,0,0,.941.94.914.914,0,0,0,.19-.019.94.94,0,0,0,.751-.921.921.921,0,0,0-.019-.19A.942.942,0,0,0,180.511,181.512Z"/><path class="d" d="M180.511,172.1a.914.914,0,0,0-.19-.019.931.931,0,0,0-.366.074.942.942,0,0,0,.366,1.809.914.914,0,0,0,.19-.02.941.941,0,0,0,0-1.844Z"/><path class="d" d="M189.731,164.554a.938.938,0,1,0-.867-.575A.942.942,0,0,0,189.731,164.554Z"/><path class="d" d="M190.512,200.729a.948.948,0,1,0,.16.526A.943.943,0,0,0,190.512,200.729Z"/><path class="d" d="M189.731,190.9a.941.941,0,1,0,.941.94A.94.94,0,0,0,189.731,190.9Z"/><path class="d" d="M185.026,197.491a.941.941,0,1,0-.941-.941A.941.941,0,0,0,185.026,197.491Z"/><path class="d" d="M194.436,195.608a.941.941,0,1,0,.942.942A.941.941,0,0,0,194.436,195.608Z"/><path class="d" d="M184.085,187.14a.941.941,0,1,0,.941-.942A.94.94,0,0,0,184.085,187.14Z"/><path class="d" d="M194.436,186.2a.941.941,0,1,0,.942.942A.941.941,0,0,0,194.436,186.2Z"/><path class="d" d="M180.511,200.333a.915.915,0,0,0-.19-.019.918.918,0,0,0-.642.257c.519.176,1.044.342,1.566.513a.938.938,0,0,0-.734-.751Z"/><path class="d" d="M180.511,192.767a.941.941,0,0,0,0-1.844.914.914,0,0,0-.19-.019.941.941,0,0,0-.366,1.808.931.931,0,0,0,.366.074A.987.987,0,0,0,180.511,192.767Z"/><path class="d" d="M189.731,183.374a.94.94,0,0,0,.941-.94.921.921,0,0,0-.019-.19.941.941,0,0,0-1.843,0,.921.921,0,0,0-.019.19A.94.94,0,0,0,189.731,183.374Z"/><path class="d" d="M170.911,68.569a.941.941,0,0,0-.922.751.988.988,0,0,0-.018.19.941.941,0,0,0,1.881,0,.914.914,0,0,0-.019-.19A.941.941,0,0,0,170.911,68.569Z"/><path class="d" d="M179.955,60.967a.931.931,0,0,0,.366.074.987.987,0,0,0,.19-.019.941.941,0,0,0,0-1.844.914.914,0,0,0-.19-.02.942.942,0,0,0-.366,1.809Z"/><path class="d" d="M170.911,61.041a.942.942,0,1,0-.94-.942A.941.941,0,0,0,170.911,61.041Z"/><path class="d" d="M166.206,65.746a.942.942,0,1,0-.941-.941A.942.942,0,0,0,166.206,65.746Z"/><path class="d" d="M175.616,65.746a.942.942,0,1,0-.941-.941A.942.942,0,0,0,175.616,65.746Z"/><path class="d" d="M162.423,69.32a.941.941,0,0,0-1.844,0,.988.988,0,0,0-.019.19.941.941,0,0,0,1.882,0A.988.988,0,0,0,162.423,69.32Z"/><path class="d" d="M171.691,87.8a.941.941,0,1,0,.087.892.941.941,0,0,0-.087-.892Z"/><path class="d" d="M170.911,77.979a.942.942,0,1,0,.941.941A.94.94,0,0,0,170.911,77.979Z"/><path class="d" d="M166.206,82.684a.941.941,0,1,0,.941.942A.941.941,0,0,0,166.206,82.684Z"/><path class="d" d="M175.616,82.684a.941.941,0,1,0,.942.942A.941.941,0,0,0,175.616,82.684Z"/><path class="d" d="M166.206,73.273a.941.941,0,1,0,.941.942A.941.941,0,0,0,166.206,73.273Z"/><path class="d" d="M175.616,73.273a.941.941,0,1,0,.942.942A.941.941,0,0,0,175.616,73.273Z"/><path class="d" d="M162.281,87.8a.942.942,0,0,0-1.56,0,.941.941,0,1,0,1.56,0Z"/><path class="d" d="M162.027,78.14a.941.941,0,0,0-1.467.78.941.941,0,1,0,1.467-.78Z"/><path class="d" d="M170.911,106.21a.942.942,0,0,0-.922.751,1,1,0,0,0-.018.19.941.941,0,1,0,1.881,0,.921.921,0,0,0-.019-.19A.942.942,0,0,0,170.911,106.21Z"/><path class="d" d="M170.911,96.8a.941.941,0,1,0,.941.941A.94.94,0,0,0,170.911,96.8Z"/><path class="d" d="M166.206,101.5a.941.941,0,1,0,.941.941A.941.941,0,0,0,166.206,101.5Z"/><path class="d" d="M175.616,101.5a.941.941,0,1,0,.942.941A.941.941,0,0,0,175.616,101.5Z"/><path class="d" d="M166.206,92.094a.941.941,0,1,0,.941.942A.941.941,0,0,0,166.206,92.094Z"/><path class="d" d="M175.616,92.094a.941.941,0,1,0,.942.942A.941.941,0,0,0,175.616,92.094Z"/><path class="d" d="M162.423,106.961a.941.941,0,0,0-1.844,0,1,1,0,0,0-.019.19.941.941,0,0,0,1.882,0A1,1,0,0,0,162.423,106.961Z"/><path class="d" d="M162.027,96.961a.941.941,0,0,0-1.467.78.941.941,0,0,0,.941.941.941.941,0,0,0,.526-1.721Z"/><path class="d" d="M171.691,125.446a.94.94,0,0,0-1.72.526.952.952,0,0,0,.073.366.941.941,0,0,0,1.808-.366A.932.932,0,0,0,171.691,125.446Z"/><path class="d" d="M170.911,115.621a.941.941,0,1,0,.941.94A.94.94,0,0,0,170.911,115.621Z"/><path class="d" d="M166.206,120.325a.942.942,0,1,0,.941.942A.941.941,0,0,0,166.206,120.325Z"/><path class="d" d="M175.616,120.325a.942.942,0,1,0,.942.942A.941.941,0,0,0,175.616,120.325Z"/><path class="d" d="M166.206,110.915a.941.941,0,1,0,.941.942A.941.941,0,0,0,166.206,110.915Z"/><path class="d" d="M175.616,110.915a.941.941,0,1,0,.942.942A.941.941,0,0,0,175.616,110.915Z"/><path class="d" d="M162.281,125.446a.941.941,0,0,0-1.647.892.941.941,0,0,0,1.808-.366A.932.932,0,0,0,162.281,125.446Z"/><path class="d" d="M162.027,115.781a.941.941,0,1,0,.415.78A.939.939,0,0,0,162.027,115.781Z"/><path class="d" d="M170.911,143.852a.941.941,0,0,0-.922.751.978.978,0,0,0-.018.189.941.941,0,1,0,1.881,0,.9.9,0,0,0-.019-.189A.941.941,0,0,0,170.911,143.852Z"/><path class="d" d="M170.911,134.441a.942.942,0,1,0,.941.941A.94.94,0,0,0,170.911,134.441Z"/><path class="d" d="M166.206,139.146a.942.942,0,1,0,.941.942A.941.941,0,0,0,166.206,139.146Z"/><path class="d" d="M175.616,139.146a.942.942,0,1,0,.942.942A.941.941,0,0,0,175.616,139.146Z"/><path class="d" d="M166.206,129.736a.941.941,0,1,0,.941.941A.941.941,0,0,0,166.206,129.736Z"/><path class="d" d="M175.616,129.736a.941.941,0,1,0,.942.941A.941.941,0,0,0,175.616,129.736Z"/><path class="d" d="M162.423,144.6a.941.941,0,0,0-1.844,0,.978.978,0,0,0-.019.189.941.941,0,0,0,1.882,0A.978.978,0,0,0,162.423,144.6Z"/><path class="d" d="M162.027,134.6a.941.941,0,1,0,.415.78A.939.939,0,0,0,162.027,134.6Z"/><path class="d" d="M171.691,163.087a.941.941,0,1,0,.087.892.941.941,0,0,0-.087-.892Z"/><path class="d" d="M170.911,153.262a.942.942,0,1,0,.941.941A.94.94,0,0,0,170.911,153.262Z"/><path class="d" d="M166.206,157.967a.941.941,0,1,0,.941.942A.941.941,0,0,0,166.206,157.967Z"/><path class="d" d="M175.616,157.967a.941.941,0,1,0,.942.942A.941.941,0,0,0,175.616,157.967Z"/><path class="d" d="M166.206,148.556a.941.941,0,1,0,.941.942A.941.941,0,0,0,166.206,148.556Z"/><path class="d" d="M175.616,148.556a.941.941,0,1,0,.942.942A.941.941,0,0,0,175.616,148.556Z"/><path class="d" d="M162.281,163.087a.941.941,0,0,0-1.56,0,.941.941,0,1,0,1.56,0Z"/><path class="d" d="M162.027,153.423a.941.941,0,0,0-1.467.78.941.941,0,1,0,1.467-.78Z"/><path class="d" d="M170.911,181.493a.942.942,0,0,0-.922.751,1,1,0,0,0-.018.19.941.941,0,0,0,1.881,0,.921.921,0,0,0-.019-.19A.942.942,0,0,0,170.911,181.493Z"/><path class="d" d="M170.911,172.083a.942.942,0,1,0,.941.941A.94.94,0,0,0,170.911,172.083Z"/><path class="d" d="M166.206,176.787a.941.941,0,1,0,.941.942A.941.941,0,0,0,166.206,176.787Z"/><path class="d" d="M175.616,176.787a.941.941,0,1,0,.942.942A.941.941,0,0,0,175.616,176.787Z"/><path class="d" d="M166.206,167.377a.941.941,0,1,0,.941.942A.941.941,0,0,0,166.206,167.377Z"/><path class="d" d="M175.616,167.377a.941.941,0,1,0,.942.942A.941.941,0,0,0,175.616,167.377Z"/><path class="d" d="M162.423,182.244a.941.941,0,0,0-1.844,0,1,1,0,0,0-.019.19.941.941,0,0,0,1.882,0A1,1,0,0,0,162.423,182.244Z"/><path class="d" d="M162.027,172.243a.941.941,0,1,0,.415.781A.939.939,0,0,0,162.027,172.243Z"/><path class="d" d="M170.911,192.786a.941.941,0,1,0-.94-.942A.941.941,0,0,0,170.911,192.786Z"/><path class="d" d="M175.616,195.608a.941.941,0,1,0,.942.942A.941.941,0,0,0,175.616,195.608Z"/><path class="d" d="M165.265,187.14a.941.941,0,1,0,.941-.942A.94.94,0,0,0,165.265,187.14Z"/><path class="d" d="M175.616,186.2a.941.941,0,1,0,.942.942A.941.941,0,0,0,175.616,186.2Z"/><path class="d" d="M162.027,191.064a.941.941,0,1,0,.415.78A.939.939,0,0,0,162.027,191.064Z"/><path class="d" d="M161.5,61.041a.941.941,0,0,0,0-1.883.941.941,0,0,0,0,1.883Z"/><path class="d" d="M152.091,59.158a.941.941,0,1,0,.941.941A.941.941,0,0,0,152.091,59.158Z"/><path class="d" d="M147.386,63.863a.942.942,0,1,0,.941.942A.941.941,0,0,0,147.386,63.863Z"/><path class="d" d="M156.8,65.746a.942.942,0,1,0-.941-.941A.942.942,0,0,0,156.8,65.746Z"/><path class="d" d="M142.871,68.588a.914.914,0,0,0-.19-.019.928.928,0,0,0-.366.074.942.942,0,0,0-.556.677.987.987,0,0,0-.019.19.941.941,0,0,0,.575.866.927.927,0,0,0,.366.074.914.914,0,0,0,.19-.019.941.941,0,0,0,.751-.921.987.987,0,0,0-.019-.19A.942.942,0,0,0,142.871,68.588Z"/><path class="d" d="M152.091,77.979a.942.942,0,1,0,.941.941A.941.941,0,0,0,152.091,77.979Z"/><path class="d" d="M147.386,82.684a.941.941,0,1,0,.941.942A.941.941,0,0,0,147.386,82.684Z"/><path class="d" d="M156.8,82.684a.941.941,0,1,0,.942.942A.941.941,0,0,0,156.8,82.684Z"/><path class="d" d="M147.386,73.273a.941.941,0,1,0,.941.942A.941.941,0,0,0,147.386,73.273Z"/><path class="d" d="M156.8,73.273a.941.941,0,1,0,.942.942A.941.941,0,0,0,156.8,73.273Z"/><path class="d" d="M143.461,87.8a.939.939,0,0,0-.59-.4.914.914,0,0,0-.19-.019.934.934,0,0,0-.78.414.941.941,0,0,0-.087.892.941.941,0,0,0,.867.575.987.987,0,0,0,.19-.019.942.942,0,0,0,.677-.556.941.941,0,0,0-.087-.892Z"/><path class="d" d="M142.871,78a.987.987,0,0,0-.19-.019.942.942,0,1,0,0,1.883.987.987,0,0,0,.19-.019.942.942,0,0,0,0-1.845Z"/><path class="d" d="M152.091,70.45a.941.941,0,0,0,.941-.94.914.914,0,0,0-.019-.19.941.941,0,0,0-1.844,0,.987.987,0,0,0-.019.19A.94.94,0,0,0,152.091,70.45Z"/><path class="d" d="M152.091,96.8a.941.941,0,1,0,.941.941A.941.941,0,0,0,152.091,96.8Z"/><path class="d" d="M147.386,101.5a.941.941,0,1,0,.941.941A.941.941,0,0,0,147.386,101.5Z"/><path class="d" d="M156.8,101.5a.941.941,0,1,0,.942.941A.941.941,0,0,0,156.8,101.5Z"/><path class="d" d="M147.386,92.094a.941.941,0,1,0,.941.942A.941.941,0,0,0,147.386,92.094Z"/><path class="d" d="M156.8,92.094a.941.941,0,1,0,.942.942A.941.941,0,0,0,156.8,92.094Z"/><path class="d" d="M142.871,106.229a.988.988,0,0,0-.19-.019.941.941,0,0,0-.922.751,1,1,0,0,0-.019.19.941.941,0,0,0,.941.941.914.914,0,0,0,.19-.02.94.94,0,0,0,.751-.921,1,1,0,0,0-.019-.19A.944.944,0,0,0,142.871,106.229Z"/><path class="d" d="M142.871,96.819a.914.914,0,0,0-.19-.019.927.927,0,0,0-.366.074.941.941,0,0,0,0,1.734.928.928,0,0,0,.366.074.914.914,0,0,0,.19-.019.941.941,0,0,0,0-1.844Z"/><path class="d" d="M152.091,89.271a.941.941,0,0,0,.867-.575.927.927,0,0,0,.074-.366.941.941,0,1,0-.941.941Z"/><path class="d" d="M152.091,115.621a.941.941,0,1,0,.941.94A.94.94,0,0,0,152.091,115.621Z"/><path class="d" d="M147.386,120.325a.942.942,0,1,0,.941.942A.941.941,0,0,0,147.386,120.325Z"/><path class="d" d="M156.8,120.325a.942.942,0,1,0,.942.942A.941.941,0,0,0,156.8,120.325Z"/><path class="d" d="M147.386,110.915a.941.941,0,1,0,.941.942A.941.941,0,0,0,147.386,110.915Z"/><path class="d" d="M156.8,110.915a.941.941,0,1,0,.942.942A.941.941,0,0,0,156.8,110.915Z"/><path class="d" d="M143.461,125.446a.94.94,0,0,0-.59-.4.987.987,0,0,0-.19-.019.927.927,0,0,0-.366.074.94.94,0,0,0,0,1.733.927.927,0,0,0,.366.074.914.914,0,0,0,.19-.019.94.94,0,0,0,.751-.921A.932.932,0,0,0,143.461,125.446Z"/><path class="d" d="M142.871,115.64a.914.914,0,0,0-.19-.019.928.928,0,0,0-.366.074.941.941,0,0,0,0,1.734.928.928,0,0,0,.366.074.914.914,0,0,0,.19-.019.941.941,0,0,0,0-1.844Z"/><path class="d" d="M152.091,108.092a.942.942,0,0,0,.941-.941.921.921,0,0,0-.019-.19.941.941,0,0,0-1.844,0,1,1,0,0,0-.019.19A.941.941,0,0,0,152.091,108.092Z"/><path class="d" d="M152.091,134.441a.942.942,0,1,0,.941.941A.941.941,0,0,0,152.091,134.441Z"/><path class="d" d="M147.386,139.146a.942.942,0,1,0,.941.942A.941.941,0,0,0,147.386,139.146Z"/><path class="d" d="M156.8,139.146a.942.942,0,1,0,.942.942A.941.941,0,0,0,156.8,139.146Z"/><path class="d" d="M147.386,129.736a.941.941,0,1,0,.941.941A.941.941,0,0,0,147.386,129.736Z"/><path class="d" d="M156.8,129.736a.941.941,0,1,0,.942.941A.941.941,0,0,0,156.8,129.736Z"/><path class="d" d="M142.871,143.871a.914.914,0,0,0-.19-.019.928.928,0,0,0-.366.074.942.942,0,0,0-.556.677.976.976,0,0,0-.019.189.941.941,0,0,0,.575.867.927.927,0,0,0,.366.074.988.988,0,0,0,.19-.019.941.941,0,0,0,.751-.922.976.976,0,0,0-.019-.189A.941.941,0,0,0,142.871,143.871Z"/><path class="d" d="M142.871,134.461a.914.914,0,0,0-.19-.02.942.942,0,0,0-.366,1.809.927.927,0,0,0,.366.074.987.987,0,0,0,.19-.019.941.941,0,0,0,0-1.844Z"/><path class="d" d="M152.091,126.912a.941.941,0,1,0-.78-1.466.932.932,0,0,0-.161.526.953.953,0,0,0,.074.366A.942.942,0,0,0,152.091,126.912Z"/><path class="d" d="M152.091,153.262a.942.942,0,1,0,.941.941A.941.941,0,0,0,152.091,153.262Z"/><path class="d" d="M147.386,157.967a.941.941,0,1,0,.941.942A.941.941,0,0,0,147.386,157.967Z"/><path class="d" d="M156.8,157.967a.941.941,0,1,0,.942.942A.941.941,0,0,0,156.8,157.967Z"/><path class="d" d="M147.386,148.556a.941.941,0,1,0,.941.942A.941.941,0,0,0,147.386,148.556Z"/><path class="d" d="M156.8,148.556a.941.941,0,1,0,.942.942A.941.941,0,0,0,156.8,148.556Z"/><path class="d" d="M142.871,162.692a.914.914,0,0,0-.19-.02.94.94,0,0,0-.78.415.941.941,0,0,0-.087.892.945.945,0,0,0,.5.5.927.927,0,0,0,.366.074.988.988,0,0,0,.19-.019.942.942,0,0,0,.677-.556.941.941,0,0,0-.087-.892A.939.939,0,0,0,142.871,162.692Z"/><path class="d" d="M142.871,153.281a.987.987,0,0,0-.19-.019.927.927,0,0,0-.366.074.941.941,0,0,0,0,1.734.928.928,0,0,0,.366.075.988.988,0,0,0,.19-.019.942.942,0,0,0,0-1.845Z"/><path class="d" d="M152.091,145.733a.941.941,0,0,0,.941-.941.9.9,0,0,0-.019-.189.941.941,0,0,0-1.844,0,.976.976,0,0,0-.019.189A.941.941,0,0,0,152.091,145.733Z"/><path class="d" d="M152.091,181.493a.942.942,0,0,0-.922.751,1,1,0,0,0-.019.19.941.941,0,0,0,1.882,0,.921.921,0,0,0-.019-.19A.942.942,0,0,0,152.091,181.493Z"/><path class="d" d="M152.091,172.083a.942.942,0,1,0,.941.941A.941.941,0,0,0,152.091,172.083Z"/><path class="d" d="M147.386,178.67a.941.941,0,1,0-.941-.941A.941.941,0,0,0,147.386,178.67Z"/><path class="d" d="M156.8,176.787a.941.941,0,1,0,.942.942A.941.941,0,0,0,156.8,176.787Z"/><path class="d" d="M146.445,168.319a.941.941,0,1,0,.941-.942A.941.941,0,0,0,146.445,168.319Z"/><path class="d" d="M156.8,167.377a.941.941,0,1,0,.942.942A.941.941,0,0,0,156.8,167.377Z"/><path class="d" d="M143.512,182a.938.938,0,0,0-.641-.49c-.011,0-.024,0-.035,0C143.062,181.672,143.285,181.84,143.512,182Z"/><path class="d" d="M142.871,173.946a.941.941,0,0,0,0-1.844.914.914,0,0,0-.19-.019.927.927,0,0,0-.366.074.941.941,0,0,0,0,1.734.928.928,0,0,0,.366.075A.914.914,0,0,0,142.871,173.946Z"/><path class="d" d="M152.091,164.554a.941.941,0,0,0,.867-.575.927.927,0,0,0,.074-.366.941.941,0,1,0-.941.941Z"/><path class="d" d="M155.855,187.14a.942.942,0,1,0,.941-.942A.94.94,0,0,0,155.855,187.14Z"/><path class="d" d="M133.271,68.569a.941.941,0,0,0-.922.751.988.988,0,0,0-.019.19.941.941,0,0,0,1.882,0,.914.914,0,0,0-.019-.19A.942.942,0,0,0,133.271,68.569Z"/><path class="d" d="M142.315,60.967a.927.927,0,0,0,.366.074.987.987,0,0,0,.19-.019.941.941,0,0,0,0-1.844.914.914,0,0,0-.19-.02.942.942,0,0,0-.366,1.809Z"/><path class="d" d="M133.271,61.041a.941.941,0,1,0-.941-.942A.942.942,0,0,0,133.271,61.041Z"/><path class="d" d="M128.566,65.746a.942.942,0,1,0-.941-.941A.942.942,0,0,0,128.566,65.746Z"/><path class="d" d="M137.976,65.746a.942.942,0,1,0-.941-.941A.941.941,0,0,0,137.976,65.746Z"/><path class="d" d="M134.051,87.8a.941.941,0,1,0,.087.892.941.941,0,0,0-.087-.892Z"/><path class="d" d="M133.271,77.979a.942.942,0,1,0,.941.941A.941.941,0,0,0,133.271,77.979Z"/><path class="d" d="M128.566,82.684a.941.941,0,1,0,.941.942A.941.941,0,0,0,128.566,82.684Z"/><path class="d" d="M137.976,82.684a.941.941,0,1,0,.941.942A.941.941,0,0,0,137.976,82.684Z"/><path class="d" d="M128.566,73.273a.941.941,0,1,0,.941.942A.941.941,0,0,0,128.566,73.273Z"/><path class="d" d="M137.976,73.273a.941.941,0,1,0,.941.942A.941.941,0,0,0,137.976,73.273Z"/><path class="d" d="M124.387,78.14a.941.941,0,0,0-1.467.78.941.941,0,1,0,1.467-.78Z"/><path class="d" d="M133.271,106.21a.942.942,0,0,0-.922.751,1,1,0,0,0-.019.19.941.941,0,1,0,1.882,0,.921.921,0,0,0-.019-.19A.943.943,0,0,0,133.271,106.21Z"/><path class="d" d="M133.271,96.8a.941.941,0,1,0,.941.941A.941.941,0,0,0,133.271,96.8Z"/><path class="d" d="M128.566,101.5a.941.941,0,1,0,.941.941A.941.941,0,0,0,128.566,101.5Z"/><path class="d" d="M137.976,101.5a.941.941,0,1,0,.941.941A.941.941,0,0,0,137.976,101.5Z"/><path class="d" d="M128.566,92.094a.941.941,0,1,0,.941.942A.941.941,0,0,0,128.566,92.094Z"/><path class="d" d="M137.976,92.094a.941.941,0,1,0,.941.942A.941.941,0,0,0,137.976,92.094Z"/><path class="d" d="M134.051,125.446a.941.941,0,0,0-1.721.526.953.953,0,0,0,.074.366.941.941,0,0,0,1.808-.366A.932.932,0,0,0,134.051,125.446Z"/><path class="d" d="M133.271,115.621a.941.941,0,1,0,.941.94A.94.94,0,0,0,133.271,115.621Z"/><path class="d" d="M128.566,120.325a.942.942,0,1,0,.941.942A.941.941,0,0,0,128.566,120.325Z"/><path class="d" d="M137.976,120.325a.942.942,0,1,0,.941.942A.941.941,0,0,0,137.976,120.325Z"/><path class="d" d="M128.566,110.915a.941.941,0,1,0,.941.942A.941.941,0,0,0,128.566,110.915Z"/><path class="d" d="M137.976,110.915a.941.941,0,1,0,.941.942A.941.941,0,0,0,137.976,110.915Z"/><path class="d" d="M124.387,115.781a.941.941,0,1,0,.415.78A.939.939,0,0,0,124.387,115.781Z"/><path class="d" d="M133.271,143.852a.941.941,0,0,0-.922.751.978.978,0,0,0-.019.189.941.941,0,0,0,1.882,0,.9.9,0,0,0-.019-.189A.942.942,0,0,0,133.271,143.852Z"/><path class="d" d="M133.271,134.441a.942.942,0,1,0,.941.941A.941.941,0,0,0,133.271,134.441Z"/><path class="d" d="M128.566,139.146a.942.942,0,1,0,.941.942A.941.941,0,0,0,128.566,139.146Z"/><path class="d" d="M137.976,139.146a.942.942,0,1,0,.941.942A.941.941,0,0,0,137.976,139.146Z"/><path class="d" d="M128.566,129.736a.941.941,0,1,0,.941.941A.941.941,0,0,0,128.566,129.736Z"/><path class="d" d="M137.976,129.736a.941.941,0,1,0,.941.941A.941.941,0,0,0,137.976,129.736Z"/><path class="d" d="M134.051,163.087a.941.941,0,1,0,.087.892.941.941,0,0,0-.087-.892Z"/><path class="d" d="M133.271,153.262a.942.942,0,1,0,.941.941A.941.941,0,0,0,133.271,153.262Z"/><path class="d" d="M128.566,157.967a.941.941,0,1,0,.941.942A.941.941,0,0,0,128.566,157.967Z"/><path class="d" d="M137.976,157.967a.941.941,0,1,0,.941.942A.941.941,0,0,0,137.976,157.967Z"/><path class="d" d="M128.566,148.556a.941.941,0,1,0,.941.942A.941.941,0,0,0,128.566,148.556Z"/><path class="d" d="M137.976,148.556a.941.941,0,1,0,.941.942A.941.941,0,0,0,137.976,148.556Z"/><path class="d" d="M124.641,163.087a.94.94,0,0,0-1.56,0,.941.941,0,0,0-.087.892.941.941,0,0,0,1.734,0,.941.941,0,0,0-.087-.892Z"/><path class="d" d="M124.387,153.423a.941.941,0,0,0-1.467.78.941.941,0,1,0,1.467-.78Z"/><path class="d" d="M134.212,173.024a.941.941,0,1,0-1.882,0c0,.033.007.065.01.1.318.28.632.564.953.841A.941.941,0,0,0,134.212,173.024Z"/><path class="d" d="M137.976,176.787a.94.94,0,0,0-.782.418c.487.391.973.784,1.465,1.168a.939.939,0,0,0-.683-1.586Z"/><path class="d" d="M127.625,168.319a.941.941,0,1,0,.941-.942A.941.941,0,0,0,127.625,168.319Z"/><path class="d" d="M137.035,168.319a.941.941,0,1,0,.941-.942A.941.941,0,0,0,137.035,168.319Z"/><path class="d" d="M114.451,68.569a.941.941,0,0,0-.922.751.987.987,0,0,0-.019.19.941.941,0,0,0,1.882,0,.914.914,0,0,0-.019-.19A.942.942,0,0,0,114.451,68.569Z"/><path class="d" d="M123.861,61.041a.932.932,0,0,0,.526-.161.941.941,0,1,0-.526.161Z"/><path class="d" d="M114.451,61.041a.941.941,0,1,0-.941-.942A.942.942,0,0,0,114.451,61.041Z"/><path class="d" d="M109.746,65.746a.942.942,0,1,0-.941-.941A.942.942,0,0,0,109.746,65.746Z"/><path class="d" d="M119.156,65.746a.942.942,0,1,0-.941-.941A.941.941,0,0,0,119.156,65.746Z"/><path class="d" d="M105.041,68.569a.943.943,0,0,0-.922.751.914.914,0,0,0-.019.19.941.941,0,0,0,1.882,0,.987.987,0,0,0-.019-.19A.941.941,0,0,0,105.041,68.569Z"/><path class="d" d="M115.231,87.8a.941.941,0,1,0,.087.892.941.941,0,0,0-.087-.892Z"/><path class="d" d="M114.451,77.979a.942.942,0,1,0,.941.941A.941.941,0,0,0,114.451,77.979Z"/><path class="d" d="M109.746,82.684a.941.941,0,1,0,.941.942A.94.94,0,0,0,109.746,82.684Z"/><path class="d" d="M119.156,82.684a.941.941,0,1,0,.941.942A.941.941,0,0,0,119.156,82.684Z"/><path class="d" d="M109.746,73.273a.941.941,0,1,0,.941.942A.941.941,0,0,0,109.746,73.273Z"/><path class="d" d="M119.156,73.273a.941.941,0,1,0,.941.942A.941.941,0,0,0,119.156,73.273Z"/><path class="d" d="M105.821,87.8a.941.941,0,0,0-1.721.526.942.942,0,0,0,.941.941.941.941,0,0,0,.78-1.467Z"/><path class="d" d="M105.041,77.979a.942.942,0,0,0,0,1.883.942.942,0,0,0,0-1.883Z"/><path class="d" d="M123.861,70.45a.942.942,0,0,0,.941-.94.987.987,0,0,0-.019-.19.941.941,0,0,0-1.844,0,.914.914,0,0,0-.019.19A.94.94,0,0,0,123.861,70.45Z"/><path class="d" d="M114.451,106.21a.942.942,0,0,0-.922.751,1,1,0,0,0-.019.19.941.941,0,1,0,1.882,0,.921.921,0,0,0-.019-.19A.943.943,0,0,0,114.451,106.21Z"/><path class="d" d="M123.861,98.682a.932.932,0,0,0,.526-.161.941.941,0,0,0,0-1.56.941.941,0,0,0-1.467.78A.941.941,0,0,0,123.861,98.682Z"/><path class="d" d="M114.451,96.8a.941.941,0,1,0,.941.941A.941.941,0,0,0,114.451,96.8Z"/><path class="d" d="M109.746,101.5a.941.941,0,1,0,.941.941A.94.94,0,0,0,109.746,101.5Z"/><path class="d" d="M119.156,101.5a.941.941,0,1,0,.941.941A.941.941,0,0,0,119.156,101.5Z"/><path class="d" d="M109.746,92.094a.941.941,0,1,0,.941.942A.94.94,0,0,0,109.746,92.094Z"/><path class="d" d="M119.156,92.094a.941.941,0,1,0,.941.942A.941.941,0,0,0,119.156,92.094Z"/><path class="d" d="M105.041,106.21a.943.943,0,0,0-.922.751.921.921,0,0,0-.019.19.941.941,0,0,0,1.882,0,1,1,0,0,0-.019-.19A.942.942,0,0,0,105.041,106.21Z"/><path class="d" d="M105.041,96.8a.941.941,0,0,0,0,1.882.941.941,0,1,0,0-1.882Z"/><path class="d" d="M123.861,89.271a.941.941,0,0,0,.78-1.467.942.942,0,0,0-1.56,0,.941.941,0,0,0-.087.892A.941.941,0,0,0,123.861,89.271Z"/><path class="d" d="M115.231,125.446a.941.941,0,0,0-1.721.526.953.953,0,0,0,.074.366.941.941,0,0,0,1.808-.366A.932.932,0,0,0,115.231,125.446Z"/><path class="d" d="M114.451,115.621a.941.941,0,1,0,.941.94A.94.94,0,0,0,114.451,115.621Z"/><path class="d" d="M109.746,120.325a.942.942,0,1,0,.941.942A.94.94,0,0,0,109.746,120.325Z"/><path class="d" d="M119.156,120.325a.942.942,0,1,0,.941.942A.941.941,0,0,0,119.156,120.325Z"/><path class="d" d="M109.746,110.915a.941.941,0,1,0,.941.942A.94.94,0,0,0,109.746,110.915Z"/><path class="d" d="M119.156,110.915a.941.941,0,1,0,.941.942A.941.941,0,0,0,119.156,110.915Z"/><path class="d" d="M105.041,125.031a.941.941,0,1,0,0,1.881.942.942,0,0,0,.867-.574.953.953,0,0,0,.074-.366.942.942,0,0,0-.941-.941Z"/><path class="d" d="M105.041,115.621a.941.941,0,1,0,.941.94A.939.939,0,0,0,105.041,115.621Z"/><path class="d" d="M123.861,108.092a.942.942,0,0,0,.941-.941,1,1,0,0,0-.019-.19.941.941,0,0,0-1.844,0,.921.921,0,0,0-.019.19A.941.941,0,0,0,123.861,108.092Z"/><path class="d" d="M114.451,143.852a.941.941,0,0,0-.922.751.977.977,0,0,0-.019.189.941.941,0,0,0,1.882,0,.9.9,0,0,0-.019-.189A.942.942,0,0,0,114.451,143.852Z"/><path class="d" d="M123.861,136.324a.932.932,0,0,0,.526-.161.941.941,0,1,0-.526.161Z"/><path class="d" d="M114.451,134.441a.942.942,0,1,0,.941.941A.941.941,0,0,0,114.451,134.441Z"/><path class="d" d="M110.687,140.088a.941.941,0,1,0-.941.941A.941.941,0,0,0,110.687,140.088Z"/><path class="d" d="M119.156,139.146a.942.942,0,1,0,.941.942A.941.941,0,0,0,119.156,139.146Z"/><path class="d" d="M109.746,129.736a.941.941,0,1,0,.941.941A.94.94,0,0,0,109.746,129.736Z"/><path class="d" d="M119.156,129.736a.941.941,0,1,0,.941.941A.941.941,0,0,0,119.156,129.736Z"/><path class="d" d="M105.982,135.382a.941.941,0,1,0-1.467.781.932.932,0,0,0,.526.161A.942.942,0,0,0,105.982,135.382Z"/><path class="d" d="M123.861,126.912a.939.939,0,1,0-.867-.574A.939.939,0,0,0,123.861,126.912Z"/><path class="d" d="M115.392,154.2a.939.939,0,0,0-1.49-.762c.382.5.763.99,1.151,1.48A.935.935,0,0,0,115.392,154.2Z"/><path class="d" d="M120.1,158.909a.939.939,0,0,0-1.869-.131c.3.357.605.716.912,1.07h.016A.94.94,0,0,0,120.1,158.909Z"/><path class="d" d="M119.156,148.556a.941.941,0,1,0,.941.942A.941.941,0,0,0,119.156,148.556Z"/><path class="d" d="M123.861,145.733a.942.942,0,0,0,.941-.941.977.977,0,0,0-.019-.189.941.941,0,0,0-1.844,0,.9.9,0,0,0-.019.189A.941.941,0,0,0,123.861,145.733Z"/><path class="d" d="M95.631,68.569a.941.941,0,0,0-.922.751.987.987,0,0,0-.019.19.941.941,0,0,0,1.882,0,.987.987,0,0,0-.019-.19A.942.942,0,0,0,95.631,68.569Z"/><path class="d" d="M104.515,60.88a.932.932,0,0,0,.526.161.942.942,0,1,0-.526-.161Z"/><path class="d" d="M95.631,61.041a.941.941,0,1,0-.941-.942A.942.942,0,0,0,95.631,61.041Z"/><path class="d" d="M90.926,65.746a.942.942,0,1,0-.941-.941A.942.942,0,0,0,90.926,65.746Z"/><path class="d" d="M100.336,65.746a.942.942,0,1,0-.941-.941A.942.942,0,0,0,100.336,65.746Z"/><path class="d" d="M87.143,69.32a.944.944,0,0,0-.4-.59.941.941,0,0,0-.892-.087.942.942,0,0,0-.556.677.914.914,0,0,0-.019.19.941.941,0,0,0,.575.866.941.941,0,0,0,.892-.087.94.94,0,0,0,.415-.779A.987.987,0,0,0,87.143,69.32Z"/><path class="d" d="M96.411,87.8a.941.941,0,0,0-1.721.526.928.928,0,0,0,.074.366.941.941,0,0,0,1.734,0,.941.941,0,0,0-.087-.892Z"/><path class="d" d="M95.631,77.979a.942.942,0,1,0,.941.941A.941.941,0,0,0,95.631,77.979Z"/><path class="d" d="M90.926,82.684a.941.941,0,1,0,.941.942A.94.94,0,0,0,90.926,82.684Z"/><path class="d" d="M100.336,82.684a.941.941,0,1,0,.941.942A.941.941,0,0,0,100.336,82.684Z"/><path class="d" d="M90.926,73.273a.941.941,0,1,0,.941.942A.941.941,0,0,0,90.926,73.273Z"/><path class="d" d="M100.336,73.273a.941.941,0,1,0,.941.942A.941.941,0,0,0,100.336,73.273Z"/><path class="d" d="M86.747,87.55a.939.939,0,0,0-.526-.16l-.027,0c.085.616.166,1.233.259,1.847a.925.925,0,0,0,.294-.129A.94.94,0,0,0,87,87.8.959.959,0,0,0,86.747,87.55Z"/><path class="d" d="M86.747,78.14a.932.932,0,0,0-.526-.161.942.942,0,1,0,.526.161Z"/><path class="d" d="M95.631,106.21a.942.942,0,0,0-.922.751,1,1,0,0,0-.019.19.941.941,0,1,0,1.882,0,1,1,0,0,0-.019-.19A.943.943,0,0,0,95.631,106.21Z"/><path class="d" d="M95.631,96.8a.941.941,0,1,0,.941.941A.941.941,0,0,0,95.631,96.8Z"/><path class="d" d="M91.867,102.446a.941.941,0,1,0-.941.941A.941.941,0,0,0,91.867,102.446Z"/><path class="d" d="M100.336,101.5a.941.941,0,1,0,.941.941A.941.941,0,0,0,100.336,101.5Z"/><path class="d" d="M90.926,92.094a.941.941,0,1,0,.941.942A.94.94,0,0,0,90.926,92.094Z"/><path class="d" d="M100.336,92.094a.941.941,0,1,0,.941.942A.941.941,0,0,0,100.336,92.094Z"/><path class="d" d="M95.631,117.5a.941.941,0,1,0-.941-.942A.942.942,0,0,0,95.631,117.5Z"/><path class="d" d="M100.336,122.208a.942.942,0,1,0-.941-.941A.941.941,0,0,0,100.336,122.208Z"/><path class="d" d="M91.659,111.273c.068.209.135.418.2.627,0-.015,0-.028,0-.043A.934.934,0,0,0,91.659,111.273Z"/><path class="d" d="M99.395,111.857a.941.941,0,1,0,.941-.942A.94.94,0,0,0,99.395,111.857Z"/><path class="d" d="M101.277,130.677a.939.939,0,0,0-1.825-.314c.2.4.4.807.6,1.207a.92.92,0,0,0,.284.048A.941.941,0,0,0,101.277,130.677Z"/><path class="d" d="M85.28,60.1a.942.942,0,0,0,.575.868.941.941,0,0,0,.892-.087A.941.941,0,1,0,85.28,60.1Z"/></g></g></svg>