<svg xmlns="http://www.w3.org/2000/svg" width="242.5" height="235.615" viewBox="0 0 242.5 235.615"><defs><style>.a{fill:#3c7a3c;}.b{fill:#ffc561;}</style></defs><g transform="translate(-362.546 -114.941)"><g transform="translate(362.546 114.941)"><path class="a" d="M551.373,130.342v-2.093H538.065V114.941h-2.093v13.308h-15.7V114.941h-2.091v13.308h-15.7V114.941h-2.093v13.308h-15.7V114.941H482.6v13.308H466.9V114.941h-2.093v13.308h-15.7V114.941h-2.093v13.308h-15.7V114.941h-2.093v13.308h-15.7V114.941h-2.093v13.308h-15.7V114.941h-2.093v13.308h-15.7V114.941h-2.093v13.308H362.546v2.093h13.308v15.7H362.546v2.093h13.308v15.7H362.546v2.093h13.308v15.7H362.546v2.091h13.308v15.7H362.546v2.093h13.308v15.7H362.546V219.3h13.308v15.7H362.546v2.093h13.308v15.7H362.546v2.093h13.308v15.7H362.546v2.093h13.308v15.7H362.546v2.093h13.308v13.308h2.093V290.46h15.7v13.308h2.093V290.46h15.7v13.308h2.093V290.46h15.7v13.308h2.093V290.46h15.7v13.308h2.093V290.46h15.7v13.308H466.9V290.46h15.7v13.308h2.093V290.46h15.7v13.308h2.093V290.46h15.7v13.308h2.091V290.46h15.7v13.308h2.093V290.46h13.308v-2.093H538.065v-15.7h13.308v-2.093H538.065v-15.7h13.308v-2.093H538.065v-15.7h13.308v-2.093H538.065V219.3h13.308V217.2H538.065v-15.7h13.308v-2.093H538.065v-15.7h13.308v-2.091H538.065v-15.7h13.308V163.83H538.065v-15.7h13.308V146.04H538.065v-15.7Zm-33.192,0v15.7h-15.7v-15.7Zm-69.07,69.07v-15.7h15.7v15.7Zm15.7,2.093v15.7h-15.7v-15.7Zm-17.79-2.093h-15.7v-15.7h15.7Zm0,2.093v15.7h-15.7v-15.7Zm0,17.79v15.7h-15.7V219.3Zm2.093,0h15.7v15.7h-15.7Zm17.79,0h15.7v15.7H466.9Zm0-2.093v-15.7h15.7v15.7Zm0-17.79v-15.7h15.7v15.7Zm0-17.79v-15.7h15.7v15.7Zm-2.093,0h-15.7v-15.7h15.7Zm-17.79,0h-15.7v-15.7h15.7Zm-17.79,0h-15.7v-15.7h15.7Zm0,2.091v15.7h-15.7v-15.7Zm0,17.792v15.7h-15.7v-15.7Zm0,17.79v15.7h-15.7V219.3Zm0,17.79v15.7h-15.7v-15.7Zm2.093,0h15.7v15.7h-15.7Zm17.79,0h15.7v15.7h-15.7Zm17.79,0h15.7v15.7H466.9Zm17.79,0h15.7v15.7h-15.7Zm0-2.093V219.3h15.7v15.7Zm0-17.79v-15.7h15.7v15.7Zm0-17.79v-15.7h15.7v15.7Zm0-17.79v-15.7h15.7v15.7Zm0-17.792v-15.7h15.7v15.7Zm-2.093,0H466.9v-15.7h15.7Zm-17.79,0h-15.7v-15.7h15.7Zm-17.79,0h-15.7v-15.7h15.7Zm-17.79,0h-15.7v-15.7h15.7Zm-17.792,0h-15.7v-15.7h15.7Zm0,2.093v15.7h-15.7v-15.7Zm0,17.79v15.7h-15.7v-15.7Zm0,17.792v15.7h-15.7v-15.7Zm0,17.79v15.7h-15.7V219.3Zm0,17.79v15.7h-15.7v-15.7Zm0,17.79v15.7h-15.7v-15.7Zm2.093,0h15.7v15.7h-15.7Zm17.792,0h15.7v15.7h-15.7Zm17.79,0h15.7v15.7h-15.7Zm17.79,0h15.7v15.7H466.9Zm17.79,0h15.7v15.7h-15.7Zm17.791,0h15.7v15.7h-15.7Zm0-2.093v-15.7h15.7v15.7Zm0-17.79V219.3h15.7v15.7Zm0-17.79v-15.7h15.7v15.7Zm0-17.79v-15.7h15.7v15.7Zm0-17.79v-15.7h15.7v15.7Zm0-17.792v-15.7h15.7v15.7Zm-2.093-33.488v15.7h-15.7v-15.7Zm-17.79,0v15.7H466.9v-15.7Zm-17.79,0v15.7h-15.7v-15.7Zm-17.79,0v15.7h-15.7v-15.7Zm-17.79,0v15.7h-15.7v-15.7Zm-17.792,0v15.7h-15.7v-15.7Zm-33.488,0h15.7v15.7h-15.7Zm0,17.79h15.7v15.7h-15.7Zm0,17.79h15.7v15.7h-15.7Zm0,17.79h15.7v15.7h-15.7Zm0,17.792h15.7v15.7h-15.7Zm0,17.79h15.7v15.7h-15.7Zm0,17.79h15.7v15.7h-15.7Zm0,17.79h15.7v15.7h-15.7Zm0,33.49v-15.7h15.7v15.7Zm17.79,0v-15.7h15.7v15.7Zm17.79,0v-15.7h15.7v15.7Zm17.792,0v-15.7h15.7v15.7Zm17.79,0v-15.7h15.7v15.7Zm17.79,0v-15.7h15.7v15.7Zm17.79,0v-15.7h15.7v15.7Zm17.791,0v-15.7h15.7v15.7Zm33.49,0h-15.7v-15.7h15.7Zm0-17.792h-15.7v-15.7h15.7Zm0-17.79h-15.7v-15.7h15.7Zm0-17.79h-15.7V219.3h15.7Zm0-17.79h-15.7v-15.7h15.7Zm0-17.79h-15.7v-15.7h15.7Zm0-17.79h-15.7v-15.7h15.7Zm0-17.792h-15.7v-15.7h15.7Zm0-17.79h-15.7v-15.7h15.7Z" transform="translate(-362.546 -114.941)"/></g><path class="b" d="M462.756,156.389l-54.695,54.693a86.642,86.642,0,0,1,54.695-54.693Zm16.6-3.758L404.3,227.685a92.349,92.349,0,0,0-.641,13.526l89.221-89.221A92.363,92.363,0,0,0,479.359,152.631Zm25.225.547L404.85,252.91a88.75,88.75,0,0,0,2.433,10.452L515.036,155.609A88.407,88.407,0,0,0,504.584,153.177Zm19.872,5.858L410.709,272.782a90.722,90.722,0,0,0,4.3,8.584L533.04,163.337A90.908,90.908,0,0,0,524.456,159.035ZM551.277,299.6a86.038,86.038,0,0,0,20.9-33.789l-54.693,54.693A86.051,86.051,0,0,0,551.277,299.6Zm-50.392,24.662,75.052-75.054a92.382,92.382,0,0,0,.643-13.528l-89.223,89.223A92.376,92.376,0,0,0,500.885,324.265Zm-25.225-.547,99.732-99.733a88.061,88.061,0,0,0-2.433-10.452L465.208,321.287A88.4,88.4,0,0,0,475.66,323.718Zm-19.872-5.858L569.534,204.114a90.711,90.711,0,0,0-4.3-8.584L447.2,313.559A90.719,90.719,0,0,0,455.788,317.86ZM439.38,308.5,560.172,187.706a90.386,90.386,0,0,0-5.761-7.124L432.256,302.737A90.087,90.087,0,0,0,439.38,308.5ZM540.864,168.4,420.072,289.19a89.729,89.729,0,0,0,5.761,7.124L547.987,174.159A90.019,90.019,0,0,0,540.864,168.4Z" transform="translate(28.435 25.619)"/></g></svg>