<svg xmlns="http://www.w3.org/2000/svg" width="52.454" height="57.948" viewBox="0 0 52.454 57.948"><defs><style>.a{fill:#e1e6e9;}.b{fill:#cbcbcb;}.c{fill:#4ad194;}.d{fill:#35b79e;}.e{fill:#1e9690;}.f{fill:#515a66;}.g{fill:#636a75;}.h{fill:#f1f1f1;}</style></defs><g transform="translate(-24.273)"><path class="a" d="M53.751,56.424l-2.59,1.361a1.423,1.423,0,0,1-1.324,0l-2.59-1.361C33.029,48.95,24.273,35.159,24.273,20.236V11.121a1.415,1.415,0,0,1,1.255-1.413c4.9-.517,8.8-4.026,9.419-8.463A1.431,1.431,0,0,1,36.358,0H64.641a1.431,1.431,0,0,1,1.411,1.245c.621,4.438,4.518,7.946,9.419,8.463a1.415,1.415,0,0,1,1.255,1.413v9.115C76.727,35.159,67.971,48.95,53.751,56.424Z"/><path class="b" d="M277.848,9.708c-4.9-.517-8.8-4.026-9.419-8.463A1.431,1.431,0,0,0,267.018,0h-1.926c.277,6.152,4.661,10.516,9.4,11.016a1.415,1.415,0,0,1,1.255,1.413v9.115c0,14.923-8.756,28.714-22.975,36.187l-.3.157a1.421,1.421,0,0,0,1.06-.1l2.59-1.361C270.347,48.95,279.1,35.158,279.1,20.236V11.121A1.415,1.415,0,0,0,277.848,9.708Z" transform="translate(-202.377)"/><path class="c" d="M82.213,83.577A40.741,40.741,0,0,1,66.7,69.491a35.3,35.3,0,0,1-5.587-18.92V45.4a1.827,1.827,0,0,1,1.151-1.7,16.033,16.033,0,0,0,8.622-7.924,1.822,1.822,0,0,1,1.648-1.033H93.809a1.822,1.822,0,0,1,1.648,1.033,16.034,16.034,0,0,0,8.622,7.924,1.827,1.827,0,0,1,1.151,1.7v5.174a35.3,35.3,0,0,1-5.587,18.92,40.741,40.741,0,0,1-15.51,14.086l-.107.056a1.832,1.832,0,0,1-1.7,0Z" transform="translate(-32.673 -30.808)"/><path class="d" d="M276.906,43.7l-.09-.037-.149-.061-.253-.107-.145-.063q-.134-.06-.267-.122l-.121-.056q-.191-.091-.38-.186l-.028-.015q-.175-.089-.347-.181l-.121-.067q-.125-.069-.249-.139l-.137-.079-.232-.138-.134-.082q-.121-.075-.24-.152l-.116-.075q-.163-.107-.323-.217l-.024-.016q-.172-.119-.34-.242l-.1-.078q-.116-.086-.23-.173l-.122-.095-.209-.167-.12-.1q-.106-.088-.211-.178l-.107-.092q-.129-.113-.256-.228l-.053-.047q-.152-.14-.3-.283l-.084-.083q-.105-.1-.209-.208l-.1-.108q-.092-.1-.183-.193l-.105-.114q-.091-.1-.18-.2l-.1-.109q-.1-.12-.206-.243l-.059-.071q-.13-.158-.256-.32l-.064-.083c-.062-.081-.124-.162-.184-.244l-.086-.118q-.078-.108-.154-.217l-.088-.128q-.075-.11-.147-.221l-.081-.123q-.081-.126-.159-.254L269,37.093q-.106-.175-.207-.352l-.042-.075q-.079-.141-.155-.283l-.066-.126q-.062-.119-.122-.24l-.068-.138c-.017-.035-.035-.07-.052-.105a1.823,1.823,0,0,0-1.648-1.033H256v49.1a1.831,1.831,0,0,0,.852-.21l.107-.056a40.741,40.741,0,0,0,15.51-14.086,35.3,35.3,0,0,0,5.587-18.92V45.4A1.827,1.827,0,0,0,276.906,43.7Z" transform="translate(-205.5 -30.808)"/><path class="e" d="M276.906,43.7l-.09-.037-.149-.061-.253-.107-.145-.063q-.134-.06-.267-.122l-.121-.056q-.191-.091-.38-.186l-.028-.015q-.175-.089-.347-.181l-.121-.067q-.125-.069-.249-.139l-.137-.079-.232-.138-.134-.082q-.121-.075-.24-.152l-.116-.075q-.163-.107-.323-.217l-.024-.016q-.172-.119-.34-.242l-.1-.078q-.116-.086-.23-.173l-.122-.095-.209-.167-.12-.1q-.106-.088-.211-.178l-.107-.092q-.129-.113-.256-.228l-.053-.047q-.152-.14-.3-.283l-.084-.083q-.105-.1-.209-.208l-.1-.108q-.092-.1-.183-.193l-.105-.114q-.091-.1-.18-.2l-.1-.109q-.1-.12-.206-.243l-.059-.071q-.13-.158-.256-.32l-.064-.083c-.062-.081-.124-.162-.184-.244l-.086-.118q-.078-.108-.154-.217l-.088-.128q-.075-.11-.147-.221l-.081-.123q-.081-.126-.159-.254L269,37.092q-.106-.175-.207-.352l-.042-.075q-.079-.141-.155-.283c-.022-.042-.044-.084-.066-.126q-.062-.12-.122-.24l-.068-.138c-.017-.035-.035-.07-.052-.105a1.823,1.823,0,0,0-1.648-1.033h-2.944a16.346,16.346,0,0,1,1.294,1.952c.02.034.035.07.052.105l.068.138q.06.121.122.24l.066.126q.076.142.155.283l.042.075q.1.177.207.352l.058.094q.078.128.159.254l.081.123q.073.111.147.221l.088.128q.076.109.154.217l.086.118q.091.123.184.244l.064.083q.126.162.256.32l.059.071q.1.122.206.243l.1.109q.089.1.18.2l.105.114q.091.1.183.193l.1.108q.1.105.209.208l.084.083q.148.143.3.283l.053.047q.127.115.256.228l.107.092q.1.09.211.178l.12.1.209.167.122.095q.114.088.23.173l.1.078q.168.123.34.242l.024.016q.16.11.323.217l.116.075q.119.077.24.152l.134.082.232.138.136.079c.082.047.166.093.249.139l.121.067q.172.093.347.181l.028.015q.189.1.38.186l.121.056q.133.062.267.122l.145.063.253.107.149.061.09.037a1.827,1.827,0,0,1,1.151,1.7v5.174a35.3,35.3,0,0,1-5.587,18.92A43.47,43.47,0,0,1,256,83.794v.048a1.83,1.83,0,0,0,.852-.21l.107-.056A40.741,40.741,0,0,0,272.47,69.49a35.3,35.3,0,0,0,5.587-18.92V45.4A1.827,1.827,0,0,0,276.906,43.7Z" transform="translate(-205.5 -30.807)"/><path class="f" d="M189.9,92.307v-5.9a6.008,6.008,0,0,1,12.016,0v5.9h1.7v-5.9a7.714,7.714,0,0,0-7.706-7.706h0a7.714,7.714,0,0,0-7.706,7.706v5.9Z" transform="translate(-145.378 -69.793)"/><path class="g" d="M175.549,203.048h-19.38a1.851,1.851,0,0,1-1.851-1.851V189.044a1.851,1.851,0,0,1,1.851-1.851h19.38a1.851,1.851,0,0,1,1.851,1.851V201.2A1.851,1.851,0,0,1,175.549,203.048Z" transform="translate(-115.327 -166.007)"/><path class="f" d="M315.647,187.194H312.3a1.851,1.851,0,0,1,1.851,1.851V201.2a1.851,1.851,0,0,1-1.851,1.851h3.351A1.851,1.851,0,0,0,317.5,201.2V189.045A1.851,1.851,0,0,0,315.647,187.194Z" transform="translate(-255.425 -166.007)"/><path class="h" d="M242.7,233.547a1.988,1.988,0,1,0-2.837,1.8v2.417a.849.849,0,1,0,1.7,0v-2.417A1.987,1.987,0,0,0,242.7,233.547Z" transform="translate(-190.176 -205.351)"/></g></svg>