<svg xmlns="http://www.w3.org/2000/svg" width="513.216" height="529.812" viewBox="0 0 513.216 529.812"><defs><style>.a{fill:#f2f2f2;}.b{fill:#fff;}.c{fill:#f0bf9c;}.d{fill:#1e1f1f;}.e{fill:#3c7a3c;}.f{fill:#3c3c3c;}.g{fill:#dedede;}.h{fill:#e5d995;}.i{fill:#3f3d56;}</style></defs><g transform="translate(-10.785 0.412)"><path class="a" d="M268.807,745.327l-.032.21c-.038-.2-.075-.414-.11-.62-.064-.333-.12-.667-.172-1a81.617,81.617,0,0,1,3.338-39.09q1.232-3.679,2.807-7.223A80.076,80.076,0,0,1,291.42,673.08a34.543,34.543,0,0,1,7.784-5.973c.421-.223.844-.434,1.276-.629a14.24,14.24,0,0,1,8.54-1.238,11.649,11.649,0,0,1,3.041,1.021c.337.164.662.344.98.536a16.875,16.875,0,0,1,7.385,11.3,26.362,26.362,0,0,1-.371,10.277q-.1.483-.221.961a53.564,53.564,0,0,1-2.126,6.6C309.192,717.848,290.893,737.287,268.807,745.327Z" transform="translate(-204.818 -216.565)"/><path class="b" d="M312.15,666.508q-9.966,14.322-18.829,29.37t-16.547,30.714q-4.3,8.772-8.232,17.721c-.29.66.688,1.235.982.566q7.015-15.976,15.225-31.39,8.205-15.4,17.563-30.144,5.236-8.25,10.82-16.271c.416-.6-.567-1.162-.982-.566Z" transform="translate(-204.965 -216.741)"/><path class="b" d="M323.176,692.383a31.114,31.114,0,0,1-20.454,11.855,29.572,29.572,0,0,1-6.828.135c-.727-.069-.732,1.065-.011,1.133a32.245,32.245,0,0,0,23.378-7.387,30.7,30.7,0,0,0,4.9-5.17c.437-.581-.548-1.143-.982-.566Z" transform="translate(-208.881 -220.516)"/><path class="b" d="M277.177,729.188a26.047,26.047,0,0,1-2.874-5.313,27.479,27.479,0,0,1-1.766-13.492q1.232-3.679,2.807-7.223a.648.648,0,0,1,.052.64,24.872,24.872,0,0,0-1.584,5.519,26.264,26.264,0,0,0,4.348,19.307.461.461,0,0,1,.075.444.617.617,0,0,1-1.059.118Z" transform="translate(-205.526 -222.123)"/><path class="b" d="M304.682,666.55a26.371,26.371,0,0,0,1.162,16.383.57.57,0,0,0,.773.211.581.581,0,0,0,.211-.773,25.1,25.1,0,0,1-1.052-15.523.567.567,0,0,0-1.093-.3Z" transform="translate(-210.127 -216.726)"/><path class="a" d="M265.934,711.613l.069.2c-.129-.163-.259-.331-.386-.5-.212-.265-.416-.535-.618-.807a81.617,81.617,0,0,1-15.2-36.167q-.618-3.83-.869-7.7a80.076,80.076,0,0,1,3.471-29.512,34.546,34.546,0,0,1,4.119-8.9c.269-.393.545-.776.838-1.15a14.241,14.241,0,0,1,6.988-5.063,11.647,11.647,0,0,1,3.167-.508c.375-.012.746,0,1.117.019a16.876,16.876,0,0,1,11.79,6.576,26.361,26.361,0,0,1,4.445,9.273q.133.475.251.954a53.561,53.561,0,0,1,1.185,6.835C288.933,668.519,281.758,694.233,265.934,711.613Z" transform="translate(-202.084 -210.214)"/><path class="b" d="M270.082,621.519q-2.173,17.312-3.032,34.755-.855,17.427-.386,34.885.263,9.767.942,19.517c.05.719,1.183.774,1.132.045q-1.209-17.406-1.1-34.87.114-17.448,1.551-34.853.8-9.738,2.023-19.435c.091-.723-1.042-.765-1.132-.045Z" transform="translate(-204.675 -210.142)"/><path class="b" d="M286.855,640.566a31.114,31.114,0,0,1-12.607,20,29.574,29.574,0,0,1-5.984,3.292c-.676.277-.154,1.283.516,1.009a32.245,32.245,0,0,0,17.271-17.4,30.7,30.7,0,0,0,1.936-6.853c.117-.718-1.016-.758-1.132-.045Z" transform="translate(-204.886 -212.92)"/><path class="b" d="M262.674,696.547a26.045,26.045,0,0,1-5.013-3.37,27.479,27.479,0,0,1-7.831-11.128q-.618-3.83-.869-7.7a.648.648,0,0,1,.344.542,24.869,24.869,0,0,0,1.161,5.623,26.265,26.265,0,0,0,12.819,15.078.46.46,0,0,1,.273.358.617.617,0,0,1-.883.6Z" transform="translate(-202.117 -217.921)"/><path class="b" d="M257.629,628.423a26.371,26.371,0,0,0,8.639,13.968.57.57,0,0,0,.782-.172.58.58,0,0,0-.172-.782,25.1,25.1,0,0,1-8.143-13.257.567.567,0,0,0-1.107.244Z" transform="translate(-203.38 -211.127)"/><path class="a" d="M260.422,745.674l.166.132c-.2-.068-.4-.14-.593-.211-.321-.11-.638-.227-.956-.347a81.618,81.618,0,0,1-32.287-22.287q-2.583-2.895-4.88-6.02A80.075,80.075,0,0,1,208.9,690.2a34.546,34.546,0,0,1-1.326-9.721c.015-.476.042-.948.087-1.42a14.241,14.241,0,0,1,3.161-8.029,11.647,11.647,0,0,1,2.394-2.134c.31-.212.627-.4.952-.585a16.876,16.876,0,0,1,13.475-.808,26.363,26.363,0,0,1,8.739,5.42q.368.329.725.668a53.569,53.569,0,0,1,4.679,5.121C256.592,696.977,264.4,722.508,260.422,745.674Z" transform="translate(-196.082 -216.773)"/><path class="b" d="M214.212,669.266q7.493,15.758,16.164,30.917,8.665,15.144,18.463,29.6,5.482,8.088,11.3,15.938c.43.579,1.413.015.978-.572q-10.393-14.015-19.705-28.79t-17.464-30.2q-4.567-8.638-8.762-17.465c-.313-.658-1.29-.084-.978.572Z" transform="translate(-197.041 -217.054)"/><path class="b" d="M240.267,674.871a31.114,31.114,0,0,1,.149,23.641,29.569,29.569,0,0,1-3.269,6c-.421.6.561,1.164.978.572a32.244,32.244,0,0,0,5.18-23.963,30.708,30.708,0,0,0-2.06-6.817c-.288-.668-1.264-.091-.978.572Z" transform="translate(-200.379 -217.871)"/><path class="b" d="M247.823,736.875a26.05,26.05,0,0,1-6.039-.14,27.478,27.478,0,0,1-12.592-5.159q-2.583-2.895-4.88-6.02a.648.648,0,0,1,.582.272,24.871,24.871,0,0,0,4.007,4.113,26.265,26.265,0,0,0,18.922,5.8.461.461,0,0,1,.423.155.617.617,0,0,1-.423.978Z" transform="translate(-198.523 -225.388)"/><path class="b" d="M206.918,682.123a26.371,26.371,0,0,0,14.8,7.117c.306.041.564-.289.566-.566a.58.58,0,0,0-.566-.566,25.1,25.1,0,0,1-14-6.785c-.525-.506-1.327.294-.8.8Z" transform="translate(-195.961 -218.915)"/><g transform="translate(105.716 185.62)"><path class="c" d="M357.507,568.294a9.176,9.176,0,0,0,1.351-14.005l3.559-79.454L344.3,476.869l1.053,77.717a9.226,9.226,0,0,0,12.158,13.708Z" transform="translate(-338.632 -374.447)"/><path class="c" d="M204.564,594.916l10.314,1.813,10.194-38.919-13.514-2.676Z" transform="translate(-152.63 -266.572)"/><path class="d" d="M0,0H32.912V12.716h-20.2A12.716,12.716,0,0,1,0,0H0Z" transform="translate(80.456 343.227) rotate(-170.029)"/><path class="c" d="M171.422,600.856h10.472l4.982-40.392H171.42Z" transform="translate(-147.797 -267.349)"/><path class="d" d="M0,0H32.912V12.716h-20.2A12.716,12.716,0,0,1,0,0H0Z" transform="translate(54.29 343.231) rotate(179.997)"/><path class="d" d="M409.871,710.956a4.054,4.054,0,0,1-.489-.029l-12.326-1.014a4.169,4.169,0,0,1-3.624-4.834l11.382-63.791-7.691-40.551a1.39,1.39,0,0,0-2.75.137l-9.615,108.162a4.206,4.206,0,0,1-4.45,3.79l-11.612-.432a4.175,4.175,0,0,1-3.875-3.956L364.041,578.8l60.2-7.525,4.206,64.952-.017.069L413.92,707.77a4.173,4.173,0,0,1-4.05,3.186Z" transform="translate(-341.698 -388.511)"/><circle class="c" cx="20.979" cy="20.979" r="20.979" transform="translate(21.213 6.942)"/><path class="e" d="M401.28,566.774a17.178,17.178,0,0,1-9.274-2.653c-10.162-6.352-21.705-3.827-27.681-1.757a4.169,4.169,0,0,1-3.605-.411,4.109,4.109,0,0,1-1.9-3.034l-10.867-97.056a34.009,34.009,0,0,1,23.291-36.353h0q.863-.271,1.755-.513a33.8,33.8,0,0,1,28.164,4.888,34.341,34.341,0,0,1,14.663,25.073l9.149,97.707a4.106,4.106,0,0,1-1.3,3.423C420.465,559.053,411.156,566.773,401.28,566.774Z" transform="translate(-339.321 -367.008)"/><path class="e" d="M366.752,485.107l-24.518-2.7a4.884,4.884,0,0,1-4.19-6.094l6.241-23.786a13.563,13.563,0,1,1,26.955,3.044l.926,24.494a4.884,4.884,0,0,1-5.414,5.038Z" transform="translate(-337.884 -369.439)"/><path class="c" d="M433.925,564.326a9.176,9.176,0,0,0-.346-14.066l-6.041-79.3-17.757,4L420.2,552.183a9.226,9.226,0,0,0,13.722,12.143Z" transform="translate(-348.368 -373.881)"/><path class="e" d="M401.544,479.489a4.878,4.878,0,0,1-1.553-3.758l.926-24.494a13.563,13.563,0,0,1,26.955-3.044l6.241,23.786a4.884,4.884,0,0,1-4.19,6.094l-24.518,2.7a4.878,4.878,0,0,1-3.861-1.279Z" transform="translate(-346.94 -368.806)"/><path class="f" d="M381.556,407a4.852,4.852,0,0,1-1.108-.129l-.107-.026c-18.445-2.822-22.522-13.506-23.417-17.968-.926-4.62.128-9.078,2.511-10.81-1.3-4.1-1.091-7.74.621-10.816,2.986-5.364,9.465-7.178,10.334-7.4,5.175-3.818,11.366-1.269,12.492-.752,10.01-3.7,13.835-.621,14.527.068,4.474.8,7.2,2.532,8.107,5.138,1.7,4.9-3.678,10.985-3.907,11.242l-.119.133-8.012.382a5.431,5.431,0,0,0-5.109,6.25h0a25.285,25.285,0,0,0,.82,2.866c1.368,4.276,2.394,7.929,1.071,9.318a2.144,2.144,0,0,1-2.242.389c-1.253-.335-2.1-.264-2.527.209-.658.734-.457,2.592.566,5.232a4.9,4.9,0,0,1-.893,4.995,4.756,4.756,0,0,1-3.61,1.68Z" transform="translate(-340.612 -357.309)"/></g><g transform="translate(209.273 86.272)"><path class="e" d="M637.52,434H550.154A12.288,12.288,0,0,1,537.88,421.73V290.442a12.288,12.288,0,0,1,12.274-12.274H637.52a12.288,12.288,0,0,1,12.274,12.274V421.73A12.288,12.288,0,0,1,637.52,434ZM550.154,279.612a10.843,10.843,0,0,0-10.83,10.83V421.73a10.843,10.843,0,0,0,10.83,10.83H637.52a10.843,10.843,0,0,0,10.83-10.83V290.442a10.843,10.843,0,0,0-10.83-10.83Z" transform="translate(-537.88 -264.679)"/><path class="e" d="M631.667,349.739h-60.65a6.144,6.144,0,0,1-6.137-6.137V314.721a6.144,6.144,0,0,1,6.137-6.137h60.65a6.144,6.144,0,0,1,6.137,6.137V343.6a6.144,6.144,0,0,1-6.137,6.137Z" transform="translate(-545.385 -273.134)"/><path class="g" d="M629.142,398.636H577.156a5.776,5.776,0,1,1,0-11.552h51.986a5.776,5.776,0,1,1,0,11.552Z" transform="translate(-547.192 -294.955)"/><path class="g" d="M629.142,428.636H577.156a5.776,5.776,0,1,1,0-11.552h51.986a5.776,5.776,0,1,1,0,11.552Z" transform="translate(-547.192 -303.294)"/><path class="g" d="M629.142,458.636H577.156a5.776,5.776,0,1,1,0-11.552h51.986a5.776,5.776,0,1,1,0,11.552Z" transform="translate(-547.192 -311.633)"/><ellipse class="e" cx="17" cy="16.5" rx="17" ry="16.5" transform="translate(87.727 0.317)"/><path class="b" d="M678.43,286.912a1.723,1.723,0,0,1-1.036-.344l-.019-.014-3.9-2.988a1.734,1.734,0,1,1,2.109-2.753l2.528,1.938,5.974-7.791a1.734,1.734,0,0,1,2.431-.321l-.037.05.038-.05a1.736,1.736,0,0,1,.321,2.431l-7.026,9.164A1.735,1.735,0,0,1,678.43,286.912Z" transform="translate(-575.382 -263.599)"/></g><g transform="translate(399.037 160.585)"><path class="f" d="M932.52,536H845.154A12.288,12.288,0,0,1,832.88,523.73V392.442a12.288,12.288,0,0,1,12.274-12.274H932.52a12.288,12.288,0,0,1,12.274,12.274V523.73A12.288,12.288,0,0,1,932.52,536ZM845.154,381.612a10.843,10.843,0,0,0-10.83,10.83V523.73a10.843,10.843,0,0,0,10.83,10.83H932.52a10.843,10.843,0,0,0,10.83-10.83V392.442a10.843,10.843,0,0,0-10.83-10.83Z" transform="translate(-832.88 -367.345)"/><path class="g" d="M924.142,420.636H872.156a5.776,5.776,0,0,1,0-11.552h51.986a5.776,5.776,0,1,1,0,11.552Z" transform="translate(-842.192 -375.383)"/><path class="g" d="M924.142,450.636H872.156a5.776,5.776,0,0,1,0-11.552h51.986a5.776,5.776,0,1,1,0,11.552Z" transform="translate(-842.192 -383.723)"/><path class="g" d="M926.667,515.739h-60.65a6.145,6.145,0,0,1-6.137-6.137V480.721a6.145,6.145,0,0,1,6.137-6.137h60.65a6.145,6.145,0,0,1,6.137,6.137V509.6A6.145,6.145,0,0,1,926.667,515.739Z" transform="translate(-840.385 -393.591)"/><path class="g" d="M924.142,562.636H872.156a5.776,5.776,0,0,1,0-11.552h51.986a5.776,5.776,0,1,1,0,11.552Z" transform="translate(-842.192 -414.856)"/><circle class="h" cx="16.5" cy="16.5" r="16.5" transform="translate(91.963 0.004)"/><path class="b" d="M978.43,389.912a1.722,1.722,0,0,1-1.036-.344l-.018-.014-3.9-2.988a1.734,1.734,0,1,1,2.109-2.753l2.528,1.938,5.974-7.791a1.734,1.734,0,0,1,2.431-.321l-.037.05.038-.05a1.736,1.736,0,0,1,.321,2.431l-7.026,9.164a1.735,1.735,0,0,1-1.38.676Z" transform="translate(-871.772 -366.543)"/></g><g transform="translate(351.396)"><path class="e" d="M858.519,266.184H771.154A12.288,12.288,0,0,1,758.88,253.91V172.442a12.288,12.288,0,0,1,12.274-12.274h87.365a12.288,12.288,0,0,1,12.274,12.274V253.91A12.288,12.288,0,0,1,858.519,266.184ZM771.154,161.612a10.843,10.843,0,0,0-10.83,10.83V253.91a10.843,10.843,0,0,0,10.83,10.83h87.365a10.843,10.843,0,0,0,10.83-10.83V172.442a10.843,10.843,0,0,0-10.83-10.83Z" transform="translate(-758.88 -145.606)"/><path class="g" d="M850.142,267.136H798.156a5.776,5.776,0,1,1,0-11.552h51.986a5.776,5.776,0,0,1,0,11.552Z" transform="translate(-768.192 -172.129)"/><path class="g" d="M850.142,237.136H798.156a5.776,5.776,0,1,1,0-11.552h51.986a5.776,5.776,0,0,1,0,11.552Z" transform="translate(-768.192 -163.79)"/><path class="g" d="M850.142,207.136H798.156a5.776,5.776,0,1,1,0-11.552h51.986a5.776,5.776,0,0,1,0,11.552Z" transform="translate(-768.192 -155.451)"/><ellipse class="e" cx="16.5" cy="17" rx="16.5" ry="17" transform="translate(92.604 -0.412)"/><path class="b" d="M905.43,166.912a1.722,1.722,0,0,1-1.036-.344l-.019-.014-3.9-2.988a1.734,1.734,0,1,1,2.109-2.753l2.528,1.938,5.974-7.791a1.734,1.734,0,0,1,2.431-.321l-.037.05.038-.05a1.736,1.736,0,0,1,.321,2.431l-7.026,9.164A1.734,1.734,0,0,1,905.43,166.912Z" transform="translate(-798.05 -143.97)"/></g><path class="i" d="M448.454,759.332H194.786a.666.666,0,1,1,0-1.332H448.454a.666.666,0,1,1,0,1.332Z" transform="translate(-178.12 -229.932)"/></g></svg>