<svg xmlns="http://www.w3.org/2000/svg" width="21" height="20.158" viewBox="0 0 21 20.158"><defs><style>.a{fill:#3c7a3c;}</style></defs><path class="a" d="M20.96,21.311a8.279,8.279,0,0,0-6.438-7.259V13.01a1.395,1.395,0,0,0-.337-2.748H11.232A1.395,1.395,0,0,0,10.9,13.01v1.045a8.236,8.236,0,0,0-4.039,2.222,8.325,8.325,0,0,0-.7.79l-.031,0H3.206a.41.41,0,0,0,0,.82H5.6a8.222,8.222,0,0,0-.728,1.576H.41a.41.41,0,1,0,0,.82H4.642a8.34,8.34,0,0,0-.2,1.577H2.625a.41.41,0,1,0,0,.82H4.452a8.327,8.327,0,0,0,.256,1.577H2.051a.41.41,0,1,0,0,.82H4.97a8.284,8.284,0,0,0,6.926,5.3q.406.04.813.04a8.305,8.305,0,0,0,4.522-1.336.41.41,0,0,0-.448-.687,7.465,7.465,0,1,1,2.2-2.2.41.41,0,1,0,.688.447A8.312,8.312,0,0,0,20.96,21.311Zm-10.3-9.655a.575.575,0,0,1,.574-.574h2.953a.574.574,0,1,1,0,1.148H11.232A.575.575,0,0,1,10.658,11.657Zm1.058,2.257v-.863H13.7v.861A8.357,8.357,0,0,0,11.716,13.914Z" transform="translate(0 -10.262)"/><path class="a" d="M436.179,425.5a.409.409,0,1,0,.289.12A.411.411,0,0,0,436.179,425.5Z" transform="translate(-417.885 -408.457)"/><path class="a" d="M161.211,144.609a6.339,6.339,0,1,0,6.339,6.339A6.347,6.347,0,0,0,161.211,144.609Zm0,11.862a5.522,5.522,0,1,1,5.522-5.522A5.528,5.528,0,0,1,161.211,156.471Z" transform="translate(-148.466 -139.045)"/><path class="a" d="M261.786,219.531l-2.024,2.024a1.267,1.267,0,0,0-1.122,0l-.906-.906a.409.409,0,1,0-.578.578l.906.906a1.27,1.27,0,1,0,2.278,0l1.965-1.965h0l.059-.059a.409.409,0,0,0-.578-.578Zm-2.585,3.615a.453.453,0,1,1,.453-.453A.453.453,0,0,1,259.2,223.146Z" transform="translate(-246.48 -210.823)"/><path class="a" d="M398.442,289.86h-.379a.409.409,0,1,0,0,.817h.379a.409.409,0,1,0,0-.817Z" transform="translate(-381.341 -278.39)"/><path class="a" d="M193.869,289.616h-.379a.409.409,0,1,0,0,.817h.379a.409.409,0,1,0,0-.817Z" transform="translate(-185.161 -278.156)"/><path class="a" d="M300.532,184.015a.409.409,0,0,0,.409-.409v-.379a.409.409,0,1,0-.817,0v.379A.409.409,0,0,0,300.532,184.015Z" transform="translate(-287.811 -175.74)"/><path class="a" d="M300.288,387.393a.409.409,0,0,0-.409.409v.379a.409.409,0,0,0,.817,0V387.8A.409.409,0,0,0,300.288,387.393Z" transform="translate(-287.577 -371.921)"/><path class="a" d="M.409,351.44a.409.409,0,1,0,.289.7.409.409,0,0,0-.289-.7Z" transform="translate(0 -337.444)"/></svg>