<svg xmlns="http://www.w3.org/2000/svg" width="63.8" height="17.994" viewBox="0 0 63.8 17.994"><defs><style>.a{fill:#2394bc;}.b{fill:#efc75e;}</style></defs><g transform="translate(6.239)"><g transform="translate(0 0)"><path class="a" d="M47.282,100.23,44.1,118.188h5.093l3.185-17.958Zm15.363,7.315c-1.78-.8-2.871-1.333-2.871-2.147.022-.74.923-1.5,2.935-1.5a9.663,9.663,0,0,1,3.794.665l.462.187.692-3.757a14.045,14.045,0,0,0-4.572-.74c-5.03,0-8.572,2.368-8.594,5.756-.042,2.5,2.536,3.887,4.464,4.719,1.97.854,2.641,1.407,2.641,2.165-.022,1.164-1.593,1.7-3.06,1.7a11.273,11.273,0,0,1-4.78-.925l-.671-.277-.712,3.9a17.377,17.377,0,0,0,5.681.927c5.345,0,8.824-2.332,8.867-5.942C66.941,110.3,65.582,108.785,62.646,107.545Zm18.07-7.26H76.775a2.564,2.564,0,0,0-2.663,1.445l-7.566,16.458h5.345l1.472-3.563h5.98l.764,3.578h4.715Zm-5.869,10.744c.1.009,2.052-5.817,2.052-5.817l1.552,5.817ZM39.84,100.23l-4.99,12.2-.544-2.406c-.923-2.776-3.816-5.793-7.044-7.292l4.57,15.437h5.389l8.008-17.938H39.84Z" transform="translate(-27.262 -100.23)"/></g></g><path class="b" d="M11.882,102.933A3.5,3.5,0,0,0,8.4,100.248H.086L0,100.634c6.483,1.6,11.925,6.517,13.691,11.143Z" transform="translate(0 -100.244)"/></svg>